<svg xmlns="http://www.w3.org/2000/svg" viewBox="0 0 24 24" fill="currentColor"><path d="M23.268 5.313c-.35-2.578-2.617-4.61-5.304-5.004C17.51.242 15.792 0 11.813 0h-.03c-3.98 0-4.835.242-5.288.309C3.882.692 1.496 2.518.917 5.127.64 6.412.61 7.837.661 9.143c.074 1.874.088 3.745.26 5.611.118 1.24.325 2.47.62 3.68.55 2.237 2.777 4.098 4.96 4.857 2.336.792 4.849.923 7.256.38.265-.061.527-.132.786-.213.585-.184 1.27-.39 1.774-.753a.057.057 0 0 0 .023-.043v-1.809a.052.052 0 0 0-.02-.041.053.053 0 0 0-.046-.01 20.282 20.282 0 0 1-4.709.545c-2.73 0-3.463-1.284-3.674-1.818a5.593 5.593 0 0 1-.319-1.433.053.053 0 0 1 .066-.054c1.517.363 3.072.546 4.632.546.376 0 .75 0 1.125-.01 1.57-.044 3.224-.124 4.768-.422.038-.008.077-.015.11-.024 2.435-.464 4.753-1.92 4.989-5.604.008-.145.03-1.52.03-1.67.002-.512.167-3.63-.024-5.545zm-3.748 9.195h-2.561v-5.904c0-1.245-.527-1.88-1.567-1.88-1.156 0-1.735.752-1.735 2.239v3.227h-2.546V8.963c0-1.487-.58-2.24-1.735-2.24-1.04 0-1.567.635-1.567 1.88v5.905H5.252V8.67c0-1.243.316-2.232.95-2.964.654-.732 1.512-1.107 2.58-1.107 1.235 0 2.17.473 2.784 1.42l.6 1.004.6-1.004c.613-.947 1.55-1.42 2.784-1.42 1.068 0 1.926.375 2.58 1.107.633.732.95 1.72.95 2.964v5.838z"/></svg>