<svg xmlns="http://www.w3.org/2000/svg" viewBox="0 0 152 98" fill="currentColor">
  <path d="M74,0 L73.999681,69.878532 C73.990831,81.807533 73.800544,89.966506 73.800544,98 L35.464149,98 C12.566034,98 0,87.22 0,70.28 C0,58.94 6.422637,50.68 16.475468,47.32 C8.237732,43.82 3.211316,35.98 3.211316,26.32 C3.211316,10.64 15.637732,0 37.418866,0 L74,0 Z M114.581134,0 C136.362268,0 148.788684,10.64 148.788684,26.32 C148.788684,35.98 143.762268,43.82 135.524532,47.32 C145.577363,50.68 152,58.94 152,70.28 C152,87.22 139.433966,98 116.535851,98 L78.199456,98 C78.199456,89.966506 78.009169,81.807533 78.000319,69.878532 L78,0 L114.581134,0 Z M54.313206,56 L36.999998,56 C25.55094,56 19.826412,60.34 19.826412,68.88 C19.826412,77.84 25.132072,82.32 35.603771,82.32 L44.679243,82.32 C51.939621,82.32 54.313206,78.82 54.313206,68.18 L54.313206,56 Z M115.000002,56 L97.686794,56 L97.686794,68.18 C97.686794,78.82 100.060379,82.32 107.320757,82.32 L116.396229,82.32 C126.867928,82.32 132.173588,77.84 132.173588,68.88 C132.173588,60.34 126.44906,56 115.000002,56 Z M54.452829,15.68 L38.535847,15.68 C28.343393,15.68 23.037733,20.3 23.037733,28.14 C23.037733,35.98 28.343393,40.6 38.535847,40.6 L54.452829,40.6 L54.452829,15.68 Z M113.464153,15.68 L97.547171,15.68 L97.547171,40.6 L113.464153,40.6 C123.656607,40.6 128.962267,35.98 128.962267,28.14 C128.962267,20.3 123.656607,15.68 113.464153,15.68 Z"/>
</svg>