<svg xmlns="http://www.w3.org/2000/svg" width="300" height="300" viewBox="0 0 300 300">
  <g transform="matrix(1.7986955,0,0,1.7986953,-81.225387,-82.21613)">
    <path fill="#0d6efd" d="m 126.31055,49.273438 a 79.828499,79.828499 0 0 0 -79.828128,79.830082 79.828499,79.828499 0 0 0 79.828128,79.82812 79.828499,79.828499 0 0 0 58.89257,-26.11523 6.6156613,6.6156613 0 0 1 -3.08203,-1.17969 c -10.0506,-7.65795 -25.13161,-18.86328 -37.91406,-28.41211 -6.39122,-4.77442 -12.2086,-9.13446 -16.56836,-12.45703 -2.17988,-1.66129 -3.99032,-3.05899 -5.35937,-4.14649 -0.68453,-0.54374 -1.25589,-1.00777 -1.74219,-1.41992 -0.4863,-0.41215 -0.69107,-0.46343 -1.56641,-1.51172 a 6.6156613,6.6156613 0 0 1 0.82618,-9.30664 l 61.1914,-51.347654 a 6.6156613,6.6156613 0 0 1 1.37695,-0.751953 79.828499,79.828499 0 0 0 -56.05468,-23.009765 z"/>
    <g transform="matrix(0.70867334,0.844564,-0.844564,0.70867334,149.07041,-68.603738)">
      <path fill="#0d6efd" stroke="#0d6efd" stroke-width="2.205" stroke-linecap="round" stroke-linejoin="round" d="m 191.85591,78.645783 -61.19295,51.346987 c 1.76565,2.1145 41.85526,31.51395 62.08225,46.92568 22.69675,-28.94322 22.32752,-69.74493 -0.8893,-98.272667 z" transform="matrix(0.58302731,-0.69482489,0.69482489,0.58302731,-39.244535,143.57568)"/>
    </g>
    <g transform="matrix(1.1025,0,0,1.1025,-13.71578,-12.902128)">
      <path fill="#ffffff" d="m 159.07914,136.5639 11.55642,3.70589 c 1.6827,0.53969 2.60937,2.3412 2.06973,4.02391 -1.6e-4,5.1e-4 -4.8e-4,0.002 -6.4e-4,0.002 -0.54119,1.68385 -2.34453,2.61059 -4.02872,2.07048 l -11.55642,-3.7059 c -1.6827,-0.53969 -2.60937,-2.34119 -2.06974,-4.02391 1.7e-4,-5e-4 4.9e-4,-0.002 6.5e-4,-0.002 0.54119,-1.68384 2.34452,-2.61057 4.02872,-2.07047 z"/>
      <path fill="#ffffff" d="m 190.66555,142.05591 c -2.66422,8.21115 -2.98224,8.1927 -4.83694,11.78329 -1.05679,2.0459 -1.88256,3.66238 -3.01016,4.45133 -1.01786,0.7122 -2.49747,0.90485 -3.39635,0.25023 -1.38026,-1.00517 -1.50036,-2.27666 -1.00197,-3.58455 0.3567,-0.93596 1.0428,-1.80493 1.6958,-2.78512 0.43029,-0.6459 0.83321,-1.39376 1.16417,-2.05057 1.53511,-3.04632 2.94079,-6.50379 3.8704,-10.09586 2.28271,-8.82067 1.62423,-14.22695 1.47092,-18.61745 -0.76136,-7.70243 -2.97749,-14.8959 -6.64839,-21.58039 -0.51584,-0.939468 -0.80438,-1.615705 -0.86562,-2.028728 -0.30326,-2.009094 1.52287,-3.276255 3.38619,-2.996294 1.32965,0.197613 2.15779,1.394525 2.7702,2.526047 3.93527,7.284905 6.31391,14.976685 7.13592,23.075325 0.22589,1.24123 0.93006,13.44162 -1.73417,21.65274 z"/>
      <path fill="#ffffff" d="m 109.61556,62.456926 c 1.84985,-0.243728 3.54703,1.05829 3.79075,2.908139 3e-5,2.27e-4 6e-5,4.54e-4 9e-5,6.97e-4 l 1.78356,13.556441 c 0.24342,1.850384 -1.05907,3.547824 -2.90941,3.791615 -1.84984,0.243729 -3.54702,-1.058289 -3.79075,-2.908138 -3e-5,-2.27e-4 -6e-5,-4.54e-4 -9e-5,-6.98e-4 l -1.78356,-13.55644 c -0.24341,-1.850384 1.05908,-3.547824 2.90941,-3.791616 z" transform="matrix(0.90702948,0,0,0.90702948,12.440617,11.70261)"/>
      <path fill="#ffffff" d="m 149.66649,67.587205 c 1.60769,0.891822 2.18858,2.917705 1.2978,4.525968 l -5.12009,9.244151 c -0.89004,1.606869 -2.91414,2.188021 -4.52103,1.298009 -5.1e-4,-2.84e-4 -0.002,-8.52e-4 -0.002,-0.0011 -1.60769,-0.891825 -2.18858,-2.917705 -1.2978,-4.525972 l 5.12009,-9.24415 c 0.89004,-1.60687 2.91415,-2.188018 4.52103,-1.298009 5.1e-4,2.83e-4 0.002,8.51e-4 0.002,0.0011 z" transform="matrix(0.90702948,0,0,0.90702948,12.440617,11.70261)"/>
      <path fill="#ffffff" d="m 75.886295,92.125469 9.319605,7.287009 c 1.363624,1.066182 1.605426,3.035632 0.54026,4.400052 -1.064135,1.36306 -3.031753,1.60543 -4.394831,0.54131 -6.29e-4,-4.9e-4 -0.0013,-9e-4 -0.0019,-0.002 l -9.319585,-7.286662 c -1.363623,-1.066188 -1.605426,-3.035635 -0.54026,-4.400056 1.064135,-1.363067 3.031752,-1.605434 4.394831,-0.541315 6.29e-4,4.9e-4 0.0013,9.97e-4 0.0019,0.0015 z"/>
      <path fill="#ffffff" d="m 96.556577,92.328279 c 1.449922,-1.038835 3.467453,-0.705618 4.506293,0.744292 4.8e-4,6.67e-4 9.3e-4,0.0013 10e-4,0.002 l 6.07212,8.488499 c 1.03883,1.45203 0.70451,3.47119 -0.74679,4.51104 -1.44996,1.03878 -3.46745,0.70562 -4.5063,-0.74429 -4.8e-4,-6.7e-4 -9.2e-4,-0.001 -0.001,-0.002 l -6.072119,-8.488494 c -1.038831,-1.45203 -0.704506,-3.471195 0.746796,-4.51104 z" transform="matrix(0.90702948,0,0,0.90702948,12.440617,11.70261)"/>
      <path fill="#ffffff" d="m 81.299229,117.43443 7.573022,0.66307 c 1.74553,0.15284 3.036742,1.69164 2.884145,3.43719 -0.152569,1.74525 -1.691049,3.03636 -3.436292,2.88379 -1.43e-4,-1e-5 -2.86e-4,-2e-5 -4.3e-4,-4e-5 l -7.573022,-0.66307 c -1.74553,-0.15283 -3.036742,-1.69164 -2.884146,-3.43719 0.152569,-1.74524 1.691049,-3.03636 3.436292,-2.88379 1.44e-4,1e-5 2.88e-4,2e-5 4.31e-4,4e-5 z" transform="matrix(0.90702948,0,0,0.90702948,12.440617,11.70261)"/>
      <path fill="#ffffff" d="m 65.491296,133.9377 10.159399,-1.39273 c 1.732224,-0.23747 3.328977,0.97426 3.566448,2.70648 3e-5,2.2e-4 6.1e-5,4.5e-4 7.2e-5,5.3e-4 0.237171,1.73274 -0.975024,3.32976 -2.707721,3.56729 l -10.159399,1.39274 c -1.732224,0.23747 -3.328977,-0.97427 -3.566448,-2.70649 -3e-5,-2.2e-4 -6.1e-5,-4.4e-4 -7.3e-5,-5.2e-4 -0.237169,-1.73275 0.975026,-3.32976 2.707722,-3.5673 z"/>
      <path fill="#ffffff" d="m 111.06437,149.5736 c 1.64152,0.72799 2.38257,2.64847 1.65553,4.2904 l -3.36205,7.59268 c -0.72649,1.64071 -2.64548,2.38182 -4.28618,1.65533 -5.4e-4,-2.4e-4 -10e-4,-4.7e-4 -0.002,-7.1e-4 -1.64151,-0.72799 -2.38256,-2.64847 -1.65553,-4.2904 l 3.36205,-7.59268 c 0.72649,-1.64071 2.64549,-2.38182 4.28619,-1.65533 5.3e-4,2.4e-4 10e-4,4.7e-4 0.002,7.1e-4 z" transform="matrix(0.90702948,0,0,0.90702948,12.440617,11.70261)"/>
      <path fill="#ffffff" d="m 74.090285,168.80704 9.024113,-7.10649 c 1.514613,-1.19263 3.709194,-0.9319 4.901941,0.58262 7.25e-4,9.2e-4 0.0011,10e-4 0.0018,0.002 1.192745,1.51694 0.930851,3.71341 -0.585162,4.90733 l -9.024113,7.1065 c -1.514613,1.19263 -3.709195,0.93189 -4.901942,-0.58263 -7.25e-4,-9.2e-4 -0.0011,-0.001 -0.0018,-0.002 -1.192745,-1.51694 -0.930851,-3.7134 0.585162,-4.90733 z" transform="matrix(0.90702948,0,0,0.90702948,12.440617,11.70261)"/>
    </g>
  </g>
</svg>
