<?xml version="1.0" encoding="UTF-8" standalone="no"?>
<!DOCTYPE svg PUBLIC "-//W3C//DTD SVG 1.1//EN" "http://www.w3.org/Graphics/SVG/1.1/DTD/svg11.dtd">
<svg width="100%" height="100%" viewBox="0 0 1868 369" version="1.1" xmlns="http://www.w3.org/2000/svg" xmlns:xlink="http://www.w3.org/1999/xlink" xml:space="preserve" xmlns:serif="http://www.serif.com/" style="fill-rule:evenodd;clip-rule:evenodd;stroke-linejoin:round;stroke-miterlimit:2;">
    <g transform="matrix(1,0,0,1,-7382,-5961)">
        <g id="logo-full-on-light" transform="matrix(1.37765,0,0,0.436443,6753.78,5909.39)">
            <rect x="456.012" y="118.259" width="1355.93" height="845.471" style="fill:none;"/>
            <clipPath id="_clip1">
                <rect x="456.012" y="118.259" width="1355.93" height="845.471"/>
            </clipPath>
            <g clip-path="url(#_clip1)">
                <g transform="matrix(0.70004,0,0,2.2097,-12328.7,-9014.27)">
                    <g id="logo-full">
                        <g>
                            <g transform="matrix(1,0,0,1,18334,4167.22)">
                                <path d="M573.26,272.14L573.26,47.5L712.56,47.5L712.56,76.68L607.16,76.68L607.16,145.12L702.59,145.12L702.59,174.19L607.16,174.19L607.16,272.14L573.26,272.14Z" style="fill:rgb(100,118,138);fill-rule:nonzero;"/>
                            </g>
                            <g transform="matrix(1,0,0,1,18334,4167.22)">
                                <path d="M824.23,275.54C807.63,275.54 793.35,271.97 781.4,264.84C769.44,257.71 760.23,247.66 753.76,234.68C747.29,221.7 744.05,206.47 744.05,188.99C744.05,171.73 747.29,156.53 753.76,143.36C760.23,130.2 769.3,119.93 780.96,112.54C792.62,105.15 806.28,101.46 821.93,101.46C831.44,101.46 840.65,103.03 849.57,106.18C858.49,109.32 866.5,114.26 873.59,120.99C880.68,127.72 886.28,136.44 890.37,147.15C894.46,157.86 896.51,170.86 896.51,186.14L896.51,197.77L762.58,197.77L762.58,173.2L864.37,173.2C864.37,164.57 862.62,156.91 859.11,150.22C855.6,143.53 850.68,138.25 844.36,134.37C838.04,130.5 830.63,128.56 822.15,128.56C812.94,128.56 804.91,130.81 798.08,135.31C791.24,139.81 785.98,145.66 782.29,152.86C778.59,160.07 776.75,167.87 776.75,176.28L776.75,195.48C776.75,206.74 778.74,216.32 782.73,224.22C786.71,232.12 792.29,238.13 799.46,242.26C806.63,246.39 815,248.46 824.58,248.46C830.8,248.46 836.46,247.57 841.58,245.77C846.7,243.98 851.12,241.29 854.85,237.71C858.58,234.13 861.43,229.7 863.41,224.44L894.45,230.03C891.96,239.17 887.52,247.16 881.12,254C874.72,260.84 866.71,266.14 857.1,269.9C847.46,273.66 836.51,275.54 824.23,275.54Z" style="fill:rgb(100,118,138);fill-rule:nonzero;"/>
                            </g>
                            <g transform="matrix(1,0,0,1,18334,4167.22)">
                                <path d="M996.11,275.43C982.51,275.43 970.39,271.94 959.75,264.96C949.11,257.98 940.77,248 934.74,235.02C928.71,222.04 925.69,206.45 925.69,188.24C925.69,170.03 928.74,154.46 934.85,141.51C940.95,128.57 949.34,118.66 960.02,111.79C970.7,104.92 982.8,101.48 996.33,101.48C1006.78,101.48 1015.21,103.22 1021.61,106.69C1028.01,110.17 1032.98,114.2 1036.53,118.81C1040.08,123.42 1042.84,127.47 1044.81,130.98L1046.78,130.98L1046.78,47.5L1079.58,47.5L1079.58,272.14L1047.55,272.14L1047.55,245.92L1044.81,245.92C1042.84,249.5 1040,253.6 1036.31,258.21C1032.62,262.82 1027.55,266.84 1021.12,270.27C1014.68,273.71 1006.34,275.43 996.11,275.43ZM1003.35,247.46C1012.78,247.46 1020.77,244.96 1027.32,239.94C1033.86,234.93 1038.84,227.97 1042.24,219.05C1045.64,210.13 1047.34,199.75 1047.34,187.9C1047.34,176.2 1045.66,165.96 1042.29,157.19C1038.93,148.41 1033.99,141.58 1027.48,136.68C1020.97,131.78 1012.93,129.33 1003.35,129.33C993.48,129.33 985.25,131.89 978.67,137.01C972.09,142.13 967.13,149.11 963.81,157.96C960.48,166.81 958.82,176.79 958.82,187.9C958.82,199.16 960.5,209.29 963.87,218.28C967.23,227.28 972.22,234.39 978.84,239.61C985.45,244.85 993.62,247.46 1003.35,247.46Z" style="fill:rgb(100,118,138);fill-rule:nonzero;"/>
                            </g>
                            <g transform="matrix(1,0,0,1,18334,4167.22)">
                                <path d="M1142.86,77.67C1137.16,77.67 1132.28,75.75 1128.22,71.91C1124.16,68.07 1122.13,63.48 1122.13,58.14C1122.13,52.73 1124.16,48.1 1128.22,44.26C1132.28,40.42 1137.16,38.5 1142.86,38.5C1148.56,38.5 1153.44,40.42 1157.5,44.26C1161.56,48.1 1163.59,52.69 1163.59,58.03C1163.59,63.44 1161.56,68.07 1157.5,71.91C1153.45,75.74 1148.57,77.67 1142.86,77.67ZM1126.3,272.14L1126.3,103.66L1159.1,103.66L1159.1,272.14L1126.3,272.14Z" style="fill:rgb(100,118,138);fill-rule:nonzero;"/>
                            </g>
                            <g transform="matrix(1,0,0,1,18334,4167.22)">
                                <path d="M1205.82,272.14L1205.82,47.5L1239.71,47.5L1239.71,145.12L1351.7,145.12L1351.7,47.5L1385.7,47.5L1385.7,272.14L1351.7,272.14L1351.7,174.19L1239.71,174.19L1239.71,272.14L1205.82,272.14Z" style="fill:rgb(100,118,138);fill-rule:nonzero;"/>
                            </g>
                            <g transform="matrix(1,0,0,1,18334,4167.22)">
                                <path d="M1503.41,275.54C1487.62,275.54 1473.83,271.92 1462.06,264.68C1450.28,257.44 1441.15,247.31 1434.64,234.3C1428.13,221.29 1424.88,206.07 1424.88,188.67C1424.88,171.2 1428.13,155.91 1434.64,142.82C1441.15,129.73 1450.29,119.57 1462.06,112.33C1473.83,105.09 1487.62,101.47 1503.41,101.47C1519.2,101.47 1532.99,105.09 1544.76,112.33C1556.53,119.57 1565.67,129.74 1572.18,142.82C1578.69,155.91 1581.94,171.19 1581.94,188.67C1581.94,206.08 1578.68,221.29 1572.18,234.3C1565.67,247.32 1556.53,257.44 1544.76,264.68C1532.99,271.92 1519.2,275.54 1503.41,275.54ZM1503.52,248.01C1513.76,248.01 1522.24,245.3 1528.97,239.89C1535.7,234.48 1540.69,227.28 1543.94,218.28C1547.19,209.29 1548.82,199.38 1548.82,188.56C1548.82,177.81 1547.19,167.92 1543.94,158.89C1540.68,149.86 1535.7,142.6 1528.97,137.12C1522.24,131.64 1513.76,128.89 1503.52,128.89C1493.21,128.89 1484.67,131.63 1477.91,137.12C1471.15,142.6 1466.13,149.86 1462.88,158.89C1459.62,167.92 1458,177.81 1458,188.56C1458,199.38 1459.63,209.29 1462.88,218.28C1466.13,227.28 1471.14,234.48 1477.91,239.89C1484.67,245.3 1493.21,248.01 1503.52,248.01Z" style="fill:rgb(100,118,138);fill-rule:nonzero;"/>
                            </g>
                            <g transform="matrix(1,0,0,1,18334,4167.22)">
                                <path d="M1744.71,144.79L1714.99,150.06C1713.75,146.26 1711.79,142.64 1709.12,139.2C1706.45,135.76 1702.85,132.95 1698.32,130.75C1693.79,128.56 1688.12,127.46 1681.32,127.46C1672.03,127.46 1664.28,129.53 1658.07,133.66C1651.85,137.79 1648.75,143.11 1648.75,149.62C1648.75,155.25 1650.83,159.78 1655,163.22C1659.17,166.66 1665.9,169.47 1675.18,171.66L1701.94,177.8C1717.44,181.38 1729,186.9 1736.6,194.36C1744.21,201.82 1748.01,211.51 1748.01,223.43C1748.01,233.52 1745.1,242.5 1739.29,250.36C1733.48,258.22 1725.4,264.39 1715.05,268.84C1704.7,273.3 1692.73,275.53 1679.13,275.53C1660.26,275.53 1644.87,271.49 1632.95,263.41C1621.03,255.33 1613.72,243.83 1611.01,228.91L1642.71,224.08C1644.68,232.34 1648.74,238.58 1654.88,242.78C1661.02,246.99 1669.03,249.09 1678.9,249.09C1689.65,249.09 1698.24,246.84 1704.68,242.34C1711.11,237.84 1714.33,232.34 1714.33,225.83C1714.33,220.57 1712.37,216.14 1708.46,212.56C1704.55,208.98 1698.57,206.27 1690.52,204.44L1662,198.19C1646.28,194.61 1634.67,188.9 1627.17,181.08C1619.67,173.26 1615.93,163.35 1615.93,151.36C1615.93,141.42 1618.71,132.71 1624.27,125.25C1629.83,117.79 1637.5,111.96 1647.3,107.75C1657.1,103.55 1668.32,101.44 1680.97,101.44C1699.18,101.44 1713.51,105.37 1723.97,113.23C1734.43,121.09 1741.35,131.63 1744.71,144.79Z" style="fill:rgb(100,118,138);fill-rule:nonzero;"/>
                            </g>
                            <g transform="matrix(1,0,0,1,18334,4167.22)">
                                <path d="M1862.63,103.66L1862.63,129.98L1770.6,129.98L1770.6,103.66L1862.63,103.66ZM1795.28,63.29L1828.08,63.29L1828.08,222.67C1828.08,229.03 1829.03,233.8 1830.93,236.98C1832.83,240.16 1835.3,242.32 1838.33,243.45C1841.36,244.58 1844.67,245.15 1848.26,245.15C1850.89,245.15 1853.19,244.97 1855.17,244.6C1857.14,244.23 1858.68,243.94 1859.78,243.72L1865.7,270.81C1863.8,271.54 1861.09,272.29 1857.58,273.06C1854.07,273.83 1849.68,274.25 1844.42,274.32C1835.79,274.47 1827.75,272.93 1820.29,269.71C1812.83,266.49 1806.8,261.52 1802.19,254.79C1797.58,248.06 1795.28,239.62 1795.28,229.45L1795.28,63.29Z" style="fill:rgb(100,118,138);fill-rule:nonzero;"/>
                            </g>
                        </g>
                    </g>
                </g>
                <g id="logo-flat" transform="matrix(0.794174,0,0,1.90851,1191.71,-6889.8)">
                    <g>
                        <g transform="matrix(0.598132,0,0,0.754053,-863.095,867.242)">
                            <path d="M567.191,4061.09L-13.483,4061.09L-13.483,4297.52C-13.483,4302.79 -17.588,4307.07 -22.652,4307.07L-96,4307.07C-101.064,4307.07 -105.169,4302.79 -105.169,4297.52L-105.169,3729.13C-105.169,3723.86 -101.064,3719.58 -96,3719.58L176,3719.58C181.064,3719.58 185.169,3723.86 185.169,3729.13L185.169,3805.55C185.169,3810.83 181.064,3815.11 176,3815.11L-13.483,3815.11L-13.483,3965.56L567.191,3965.56L567.191,3729.13C567.191,3723.86 571.296,3719.58 576.36,3719.58L649.708,3719.58C654.772,3719.58 658.876,3723.86 658.876,3729.13L658.876,4297.52C658.876,4302.79 654.772,4307.07 649.708,4307.07L576.36,4307.07C571.296,4307.07 567.191,4302.79 567.191,4297.52L567.191,4061.09Z" style="fill:rgb(57,72,103);"/>
                        </g>
                        <g transform="matrix(-8.14908e-17,-0.441376,0.656089,-1.44108e-16,-3138.66,4065.42)">
                            <path d="M192.32,3729.13L192.32,3796C192.32,3800.62 185.013,3804.36 176,3804.36L-96,3804.36C-105.013,3804.36 -112.32,3800.62 -112.32,3796L-112.32,3729.13C-112.32,3724.51 -105.013,3720.77 -96,3720.77L176,3720.77C185.013,3720.77 192.32,3724.51 192.32,3729.13Z" style="fill:rgb(57,72,103);"/>
                        </g>
                        <g transform="matrix(-8.14908e-17,-0.441376,0.656089,-1.44108e-16,-3138.66,3756.89)">
                            <path d="M192.32,3729.13L192.32,3796C192.32,3800.62 185.013,3804.36 176,3804.36L-96,3804.36C-105.013,3804.36 -112.32,3800.62 -112.32,3796L-112.32,3729.13C-112.32,3724.51 -105.013,3720.77 -96,3720.77L176,3720.77C185.013,3720.77 192.32,3724.51 192.32,3729.13Z" style="fill:rgb(57,72,103);"/>
                        </g>
                    </g>
                </g>
            </g>
        </g>
    </g>
</svg>
