<?xml version="1.0" encoding="UTF-8" standalone="no"?>
<!DOCTYPE svg PUBLIC "-//W3C//DTD SVG 1.1//EN" "http://www.w3.org/Graphics/SVG/1.1/DTD/svg11.dtd">
<svg width="100%" height="100%" viewBox="0 0 461 122" version="1.1" xmlns="http://www.w3.org/2000/svg" xmlns:xlink="http://www.w3.org/1999/xlink" xml:space="preserve" xmlns:serif="http://www.serif.com/" style="fill-rule:evenodd;clip-rule:evenodd;stroke-linejoin:round;stroke-miterlimit:2;">
    <g transform="matrix(1,0,0,1,-28456,-1635)">
        <g transform="matrix(0.867303,0,0,4.11523,30477.3,835.391)">
            <g id="qlub">
                <g id="g21" transform="matrix(-0.373738,0.00562532,0.0332482,0.0981174,-2193.88,189.119)">
                    <g id="g22">
                        <g id="g211" serif:id="g21">
                            <path id="path21" d="M184.326,44.67C285.439,38.875 374.584,100.899 381.808,182.071C382.122,185.592 382.279,189.122 382.279,192.653C382.279,270.053 306.824,335.11 210.654,340.626C185.646,342.042 160.539,339.358 136.863,332.738C99.45,346.82 69.568,349.37 52.966,349.37C45.368,349.37 41.075,348.82 40.897,348.797C38.934,348.539 37.324,347.158 36.766,345.258C36.208,343.357 36.831,341.305 38.344,340.027C56.912,324.354 65.905,310.28 70.29,300.239C36.843,274.758 16.457,240.128 13.17,203.205C5.952,122.033 83.213,50.469 184.326,44.67ZM189.16,94.863C122.857,98.664 72.195,145.592 76.93,198.819C81.665,252.045 140.12,292.717 206.423,288.915C272.726,285.114 323.389,238.187 318.654,184.96C313.919,131.733 255.463,91.062 189.16,94.863Z" style="fill:rgb(97,97,255);fill-rule:nonzero;"/>
                        </g>
                    </g>
                </g>
                <g transform="matrix(8.35177,0,0,2.05788,-2166.86,218.272)">
                    <path d="M11.922,-5.727C11.922,-3.138 11.099,-1.393 9.453,-0.492L12.242,2.719L8.398,2.719L6.383,0.18L6.375,0.172L6.375,0.164L6.367,0.156C4.576,0.156 3.202,-0.346 2.246,-1.352C1.29,-2.357 0.813,-3.82 0.813,-5.742C0.813,-7.643 1.288,-9.095 2.238,-10.098C3.189,-11.1 4.57,-11.602 6.383,-11.602C8.201,-11.602 9.578,-11.104 10.516,-10.109C11.453,-9.115 11.922,-7.654 11.922,-5.727ZM4.063,-5.727C4.063,-3.518 4.831,-2.414 6.367,-2.414C7.148,-2.414 7.728,-2.682 8.105,-3.219C8.483,-3.755 8.672,-4.591 8.672,-5.727C8.672,-6.867 8.48,-7.71 8.098,-8.254C7.715,-8.798 7.143,-9.07 6.383,-9.07C4.836,-9.07 4.063,-7.956 4.063,-5.727Z" style="fill-rule:nonzero;"/>
                    <path d="M13.984,0L13.984,-11.422L17.07,-11.422L17.07,-2.492L21.469,-2.492L21.469,0L13.984,0Z" style="fill-rule:nonzero;"/>
                    <path d="M32.852,-11.422L32.852,-4.547C32.852,-3.052 32.428,-1.895 31.582,-1.074C30.736,-0.254 29.516,0.156 27.922,0.156C26.365,0.156 25.168,-0.242 24.332,-1.039C23.496,-1.836 23.078,-2.982 23.078,-4.477L23.078,-11.422L26.18,-11.422L26.18,-4.719C26.18,-3.911 26.331,-3.326 26.633,-2.961C26.935,-2.596 27.38,-2.414 27.969,-2.414C28.599,-2.414 29.056,-2.595 29.34,-2.957C29.624,-3.319 29.766,-3.911 29.766,-4.734L29.766,-11.422L32.852,-11.422Z" style="fill-rule:nonzero;"/>
                    <path d="M35.25,-11.422L39.234,-11.422C40.786,-11.422 41.939,-11.191 42.691,-10.73C43.444,-10.27 43.82,-9.552 43.82,-8.578C43.82,-7.938 43.656,-7.391 43.328,-6.938C43,-6.484 42.568,-6.193 42.031,-6.063L42.031,-5.984C42.74,-5.797 43.253,-5.484 43.57,-5.047C43.888,-4.609 44.047,-4.042 44.047,-3.344C44.047,-2.307 43.658,-1.491 42.879,-0.895C42.1,-0.298 41.039,0 39.695,0L35.25,0L35.25,-11.422ZM38.336,-7.039L39.266,-7.039C39.708,-7.039 40.051,-7.13 40.293,-7.313C40.535,-7.495 40.656,-7.766 40.656,-8.125C40.656,-8.766 40.172,-9.086 39.203,-9.086L38.336,-9.086L38.336,-7.039ZM38.336,-4.781L38.336,-2.383L39.422,-2.383C40.385,-2.383 40.867,-2.789 40.867,-3.602C40.867,-3.982 40.738,-4.273 40.48,-4.477C40.223,-4.68 39.849,-4.781 39.359,-4.781L38.336,-4.781Z" style="fill-rule:nonzero;"/>
                </g>
            </g>
        </g>
    </g>
</svg>
