<?xml version="1.0" encoding="UTF-8" standalone="no"?>
<!DOCTYPE svg PUBLIC "-//W3C//DTD SVG 1.1//EN" "http://www.w3.org/Graphics/SVG/1.1/DTD/svg11.dtd">
<svg width="100%" height="100%" viewBox="0 0 408 145" version="1.1" xmlns="http://www.w3.org/2000/svg" xmlns:xlink="http://www.w3.org/1999/xlink" xml:space="preserve" xmlns:serif="http://www.serif.com/" style="fill-rule:evenodd;clip-rule:evenodd;stroke-linejoin:round;stroke-miterlimit:2;">
    <g transform="matrix(1,0,0,1,-28460,-2060)">
        <g transform="matrix(0.867303,0,0,4.11523,30477.3,835.391)">
            <g id="social-web-foundation-onlight">
                <g transform="matrix(1.153,0,0,0.243,-2325.34,297.701)">
                    <path d="M166.67,4.24L194.84,4.24L194.84,10.22L184.31,10.22L184.31,39.27L177.21,39.27L177.21,10.22L166.68,10.22L166.68,4.24L166.67,4.24Z" style="fill:rgb(35,31,32);"/>
                    <path d="M204.54,17.42L204.69,17.42C206.5,14.77 208.56,13.45 211.99,13.45C217.18,13.45 220.66,17.37 220.66,22.86L220.66,39.27L214,39.27L214,23.84C214,21.14 212.43,19.23 209.64,19.23C206.7,19.23 204.54,21.58 204.54,25.01L204.54,39.27L197.88,39.27L197.88,4.24L204.54,4.24L204.54,17.42Z" style="fill:rgb(35,31,32);"/>
                    <path d="M223.56,26.68C223.56,19.23 228.61,13.45 235.96,13.45C244.04,13.45 248.36,19.62 248.36,28.59L230.13,28.59C230.62,32.46 232.78,34.86 236.55,34.86C239.15,34.86 240.67,33.68 241.4,31.77L247.97,31.77C247.04,36.23 243.07,40 236.6,40C228.27,40 223.57,34.17 223.57,26.67L223.56,26.68ZM230.22,23.98L241.39,23.98C241.19,20.8 239.09,18.59 236.05,18.59C232.52,18.59 230.81,20.7 230.22,23.98Z" style="fill:rgb(35,31,32);"/>
                    <path d="M166.91,78.45L173.87,78.45C174.36,82.66 176.76,84.33 181.76,84.33C185.39,84.33 188.57,83.06 188.57,79.82C188.57,76.39 185.24,75.7 179.9,74.48C173.63,73.06 167.9,71.39 167.9,64.09C167.9,57.18 173.53,53.6 181.32,53.6C189.11,53.6 194.3,57.47 194.84,64.53L188.03,64.53C187.64,61 184.89,59.24 181.27,59.24C177.45,59.24 174.95,60.86 174.95,63.36C174.95,66.2 177.4,67.03 182.59,68.16C189.79,69.73 195.67,71.44 195.67,78.99C195.67,86.09 189.94,90.06 182.05,90.06C172.55,90.06 167.16,85.85 166.91,78.45Z" style="fill:rgb(35,31,32);"/>
                    <path d="M198.17,76.73C198.17,69.23 203.51,63.45 211.3,63.45C219.09,63.45 224.43,69.23 224.43,76.73C224.43,84.23 219.09,90.01 211.3,90.01C203.51,90.01 198.17,84.23 198.17,76.73ZM217.67,76.73C217.67,71.83 215.37,68.5 211.3,68.5C207.23,68.5 204.93,71.83 204.93,76.73C204.93,81.63 207.18,84.91 211.3,84.91C215.42,84.91 217.67,81.63 217.67,76.73Z" style="fill:rgb(35,31,32);"/>
                    <path d="M226.3,76.73C226.3,69.23 231.2,63.45 238.84,63.45C245.36,63.45 249.37,67.22 250.26,72.66L243.74,72.66C243.3,70.45 241.58,68.79 239.13,68.79C235.11,68.79 233.05,71.88 233.05,76.73C233.05,81.58 234.96,84.67 239.03,84.67C241.72,84.67 243.64,83.25 244.08,80.41L250.5,80.41C250.06,85.75 245.89,90.01 239.18,90.01C231.24,90.01 226.29,84.23 226.29,76.73L226.3,76.73Z" style="fill:rgb(35,31,32);"/>
                    <path d="M253.4,54.24L260.06,54.24L260.06,60.22L253.4,60.22L253.4,54.24ZM253.4,64.14L260.06,64.14L260.06,89.27L253.4,89.27L253.4,64.14Z" style="fill:rgb(35,31,32);"/>
                    <path d="M279.42,86.48L279.32,86.48C278.05,88.39 276.23,89.86 271.92,89.86C266.78,89.86 263.15,87.17 263.15,82.17C263.15,76.63 267.66,74.87 273.24,74.09C277.4,73.5 279.32,73.16 279.32,71.25C279.32,69.34 277.9,68.26 275.11,68.26C271.97,68.26 270.46,69.39 270.26,71.79L264.33,71.79C264.53,67.38 267.81,63.51 275.16,63.51C282.51,63.51 285.74,66.89 285.74,72.77L285.74,85.56C285.74,87.47 286.03,88.6 286.62,89.04L286.62,89.29L280.2,89.29C279.81,88.8 279.56,87.62 279.42,86.5L279.42,86.48ZM279.47,80.4L279.47,76.63C278.29,77.32 276.48,77.71 274.81,78.1C271.33,78.88 269.62,79.67 269.62,82.02C269.62,84.37 271.19,85.2 273.54,85.2C277.36,85.2 279.47,82.85 279.47,80.4Z" style="fill:rgb(35,31,32);"/>
                    <rect x="290.05" y="54.24" width="6.66" height="35.03" style="fill:rgb(35,31,32);"/>
                    <path d="M307.44,54.24L314.69,54.24L319.25,71.63C319.94,74.62 320.77,79.27 320.77,79.27L320.87,79.27C320.87,79.27 321.75,74.91 322.49,71.82L326.31,54.23L333.17,54.23L336.99,71.77C337.72,74.86 338.61,79.27 338.61,79.27L338.71,79.27C338.71,79.27 339.74,74.62 340.42,71.58L344.83,54.24L351.84,54.24L341.84,89.27L335.22,89.27L330.96,70.5C330.37,67.95 329.74,64.28 329.74,64.28L329.64,64.28C329.64,64.28 329.1,67.95 328.51,70.5L324.2,89.27L317.63,89.27L307.44,54.24Z" style="fill:rgb(35,31,32);"/>
                    <path d="M350.32,76.68C350.32,69.23 355.37,63.45 362.72,63.45C370.8,63.45 375.12,69.62 375.12,78.59L356.89,78.59C357.38,82.46 359.54,84.86 363.31,84.86C365.91,84.86 367.43,83.68 368.16,81.77L374.73,81.77C373.8,86.23 369.83,90 363.36,90C355.03,90 350.33,84.17 350.33,76.67L350.32,76.68ZM356.98,73.98L368.15,73.98C367.95,70.8 365.85,68.59 362.81,68.59C359.28,68.59 357.57,70.7 356.98,73.98Z" style="fill:rgb(35,31,32);"/>
                    <path d="M384.71,86.14L384.61,86.14L384.61,89.28L378.19,89.28L378.19,54.25L384.85,54.25L384.85,67.18L385,67.18C386.37,65.07 388.53,63.46 392.01,63.46C398.33,63.46 402.84,68.9 402.84,76.74C402.84,84.58 398.53,90.02 392.21,90.02C388.68,90.02 386.18,88.5 384.71,86.15L384.71,86.14ZM396.08,76.73C396.08,72.08 394.22,68.84 390.5,68.84C386.29,68.84 384.72,72.22 384.72,76.88C384.72,81.54 387.02,84.42 390.75,84.42C394.18,84.42 396.09,81.58 396.09,76.73L396.08,76.73Z" style="fill:rgb(35,31,32);"/>
                    <path d="M168.48,104.24L193.57,104.24L193.57,110.27L175.59,110.27L175.59,118.7L190.83,118.7L190.83,124.78L175.59,124.78L175.59,139.28L168.49,139.28L168.49,104.25L168.48,104.24Z" style="fill:rgb(35,31,32);"/>
                    <path d="M193.62,126.73C193.62,119.23 198.96,113.45 206.75,113.45C214.54,113.45 219.88,119.23 219.88,126.73C219.88,134.23 214.54,140.01 206.75,140.01C198.96,140.01 193.62,134.23 193.62,126.73ZM213.12,126.73C213.12,121.83 210.82,118.5 206.75,118.5C202.68,118.5 200.38,121.83 200.38,126.73C200.38,131.63 202.63,134.91 206.75,134.91C210.87,134.91 213.12,131.63 213.12,126.73Z" style="fill:rgb(35,31,32);"/>
                    <path d="M238.84,139.28L238.84,136.34L238.69,136.34C236.98,138.64 235.02,139.96 231.49,139.96C225.91,139.96 222.77,136.38 222.77,130.9L222.77,114.14L229.38,114.14L229.38,129.77C229.38,132.71 230.7,134.33 233.55,134.33C236.69,134.33 238.6,131.98 238.6,128.65L238.6,114.15L245.26,114.15L245.26,139.28L238.84,139.28Z" style="fill:rgb(35,31,32);"/>
                    <path d="M256.09,117.57L256.24,117.57C257.95,114.87 260.26,113.45 263.69,113.45C268.88,113.45 272.36,117.37 272.36,122.86L272.36,139.27L265.7,139.27L265.7,123.84C265.7,121.14 264.13,119.23 261.34,119.23C258.4,119.23 256.24,121.58 256.24,125.01L256.24,139.27L249.58,139.27L249.58,114.14L256.1,114.14L256.1,117.57L256.09,117.57Z" style="fill:rgb(35,31,32);"/>
                    <path d="M275.25,126.73C275.25,118.89 279.71,113.45 285.98,113.45C289.51,113.45 291.71,115.07 293.08,117.17L293.23,117.17L293.23,104.24L299.89,104.24L299.89,139.27L293.47,139.27L293.47,135.99L293.37,135.99C291.9,138.39 289.4,140.01 285.87,140.01C279.55,140.01 275.24,134.87 275.24,126.73L275.25,126.73ZM293.38,126.88C293.38,122.08 291.81,118.84 287.55,118.84C283.88,118.84 282.01,122.07 282.01,126.73C282.01,131.39 283.92,134.42 287.35,134.42C291.32,134.42 293.38,131.48 293.38,126.88Z" style="fill:rgb(35,31,32);"/>
                    <path d="M319.25,136.48L319.15,136.48C317.88,138.39 316.06,139.86 311.75,139.86C306.61,139.86 302.98,137.17 302.98,132.17C302.98,126.63 307.49,124.87 313.07,124.09C317.23,123.5 319.15,123.16 319.15,121.25C319.15,119.34 317.73,118.26 314.94,118.26C311.8,118.26 310.29,119.39 310.09,121.79L304.16,121.79C304.36,117.38 307.64,113.51 314.99,113.51C322.34,113.51 325.57,116.89 325.57,122.77L325.57,135.56C325.57,137.47 325.86,138.6 326.45,139.04L326.45,139.29L320.03,139.29C319.64,138.8 319.39,137.62 319.25,136.5L319.25,136.48ZM319.3,130.4L319.3,126.63C318.12,127.32 316.31,127.71 314.64,128.1C311.16,128.88 309.45,129.67 309.45,132.02C309.45,134.37 311.02,135.2 313.37,135.2C317.19,135.2 319.3,132.85 319.3,130.4Z" style="fill:rgb(35,31,32);"/>
                    <path d="M327.83,114.14L331.31,114.14L331.31,106.3L337.83,106.3L337.83,114.14L342.14,114.14L342.14,118.55L337.83,118.55L337.83,131.88C337.83,133.74 338.86,134.38 340.33,134.38C341.16,134.38 342.29,134.33 342.29,134.33L342.29,139.23C342.29,139.23 340.77,139.33 338.13,139.33C334.9,139.33 331.32,138.06 331.32,133.3L331.32,118.55L327.84,118.55L327.84,114.14L327.83,114.14Z" style="fill:rgb(35,31,32);"/>
                    <path d="M345.57,104.24L352.23,104.24L352.23,110.22L345.57,110.22L345.57,104.24ZM345.57,114.14L352.23,114.14L352.23,139.27L345.57,139.27L345.57,114.14Z" style="fill:rgb(35,31,32);"/>
                    <path d="M355.32,126.73C355.32,119.23 360.66,113.45 368.45,113.45C376.24,113.45 381.58,119.23 381.58,126.73C381.58,134.23 376.24,140.01 368.45,140.01C360.66,140.01 355.32,134.23 355.32,126.73ZM374.82,126.73C374.82,121.83 372.52,118.5 368.45,118.5C364.38,118.5 362.08,121.83 362.08,126.73C362.08,131.63 364.33,134.91 368.45,134.91C372.57,134.91 374.82,131.63 374.82,126.73Z" style="fill:rgb(35,31,32);"/>
                    <path d="M391.18,117.57L391.33,117.57C393.04,114.87 395.35,113.45 398.78,113.45C403.97,113.45 407.45,117.37 407.45,122.86L407.45,139.27L400.79,139.27L400.79,123.84C400.79,121.14 399.22,119.23 396.43,119.23C393.49,119.23 391.33,121.58 391.33,125.01L391.33,139.27L384.67,139.27L384.67,114.14L391.19,114.14L391.19,117.57L391.18,117.57Z" style="fill:rgb(35,31,32);"/>
                </g>
                <g transform="matrix(1.153,0,0,0.243,-2325.34,297.701)">
                    <path d="M68.5,3.5L75.5,3.5C75.5,43.263 43.263,75.5 3.5,75.5L3.5,68.5C39.397,68.5 68.5,39.397 68.5,3.5Z" style="fill:rgb(35,31,32);"/>
                </g>
                <g transform="matrix(1.153,0,0,0.243,-2325.34,297.701)">
                    <path d="M140.5,68.5L140.5,75.5C100.737,75.5 68.5,43.263 68.5,3.5L75.5,3.5C75.5,39.397 104.603,68.5 140.5,68.5Z" style="fill:rgb(35,31,32);"/>
                </g>
                <g transform="matrix(1.153,0,0,0.243,-2325.34,297.701)">
                    <path d="M75.5,140.5L68.5,140.5C68.5,100.737 100.737,68.5 140.5,68.5L140.5,75.5C104.603,75.5 75.5,104.603 75.5,140.5Z" style="fill:rgb(35,31,32);"/>
                </g>
                <g transform="matrix(1.153,0,0,0.243,-2325.34,297.701)">
                    <path d="M3.5,75.5L3.5,68.5C43.263,68.5 75.5,100.737 75.5,140.5L68.5,140.5C68.5,104.603 39.397,75.5 3.5,75.5Z" style="fill:rgb(35,31,32);"/>
                </g>
                <g transform="matrix(1.153,0,0,0.243,-2325.34,297.701)">
                    <path d="M72,0C111.738,0 144,32.262 144,72C144,111.738 111.738,144 72,144C32.262,144 0,111.738 0,72C0,32.262 32.262,0 72,0ZM72,7C36.126,7 7,36.126 7,72C7,107.874 36.126,137 72,137C107.874,137 137,107.874 137,72C137,36.126 107.874,7 72,7Z" style="fill:rgb(35,31,32);"/>
                </g>
            </g>
        </g>
    </g>
</svg>
