<?xml version="1.0" encoding="UTF-8" standalone="no"?>
<!DOCTYPE svg PUBLIC "-//W3C//DTD SVG 1.1//EN" "http://www.w3.org/Graphics/SVG/1.1/DTD/svg11.dtd">
<svg width="100%" height="100%" viewBox="0 0 1200 630" version="1.1" xmlns="http://www.w3.org/2000/svg" xmlns:xlink="http://www.w3.org/1999/xlink" xml:space="preserve" xmlns:serif="http://www.serif.com/" style="fill-rule:evenodd;clip-rule:evenodd;stroke-linecap:round;stroke-linejoin:round;stroke-miterlimit:1.5;">
    <g transform="matrix(1,0,0,1,-11534,-25564)">
        <g id="open-graph" transform="matrix(0.986031,0,0,1.08434,161.116,-1933.71)">
            <rect x="11534" y="25359" width="1217" height="581" style="fill:rgb(229,149,0);"/>
            <clipPath id="_clip1">
                <rect x="11534" y="25359" width="1217" height="581"/>
            </clipPath>
            <g clip-path="url(#_clip1)">
                <g transform="matrix(0.310885,-0.00940416,0.0103417,0.282701,9435.7,19605.1)">
                    <g transform="matrix(0.953813,0,0,0.939351,9491.78,18650.1)">
                        <path d="M840.5,3129L360.738,3109.59" style="fill:none;stroke:rgb(250,248,248);stroke-width:3.34px;"/>
                    </g>
                    <g transform="matrix(0.953813,0,0,0.939351,9491.78,18650.1)">
                        <path d="M-164.714,2484.26L80.727,1945.65L461.45,1802.8L840.5,1711" style="fill:none;stroke:rgb(250,248,248);stroke-width:3.34px;"/>
                    </g>
                    <g transform="matrix(0.951429,0,0,0.951429,9342.03,9873.78)">
                        <path d="M1000,12313.6L412.687,12091.9L-7.733,11677.1" style="fill:none;stroke:rgb(250,248,248);stroke-width:3.32px;"/>
                    </g>
                    <g transform="matrix(0.951429,0,0,0.951429,9342.03,9873.78)">
                        <path d="M-7.733,11677.1L433.708,11750.7L1000,11761.2" style="fill:none;stroke:rgb(250,248,248);stroke-width:3.32px;"/>
                    </g>
                    <g transform="matrix(0.951429,0,0,0.951429,9342.03,9873.78)">
                        <path d="M-7.733,11677.1L480,11383.6L1000,11193.6" style="fill:none;stroke:rgb(250,248,248);stroke-width:3.32px;"/>
                    </g>
                    <g transform="matrix(0.951429,0,0,0.951429,9342.03,9873.78)">
                        <path d="M238.324,11145.3L480,11383.6L1000,11761.2" style="fill:none;stroke:rgb(250,248,248);stroke-width:3.32px;"/>
                    </g>
                    <g transform="matrix(0.951429,0,0,0.951429,9342.03,9873.78)">
                        <path d="M412.687,12091.9L1000,11761.2" style="fill:none;stroke:rgb(250,248,248);stroke-width:3.32px;"/>
                    </g>
                    <g transform="matrix(0.951429,0,0,0.951429,9342.03,9873.78)">
                        <path d="M519.102,12294.5L412.687,12091.9L430.467,11733.6L480,11383.6L620,11004.3" style="fill:none;stroke:rgb(250,248,248);stroke-width:3.32px;"/>
                    </g>
                </g>
                <g transform="matrix(-0.310885,0.00940416,-0.0103417,-0.282701,14887.1,31732.3)">
                    <g transform="matrix(0.953813,0,0,0.939351,9491.78,18650.1)">
                        <path d="M840.5,3129L360.738,3109.59" style="fill:none;stroke:rgb(250,248,248);stroke-width:3.34px;"/>
                    </g>
                    <g transform="matrix(0.953813,0,0,0.939351,9491.78,18650.1)">
                        <path d="M-164.714,2484.26L80.727,1945.65L461.45,1802.8L840.5,1711" style="fill:none;stroke:rgb(250,248,248);stroke-width:3.34px;"/>
                    </g>
                    <g transform="matrix(0.951429,0,0,0.951429,9342.03,9873.78)">
                        <path d="M1000,12313.6L412.687,12091.9L-7.733,11677.1" style="fill:none;stroke:rgb(250,248,248);stroke-width:3.32px;"/>
                    </g>
                    <g transform="matrix(0.951429,0,0,0.951429,9342.03,9873.78)">
                        <path d="M-7.733,11677.1L433.708,11750.7L1000,11761.2" style="fill:none;stroke:rgb(250,248,248);stroke-width:3.32px;"/>
                    </g>
                    <g transform="matrix(0.951429,0,0,0.951429,9342.03,9873.78)">
                        <path d="M-7.733,11677.1L480,11383.6L1000,11193.6" style="fill:none;stroke:rgb(250,248,248);stroke-width:3.32px;"/>
                    </g>
                    <g transform="matrix(0.951429,0,0,0.951429,9342.03,9873.78)">
                        <path d="M238.324,11145.3L480,11383.6L1000,11761.2" style="fill:none;stroke:rgb(250,248,248);stroke-width:3.32px;"/>
                    </g>
                    <g transform="matrix(0.951429,0,0,0.951429,9342.03,9873.78)">
                        <path d="M412.687,12091.9L1000,11761.2" style="fill:none;stroke:rgb(250,248,248);stroke-width:3.32px;"/>
                    </g>
                    <g transform="matrix(0.951429,0,0,0.951429,9342.03,9873.78)">
                        <path d="M519.102,12294.5L412.687,12091.9L430.467,11733.6L480,11383.6L620,11004.3" style="fill:none;stroke:rgb(250,248,248);stroke-width:3.32px;"/>
                    </g>
                </g>
                <g transform="matrix(0.0616418,0.277247,-0.304889,0.0560533,18538.9,21846.5)">
                    <g transform="matrix(0.953813,0,0,0.939351,9491.78,18650.1)">
                        <path d="M-164.714,2484.26L146.93,1997.96L461.45,1802.8L4.615,1524.3" style="fill:none;stroke:rgb(250,248,248);stroke-width:3.34px;"/>
                    </g>
                    <g transform="matrix(-0.953813,0,0,0.939351,11095.1,18650.1)">
                        <path d="M840.5,3129L351.725,3118.87L-77.2,3068.23L-164.714,2484.26" style="fill:none;stroke:rgb(250,248,248);stroke-width:3.34px;"/>
                    </g>
                    <g transform="matrix(0.953813,0,0,0.939351,9491.78,18650.1)">
                        <path d="M840.5,1994.56L840.5,3129" style="fill:none;stroke:rgb(250,248,248);stroke-width:3.34px;"/>
                    </g>
                    <g transform="matrix(0.951429,0,0,0.951429,9342.03,9873.78)">
                        <path d="M1000,12313.6L412.687,12091.9L-7.733,11677.1" style="fill:none;stroke:rgb(250,248,248);stroke-width:3.32px;"/>
                    </g>
                    <g transform="matrix(-0.951429,0,0,0.951429,11244.9,9873.78)">
                        <path d="M1000,12313.6L412.687,12091.9L-7.733,11677.1" style="fill:none;stroke:rgb(250,248,248);stroke-width:3.32px;"/>
                    </g>
                    <g transform="matrix(0.951429,0,0,0.951429,9342.03,9873.78)">
                        <path d="M-7.733,11677.1L433.708,11750.7L1000,11761.2" style="fill:none;stroke:rgb(250,248,248);stroke-width:3.32px;"/>
                    </g>
                    <g transform="matrix(-0.951429,0,0,0.951429,11244.9,9873.78)">
                        <path d="M-7.733,11677.1L433.708,11750.7L1000,11761.2" style="fill:none;stroke:rgb(250,248,248);stroke-width:3.32px;"/>
                    </g>
                    <g transform="matrix(0.951429,0,0,0.951429,9342.03,9873.78)">
                        <path d="M-7.733,11677.1L480,11383.6L1000,11193.6" style="fill:none;stroke:rgb(250,248,248);stroke-width:3.32px;"/>
                    </g>
                    <g transform="matrix(0.951429,0,0,0.951429,9342.03,9873.78)">
                        <path d="M91.763,11206.4L304.79,11197.6L480,11383.6L1000,11761.2" style="fill:none;stroke:rgb(250,248,248);stroke-width:3.32px;"/>
                    </g>
                    <g transform="matrix(-0.951429,0,0,0.951429,11244.9,9873.78)">
                        <path d="M230.401,11194L480,11383.6L1000,11761.2" style="fill:none;stroke:rgb(250,248,248);stroke-width:3.32px;"/>
                    </g>
                    <g transform="matrix(0.951429,0,0,0.951429,9342.03,9873.78)">
                        <path d="M423.144,12090.8L412.687,12091.9L1000,11761.2" style="fill:none;stroke:rgb(250,248,248);stroke-width:3.32px;"/>
                    </g>
                    <g transform="matrix(-0.951429,0,0,0.951429,11244.9,9873.78)">
                        <path d="M80,12253.6L412.687,12091.9L1000,11761.2" style="fill:none;stroke:rgb(250,248,248);stroke-width:3.32px;"/>
                    </g>
                    <g transform="matrix(0.951429,0,0,0.951429,9342.03,9873.78)">
                        <path d="M412.687,12091.9L430.467,11733.6L480,11383.6L620,11004.3" style="fill:none;stroke:rgb(250,248,248);stroke-width:3.32px;"/>
                    </g>
                    <g transform="matrix(-0.951429,0,0,0.951429,11244.9,9873.78)">
                        <path d="M520,12304.5L412.687,12091.9L430.467,11733.6L480,11383.6L633.201,11020.6" style="fill:none;stroke:rgb(250,248,248);stroke-width:3.32px;"/>
                    </g>
                </g>
                <g transform="matrix(-0.0616418,-0.277247,0.304889,-0.0560533,5783.87,29490.9)">
                    <g transform="matrix(0.953813,0,0,0.939351,9491.78,18650.1)">
                        <path d="M-164.714,2484.26L146.93,1997.96L461.45,1802.8L4.615,1524.3" style="fill:none;stroke:rgb(250,248,248);stroke-width:3.34px;"/>
                    </g>
                    <g transform="matrix(-0.953813,0,0,0.939351,11095.1,18650.1)">
                        <path d="M840.5,3129L351.725,3118.87L-77.2,3068.23L-164.714,2484.26" style="fill:none;stroke:rgb(250,248,248);stroke-width:3.34px;"/>
                    </g>
                    <g transform="matrix(0.953813,0,0,0.939351,9491.78,18650.1)">
                        <path d="M840.5,1994.56L840.5,3129" style="fill:none;stroke:rgb(250,248,248);stroke-width:3.34px;"/>
                    </g>
                    <g transform="matrix(0.951429,0,0,0.951429,9342.03,9873.78)">
                        <path d="M1000,12313.6L412.687,12091.9L-7.733,11677.1" style="fill:none;stroke:rgb(250,248,248);stroke-width:3.32px;"/>
                    </g>
                    <g transform="matrix(-0.951429,0,0,0.951429,11244.9,9873.78)">
                        <path d="M1000,12313.6L412.687,12091.9L-7.733,11677.1" style="fill:none;stroke:rgb(250,248,248);stroke-width:3.32px;"/>
                    </g>
                    <g transform="matrix(0.951429,0,0,0.951429,9342.03,9873.78)">
                        <path d="M-7.733,11677.1L433.708,11750.7L1000,11761.2" style="fill:none;stroke:rgb(250,248,248);stroke-width:3.32px;"/>
                    </g>
                    <g transform="matrix(-0.951429,0,0,0.951429,11244.9,9873.78)">
                        <path d="M-7.733,11677.1L433.708,11750.7L1000,11761.2" style="fill:none;stroke:rgb(250,248,248);stroke-width:3.32px;"/>
                    </g>
                    <g transform="matrix(0.951429,0,0,0.951429,9342.03,9873.78)">
                        <path d="M-7.733,11677.1L480,11383.6L1000,11193.6" style="fill:none;stroke:rgb(250,248,248);stroke-width:3.32px;"/>
                    </g>
                    <g transform="matrix(-0.951429,0,0,0.951429,11244.9,9873.78)">
                        <path d="M-7.733,11677.1L480,11383.6L1000,11193.6" style="fill:none;stroke:rgb(250,248,248);stroke-width:3.32px;"/>
                    </g>
                    <g transform="matrix(0.951429,0,0,0.951429,9342.03,9873.78)">
                        <path d="M91.763,11206.4L304.79,11197.6L480,11383.6L1000,11761.2" style="fill:none;stroke:rgb(250,248,248);stroke-width:3.32px;"/>
                    </g>
                    <g transform="matrix(-0.951429,0,0,0.951429,11244.9,9873.78)">
                        <path d="M230.401,11194L480,11383.6L1000,11761.2" style="fill:none;stroke:rgb(250,248,248);stroke-width:3.32px;"/>
                    </g>
                    <g transform="matrix(0.951429,0,0,0.951429,9342.03,9873.78)">
                        <path d="M423.144,12090.8L412.687,12091.9L1000,11761.2" style="fill:none;stroke:rgb(250,248,248);stroke-width:3.32px;"/>
                    </g>
                    <g transform="matrix(-0.951429,0,0,0.951429,11244.9,9873.78)">
                        <path d="M80,12253.6L412.687,12091.9L1000,11761.2" style="fill:none;stroke:rgb(250,248,248);stroke-width:3.32px;"/>
                    </g>
                    <g transform="matrix(0.951429,0,0,0.951429,9342.03,9873.78)">
                        <path d="M412.687,12091.9L430.467,11733.6L480,11383.6L620,11004.3" style="fill:none;stroke:rgb(250,248,248);stroke-width:3.32px;"/>
                    </g>
                    <g transform="matrix(-0.951429,0,0,0.951429,11244.9,9873.78)">
                        <path d="M520,12304.5L412.687,12091.9L430.467,11733.6L480,11383.6L633.201,11020.6" style="fill:none;stroke:rgb(250,248,248);stroke-width:3.32px;"/>
                    </g>
                </g>
                <g transform="matrix(1.03746,-0.0313827,0.0345115,0.943402,13165.6,23732.1)">
                    <circle cx="-523" cy="1818" r="18" style="fill:rgb(229,149,0);"/>
                    <path d="M-523,1799.05C-512.543,1799.05 -504.052,1807.54 -504.052,1818C-504.052,1828.46 -512.543,1836.95 -523,1836.95C-533.457,1836.95 -541.948,1828.46 -541.948,1818C-541.948,1807.54 -533.457,1799.05 -523,1799.05ZM-523,1800C-532.934,1800 -541,1808.07 -541,1818C-541,1827.93 -532.934,1836 -523,1836C-513.066,1836 -505,1827.93 -505,1818C-505,1808.07 -513.066,1800 -523,1800Z" style="fill:rgb(250,248,248);"/>
                </g>
                <g transform="matrix(-1.03746,0.0313827,-0.0345115,-0.943402,11157.2,27605.3)">
                    <circle cx="-523" cy="1818" r="18" style="fill:rgb(229,149,0);"/>
                    <path d="M-523,1799.05C-512.543,1799.05 -504.052,1807.54 -504.052,1818C-504.052,1828.46 -512.543,1836.95 -523,1836.95C-533.457,1836.95 -541.948,1828.46 -541.948,1818C-541.948,1807.54 -533.457,1799.05 -523,1799.05ZM-523,1800C-532.934,1800 -541,1808.07 -541,1818C-541,1827.93 -532.934,1836 -523,1836C-513.066,1836 -505,1827.93 -505,1818C-505,1808.07 -513.066,1800 -523,1800Z" style="fill:rgb(250,248,248);"/>
                </g>
                <g transform="matrix(1.03746,-0.0313827,0.0345115,0.943402,13035.5,23717.9)">
                    <circle cx="-523" cy="1818" r="18" style="fill:rgb(229,149,0);"/>
                    <path d="M-523,1799.05C-512.543,1799.05 -504.052,1807.54 -504.052,1818C-504.052,1828.46 -512.543,1836.95 -523,1836.95C-533.457,1836.95 -541.948,1828.46 -541.948,1818C-541.948,1807.54 -533.457,1799.05 -523,1799.05ZM-523,1800C-532.934,1800 -541,1808.07 -541,1818C-541,1827.93 -532.934,1836 -523,1836C-513.066,1836 -505,1827.93 -505,1818C-505,1808.07 -513.066,1800 -523,1800Z" style="fill:rgb(250,248,248);"/>
                </g>
                <g transform="matrix(1.03746,-0.0313827,0.0345115,0.943402,13162,23824.1)">
                    <circle cx="-523" cy="1818" r="18" style="fill:rgb(229,149,0);"/>
                    <path d="M-523,1799.05C-512.543,1799.05 -504.052,1807.54 -504.052,1818C-504.052,1828.46 -512.543,1836.95 -523,1836.95C-533.457,1836.95 -541.948,1828.46 -541.948,1818C-541.948,1807.54 -533.457,1799.05 -523,1799.05ZM-523,1800C-532.934,1800 -541,1808.07 -541,1818C-541,1827.93 -532.934,1836 -523,1836C-513.066,1836 -505,1827.93 -505,1818C-505,1808.07 -513.066,1800 -523,1800Z" style="fill:rgb(250,248,248);"/>
                </g>
                <g transform="matrix(-1.03746,0.0313827,-0.0345115,-0.943402,11160.8,27513.3)">
                    <circle cx="-523" cy="1818" r="18" style="fill:rgb(229,149,0);"/>
                    <path d="M-523,1799.05C-512.543,1799.05 -504.052,1807.54 -504.052,1818C-504.052,1828.46 -512.543,1836.95 -523,1836.95C-533.457,1836.95 -541.948,1828.46 -541.948,1818C-541.948,1807.54 -533.457,1799.05 -523,1799.05ZM-523,1800C-532.934,1800 -541,1808.07 -541,1818C-541,1827.93 -532.934,1836 -523,1836C-513.066,1836 -505,1827.93 -505,1818C-505,1808.07 -513.066,1800 -523,1800Z" style="fill:rgb(250,248,248);"/>
                </g>
                <g transform="matrix(0.205705,0.925204,-1.01745,0.187056,14680.1,25874.4)">
                    <circle cx="-523" cy="1818" r="18" style="fill:rgb(229,149,0);"/>
                    <path d="M-523,1799.05C-512.543,1799.05 -504.052,1807.54 -504.052,1818C-504.052,1828.46 -512.543,1836.95 -523,1836.95C-533.457,1836.95 -541.948,1828.46 -541.948,1818C-541.948,1807.54 -533.457,1799.05 -523,1799.05ZM-523,1800C-532.934,1800 -541,1808.07 -541,1818C-541,1827.93 -532.934,1836 -523,1836C-513.066,1836 -505,1827.93 -505,1818C-505,1808.07 -513.066,1800 -523,1800Z" style="fill:rgb(250,248,248);"/>
                </g>
                <g transform="matrix(-0.205705,-0.925204,1.01745,-0.187056,9642.63,25463)">
                    <circle cx="-523" cy="1818" r="18" style="fill:rgb(229,149,0);"/>
                    <path d="M-523,1799.05C-512.543,1799.05 -504.052,1807.54 -504.052,1818C-504.052,1828.46 -512.543,1836.95 -523,1836.95C-533.457,1836.95 -541.948,1828.46 -541.948,1818C-541.948,1807.54 -533.457,1799.05 -523,1799.05ZM-523,1800C-532.934,1800 -541,1808.07 -541,1818C-541,1827.93 -532.934,1836 -523,1836C-513.066,1836 -505,1827.93 -505,1818C-505,1808.07 -513.066,1800 -523,1800Z" style="fill:rgb(250,248,248);"/>
                </g>
                <g transform="matrix(0.205705,0.925204,-1.01745,0.187056,14710.3,26024.5)">
                    <circle cx="-523" cy="1818" r="18" style="fill:rgb(229,149,0);"/>
                    <path d="M-523,1799.05C-512.543,1799.05 -504.052,1807.54 -504.052,1818C-504.052,1828.46 -512.543,1836.95 -523,1836.95C-533.457,1836.95 -541.948,1828.46 -541.948,1818C-541.948,1807.54 -533.457,1799.05 -523,1799.05ZM-523,1800C-532.934,1800 -541,1808.07 -541,1818C-541,1827.93 -532.934,1836 -523,1836C-513.066,1836 -505,1827.93 -505,1818C-505,1808.07 -513.066,1800 -523,1800Z" style="fill:rgb(250,248,248);"/>
                </g>
                <g transform="matrix(-0.205705,-0.925204,1.01745,-0.187056,9612.42,25312.9)">
                    <circle cx="-523" cy="1818" r="18" style="fill:rgb(229,149,0);"/>
                    <path d="M-523,1799.05C-512.543,1799.05 -504.052,1807.54 -504.052,1818C-504.052,1828.46 -512.543,1836.95 -523,1836.95C-533.457,1836.95 -541.948,1828.46 -541.948,1818C-541.948,1807.54 -533.457,1799.05 -523,1799.05ZM-523,1800C-532.934,1800 -541,1808.07 -541,1818C-541,1827.93 -532.934,1836 -523,1836C-513.066,1836 -505,1827.93 -505,1818C-505,1808.07 -513.066,1800 -523,1800Z" style="fill:rgb(250,248,248);"/>
                </g>
                <g transform="matrix(0.205705,0.925204,-1.01745,0.187056,14674.1,25755.4)">
                    <circle cx="-523" cy="1818" r="18" style="fill:rgb(229,149,0);"/>
                    <path d="M-523,1799.05C-512.543,1799.05 -504.052,1807.54 -504.052,1818C-504.052,1828.46 -512.543,1836.95 -523,1836.95C-533.457,1836.95 -541.948,1828.46 -541.948,1818C-541.948,1807.54 -533.457,1799.05 -523,1799.05ZM-523,1800C-532.934,1800 -541,1808.07 -541,1818C-541,1827.93 -532.934,1836 -523,1836C-513.066,1836 -505,1827.93 -505,1818C-505,1808.07 -513.066,1800 -523,1800Z" style="fill:rgb(250,248,248);"/>
                </g>
                <g transform="matrix(-0.205705,-0.925204,1.01745,-0.187056,9648.66,25582)">
                    <circle cx="-523" cy="1818" r="18" style="fill:rgb(229,149,0);"/>
                    <path d="M-523,1799.05C-512.543,1799.05 -504.052,1807.54 -504.052,1818C-504.052,1828.46 -512.543,1836.95 -523,1836.95C-533.457,1836.95 -541.948,1828.46 -541.948,1818C-541.948,1807.54 -533.457,1799.05 -523,1799.05ZM-523,1800C-532.934,1800 -541,1808.07 -541,1818C-541,1827.93 -532.934,1836 -523,1836C-513.066,1836 -505,1827.93 -505,1818C-505,1808.07 -513.066,1800 -523,1800Z" style="fill:rgb(250,248,248);"/>
                </g>
                <g transform="matrix(0.205705,0.925204,-1.01745,0.187056,14550,26053.7)">
                    <circle cx="-523" cy="1818" r="18" style="fill:rgb(229,149,0);"/>
                    <path d="M-523,1799.05C-512.543,1799.05 -504.052,1807.54 -504.052,1818C-504.052,1828.46 -512.543,1836.95 -523,1836.95C-533.457,1836.95 -541.948,1828.46 -541.948,1818C-541.948,1807.54 -533.457,1799.05 -523,1799.05ZM-523,1800C-532.934,1800 -541,1808.07 -541,1818C-541,1827.93 -532.934,1836 -523,1836C-513.066,1836 -505,1827.93 -505,1818C-505,1808.07 -513.066,1800 -523,1800Z" style="fill:rgb(250,248,248);"/>
                </g>
                <g transform="matrix(0.205705,0.925204,-1.01745,0.187056,14579.8,25886.4)">
                    <circle cx="-523" cy="1818" r="18" style="fill:rgb(229,149,0);"/>
                    <path d="M-523,1799.05C-512.543,1799.05 -504.052,1807.54 -504.052,1818C-504.052,1828.46 -512.543,1836.95 -523,1836.95C-533.457,1836.95 -541.948,1828.46 -541.948,1818C-541.948,1807.54 -533.457,1799.05 -523,1799.05ZM-523,1800C-532.934,1800 -541,1808.07 -541,1818C-541,1827.93 -532.934,1836 -523,1836C-513.066,1836 -505,1827.93 -505,1818C-505,1808.07 -513.066,1800 -523,1800Z" style="fill:rgb(250,248,248);"/>
                </g>
                <g transform="matrix(1.03746,-0.0313827,0.0345115,0.943402,13175.7,23635.6)">
                    <circle cx="-523" cy="1818" r="18" style="fill:rgb(229,149,0);"/>
                    <path d="M-523,1799.05C-512.543,1799.05 -504.052,1807.54 -504.052,1818C-504.052,1828.46 -512.543,1836.95 -523,1836.95C-533.457,1836.95 -541.948,1828.46 -541.948,1818C-541.948,1807.54 -533.457,1799.05 -523,1799.05ZM-523,1800C-532.934,1800 -541,1808.07 -541,1818C-541,1827.93 -532.934,1836 -523,1836C-513.066,1836 -505,1827.93 -505,1818C-505,1808.07 -513.066,1800 -523,1800Z" style="fill:rgb(250,248,248);"/>
                </g>
                <g transform="matrix(-1.03746,0.0313827,-0.0345115,-0.943402,11287.2,27619.6)">
                    <circle cx="-523" cy="1818" r="18" style="fill:rgb(229,149,0);"/>
                    <path d="M-523,1799.05C-512.543,1799.05 -504.052,1807.54 -504.052,1818C-504.052,1828.46 -512.543,1836.95 -523,1836.95C-533.457,1836.95 -541.948,1828.46 -541.948,1818C-541.948,1807.54 -533.457,1799.05 -523,1799.05ZM-523,1800C-532.934,1800 -541,1808.07 -541,1818C-541,1827.93 -532.934,1836 -523,1836C-513.066,1836 -505,1827.93 -505,1818C-505,1808.07 -513.066,1800 -523,1800Z" style="fill:rgb(250,248,248);"/>
                </g>
                <g transform="matrix(-0.205705,-0.925204,1.01745,-0.187056,9772.76,25283.8)">
                    <circle cx="-523" cy="1818" r="18" style="fill:rgb(229,149,0);"/>
                    <path d="M-523,1799.05C-512.543,1799.05 -504.052,1807.54 -504.052,1818C-504.052,1828.46 -512.543,1836.95 -523,1836.95C-533.457,1836.95 -541.948,1828.46 -541.948,1818C-541.948,1807.54 -533.457,1799.05 -523,1799.05ZM-523,1800C-532.934,1800 -541,1808.07 -541,1818C-541,1827.93 -532.934,1836 -523,1836C-513.066,1836 -505,1827.93 -505,1818C-505,1808.07 -513.066,1800 -523,1800Z" style="fill:rgb(250,248,248);"/>
                </g>
                <g transform="matrix(-0.205705,-0.925204,1.01745,-0.187056,9742.96,25451.1)">
                    <circle cx="-523" cy="1818" r="18" style="fill:rgb(229,149,0);"/>
                    <path d="M-523,1799.05C-512.543,1799.05 -504.052,1807.54 -504.052,1818C-504.052,1828.46 -512.543,1836.95 -523,1836.95C-533.457,1836.95 -541.948,1828.46 -541.948,1818C-541.948,1807.54 -533.457,1799.05 -523,1799.05ZM-523,1800C-532.934,1800 -541,1808.07 -541,1818C-541,1827.93 -532.934,1836 -523,1836C-513.066,1836 -505,1827.93 -505,1818C-505,1808.07 -513.066,1800 -523,1800Z" style="fill:rgb(250,248,248);"/>
                </g>
                <g transform="matrix(0.0950007,0,0,0.0699337,9129.97,24194.2)">
                    <g transform="matrix(1.20687,0,0,1.46822,28714.8,15696.9)">
                        <path d="M776.733,3127.68L351.725,3118.87" style="fill:none;stroke:rgb(229,218,218);stroke-width:3.49px;stroke-linecap:butt;"/>
                    </g>
                    <g transform="matrix(-1.20687,0,0,1.46822,30743.6,15696.9)">
                        <path d="M778.314,3127.71L425.121,3120.39" style="fill:none;stroke:rgb(229,218,218);stroke-width:3.49px;stroke-linecap:butt;"/>
                    </g>
                    <g transform="matrix(-1.20687,0,0,1.46822,30743.6,15696.9)">
                        <path d="M299.568,3112.71L-8.7,3076.32" style="fill:none;stroke:rgb(229,218,218);stroke-width:3.49px;stroke-linecap:butt;"/>
                    </g>
                    <g transform="matrix(-1.20687,0,0,1.46822,30743.6,15696.9)">
                        <path d="M-87.309,3000.78L-155.207,2547.7" style="fill:none;stroke:rgb(229,218,218);stroke-width:3.49px;stroke-linecap:butt;"/>
                    </g>
                    <g transform="matrix(-1.20687,0,0,1.46822,30743.6,15696.9)">
                        <path d="M-129.394,2425.9L82.4,2075.63" style="fill:none;stroke:rgb(229,218,218);stroke-width:3.49px;"/>
                    </g>
                    <g transform="matrix(1.20687,0,0,1.46822,28714.8,15696.9)">
                        <path d="M840.5,1994.22L840.5,2508.86" style="fill:none;stroke:rgb(229,218,218);stroke-width:3.49px;stroke-linecap:butt;"/>
                    </g>
                    <g transform="matrix(1.20687,0,0,1.46822,28714.8,15696.9)">
                        <path d="M840.5,2636.75L840.5,3063.4" style="fill:none;stroke:rgb(229,218,218);stroke-width:3.49px;stroke-linecap:butt;"/>
                    </g>
                    <g transform="matrix(1.20385,0,0,1.4871,28525.4,1979.39)">
                        <path d="M939.723,12290.9L412.687,12091.9" style="fill:none;stroke:rgb(229,218,218);stroke-width:3.47px;stroke-linecap:butt;"/>
                    </g>
                    <g transform="matrix(-1.20385,0,0,1.4871,30933.1,1979.39)">
                        <path d="M941.122,12291.4L473.435,12114.8" style="fill:none;stroke:rgb(229,218,218);stroke-width:3.47px;stroke-linecap:butt;"/>
                    </g>
                    <g transform="matrix(-1.20385,0,0,1.4871,30933.1,1979.39)">
                        <path d="M368.139,12047.9L39.365,11723.5" style="fill:none;stroke:rgb(229,218,218);stroke-width:3.47px;stroke-linecap:butt;"/>
                    </g>
                    <g transform="matrix(1.20385,0,0,1.4871,28525.4,1979.39)">
                        <path d="M433.708,11750.7L936.866,11760" style="fill:none;stroke:rgb(229,218,218);stroke-width:3.47px;stroke-linecap:butt;"/>
                    </g>
                    <g transform="matrix(-1.20385,0,0,1.4871,30933.1,1979.39)">
                        <path d="M59.107,11688.2L377.711,11741.3" style="fill:none;stroke:rgb(229,218,218);stroke-width:3.47px;stroke-linecap:butt;"/>
                    </g>
                    <g transform="matrix(-1.20385,0,0,1.4871,30933.1,1979.39)">
                        <path d="M503.332,11751.9L936.866,11760" style="fill:none;stroke:rgb(229,218,218);stroke-width:3.47px;stroke-linecap:butt;"/>
                    </g>
                    <g transform="matrix(-1.20385,0,0,1.4871,30933.1,1979.39)">
                        <path d="M50.126,11642.1L480,11383.6" style="fill:none;stroke:rgb(229,218,218);stroke-width:3.47px;stroke-linecap:butt;"/>
                    </g>
                    <g transform="matrix(1.20385,0,0,1.4871,28525.4,1979.39)">
                        <path d="M480,11383.6L950.543,11725.3" style="fill:none;stroke:rgb(229,218,218);stroke-width:3.47px;stroke-linecap:butt;"/>
                    </g>
                    <g transform="matrix(-1.20385,0,0,1.4871,30933.1,1979.39)">
                        <path d="M480,11383.6L950.662,11725.3" style="fill:none;stroke:rgb(229,218,218);stroke-width:3.47px;stroke-linecap:butt;"/>
                    </g>
                    <g transform="matrix(1.20385,0,0,1.4871,28525.4,1979.39)">
                        <path d="M412.687,12091.9L943.641,11792.9" style="fill:none;stroke:rgb(229,218,218);stroke-width:3.47px;stroke-linecap:butt;"/>
                    </g>
                    <g transform="matrix(-1.20385,0,0,1.4871,30933.1,1979.39)">
                        <path d="M144.689,12222.2L359.372,12117.8" style="fill:none;stroke:rgb(229,218,218);stroke-width:3.47px;stroke-linecap:butt;"/>
                    </g>
                    <g transform="matrix(-1.20385,0,0,1.4871,30933.1,1979.39)">
                        <path d="M470.935,12059.1L943.567,11792.9" style="fill:none;stroke:rgb(229,218,218);stroke-width:3.47px;stroke-linecap:butt;"/>
                    </g>
                    <g transform="matrix(-1.20385,0,0,1.4871,30933.1,1979.39)">
                        <path d="M489.034,12243.2L440.576,12147.1" style="fill:none;stroke:rgb(229,218,218);stroke-width:3.47px;stroke-linecap:butt;"/>
                    </g>
                    <g transform="matrix(-1.20385,0,0,1.4871,30933.1,1979.39)">
                        <path d="M416.779,12026.1L430.06,11812.6" style="fill:none;stroke:rgb(229,218,218);stroke-width:3.47px;"/>
                    </g>
                    <g transform="matrix(-1.20385,0,0,1.4871,30933.1,1979.39)">
                        <path d="M441.823,11687.2L480,11383.6" style="fill:none;stroke:rgb(229,218,218);stroke-width:3.47px;stroke-linecap:butt;"/>
                    </g>
                    <g transform="matrix(4.22247,0,0,5.21595,32611.5,9970.68)">
                        <path d="M-523,1799.01C-512.519,1799.01 -504.01,1807.52 -504.01,1818C-504.01,1828.48 -512.519,1836.99 -523,1836.99C-533.481,1836.99 -541.99,1828.48 -541.99,1818C-541.99,1807.52 -533.481,1799.01 -523,1799.01ZM-523,1800C-532.934,1800 -541,1808.07 -541,1818C-541,1827.93 -532.934,1836 -523,1836C-513.066,1836 -505,1827.93 -505,1818C-505,1808.07 -513.066,1800 -523,1800Z" style="fill:rgb(229,218,218);"/>
                    </g>
                    <g transform="matrix(4.22247,0,0,5.21595,31937.6,9991.77)">
                        <path d="M-523,1799.01C-512.519,1799.01 -504.01,1807.52 -504.01,1818C-504.01,1828.48 -512.519,1836.99 -523,1836.99C-533.481,1836.99 -541.99,1828.48 -541.99,1818C-541.99,1807.52 -533.481,1799.01 -523,1799.01ZM-523,1800C-532.934,1800 -541,1808.07 -541,1818C-541,1827.93 -532.934,1836 -523,1836C-513.066,1836 -505,1827.93 -505,1818C-505,1808.07 -513.066,1800 -523,1800Z" style="fill:rgb(229,218,218);"/>
                    </g>
                    <g transform="matrix(4.22247,0,0,5.21595,31936.6,10806)">
                        <path d="M-523,1799.01C-512.519,1799.01 -504.01,1807.52 -504.01,1818C-504.01,1828.48 -512.519,1836.99 -523,1836.99C-533.481,1836.99 -541.99,1828.48 -541.99,1818C-541.99,1807.52 -533.481,1799.01 -523,1799.01ZM-523,1800C-532.934,1800 -541,1808.07 -541,1818C-541,1827.93 -532.934,1836 -523,1836C-513.066,1836 -505,1827.93 -505,1818C-505,1808.07 -513.066,1800 -523,1800Z" style="fill:rgb(229,218,218);"/>
                    </g>
                    <g transform="matrix(4.22247,0,0,5.21595,32514.4,10785.1)">
                        <path d="M-523,1799.01C-512.519,1799.01 -504.01,1807.52 -504.01,1818C-504.01,1828.48 -512.519,1836.99 -523,1836.99C-533.481,1836.99 -541.99,1828.48 -541.99,1818C-541.99,1807.52 -533.481,1799.01 -523,1799.01ZM-523,1800C-532.934,1800 -541,1808.07 -541,1818C-541,1827.93 -532.934,1836 -523,1836C-513.066,1836 -505,1827.93 -505,1818C-505,1808.07 -513.066,1800 -523,1800Z" style="fill:rgb(229,218,218);"/>
                    </g>
                    <g transform="matrix(4.22247,0,0,5.21595,32640.9,10474.7)">
                        <path d="M-523,1799.01C-512.519,1799.01 -504.01,1807.52 -504.01,1818C-504.01,1828.48 -512.519,1836.99 -523,1836.99C-533.481,1836.99 -541.99,1828.48 -541.99,1818C-541.99,1807.52 -533.481,1799.01 -523,1799.01ZM-523,1800C-532.934,1800 -541,1808.07 -541,1818C-541,1827.93 -532.934,1836 -523,1836C-513.066,1836 -505,1827.93 -505,1818C-505,1808.07 -513.066,1800 -523,1800Z" style="fill:rgb(229,218,218);"/>
                    </g>
                    <g transform="matrix(4.22247,0,0,5.21595,33036.6,10710.5)">
                        <path d="M-523,1799.01C-512.519,1799.01 -504.01,1807.52 -504.01,1818C-504.01,1828.48 -512.519,1836.99 -523,1836.99C-533.481,1836.99 -541.99,1828.48 -541.99,1818C-541.99,1807.52 -533.481,1799.01 -523,1799.01ZM-523,1800C-532.934,1800 -541,1808.07 -541,1818C-541,1827.93 -532.934,1836 -523,1836C-513.066,1836 -505,1827.93 -505,1818C-505,1808.07 -513.066,1800 -523,1800Z" style="fill:rgb(229,218,218);"/>
                    </g>
                    <g transform="matrix(4.22247,0,0,5.21595,33144.9,9861.26)">
                        <path d="M-523,1799.01C-512.519,1799.01 -504.01,1807.52 -504.01,1818C-504.01,1828.48 -512.519,1836.99 -523,1836.99C-533.481,1836.99 -541.99,1828.48 -541.99,1818C-541.99,1807.52 -533.481,1799.01 -523,1799.01ZM-523,1800C-532.934,1800 -541,1808.07 -541,1818C-541,1827.93 -532.934,1836 -523,1836C-513.066,1836 -505,1827.93 -505,1818C-505,1808.07 -513.066,1800 -523,1800Z" style="fill:rgb(229,218,218);"/>
                    </g>
                    <g transform="matrix(1.20687,0,0,1.46822,28714.8,15696.9)">
                        <path d="M840.5,1711L840.5,1994.22" style="fill:none;stroke:rgb(0,38,66);stroke-width:23.26px;"/>
                    </g>
                    <g transform="matrix(1.20687,0,0,1.46822,28714.8,15696.4)">
                        <path d="M351.725,3118.87L-77.2,3068.23L-164.714,2484.26L82.4,2075.63L461.45,1802.8L840.5,1711" style="fill:none;stroke:rgb(0,38,66);stroke-width:23.26px;"/>
                    </g>
                    <g transform="matrix(-1.20687,0,0,1.46822,30743.6,15696.4)">
                        <path d="M82.4,2075.63L461.45,1802.8L840.5,1711" style="fill:none;stroke:rgb(0,38,66);stroke-width:23.26px;"/>
                    </g>
                    <g transform="matrix(1.20385,0,0,1.4871,28525.4,1978.9)">
                        <path d="M412.687,12091.9L-7.733,11677.1" style="fill:none;stroke:rgb(0,38,66);stroke-width:23.14px;"/>
                    </g>
                    <g transform="matrix(1.20385,0,0,1.4871,28525.4,1978.9)">
                        <path d="M-7.733,11677.1L433.708,11750.7" style="fill:none;stroke:rgb(0,38,66);stroke-width:23.14px;"/>
                    </g>
                    <g transform="matrix(1.20385,0,0,1.4871,28525.4,1978.9)">
                        <path d="M-7.733,11677.1L480,11383.6L1000,11193.6" style="fill:none;stroke:rgb(0,38,66);stroke-width:23.14px;"/>
                    </g>
                    <g transform="matrix(-1.20385,0,0,1.4871,30933.1,1978.9)">
                        <path d="M480,11383.6L1000,11193.6" style="fill:none;stroke:rgb(0,38,66);stroke-width:23.14px;"/>
                    </g>
                    <g transform="matrix(1.20385,0,0,1.4871,28525.4,1978.9)">
                        <path d="M620,11004.3L1000,11193.6" style="fill:none;stroke:rgb(0,38,66);stroke-width:23.14px;"/>
                    </g>
                    <g transform="matrix(-1.20385,0,0,1.4871,30933.1,1978.9)">
                        <path d="M620,11004.3L1000,11193.6" style="fill:none;stroke:rgb(0,38,66);stroke-width:23.14px;"/>
                    </g>
                    <g transform="matrix(1.20385,0,0,1.4871,28525.4,1978.9)">
                        <path d="M240,11273.6L480,11383.6" style="fill:none;stroke:rgb(0,38,66);stroke-width:23.14px;"/>
                    </g>
                    <g transform="matrix(1.20385,0,0,1.4871,28525.4,1978.9)">
                        <path d="M80,12253.6L412.687,12091.9" style="fill:none;stroke:rgb(0,38,66);stroke-width:23.14px;"/>
                    </g>
                    <g transform="matrix(1.20385,0,0,1.4871,28525.4,1978.9)">
                        <path d="M520,12304.5L412.687,12091.9L430.467,11733.6L480,11383.6L620,11004.3" style="fill:none;stroke:rgb(0,38,66);stroke-width:23.14px;"/>
                    </g>
                    <g transform="matrix(-1.20385,0,0,1.4871,30933.1,1978.9)">
                        <path d="M480,11383.6L620,11004.3" style="fill:none;stroke:rgb(0,38,66);stroke-width:23.14px;"/>
                    </g>
                    <g transform="matrix(1.26531,0,0,1.56302,28317.5,-17041.7)">
                        <path d="M1838.82,22895.2L1610,22999.9" style="fill:none;stroke:rgb(0,38,66);stroke-width:22.02px;"/>
                    </g>
                    <g transform="matrix(4.22247,0,0,5.21595,31310.4,9430.41)">
                        <circle cx="-523" cy="1818" r="18" style="fill:rgb(203,34,34);"/>
                    </g>
                    <g transform="matrix(4.22247,0,0,5.21595,31255,9961.84)">
                        <circle cx="-523" cy="1818" r="18" style="fill:rgb(203,34,34);"/>
                    </g>
                    <g transform="matrix(4.22247,0,0,5.21595,31937.6,9142.28)">
                        <circle cx="-523" cy="1818" r="18" style="fill:rgb(203,34,34);"/>
                    </g>
                    <g transform="matrix(4.22247,0,0,5.21595,30728.3,9861.26)">
                        <circle cx="-523" cy="1818" r="18" style="fill:rgb(203,34,34);"/>
                    </g>
                    <g transform="matrix(4.22247,0,0,5.21595,31022.6,9258.7)">
                        <circle cx="-523" cy="1818" r="18" style="fill:rgb(203,34,34);"/>
                    </g>
                    <g transform="matrix(4.22247,0,0,5.21595,31938.1,8730.23)">
                        <circle cx="-523" cy="1818" r="18" style="fill:rgb(203,34,34);"/>
                    </g>
                    <g transform="matrix(4.22247,0,0,5.21595,32844.1,9257.24)">
                        <circle cx="-523" cy="1818" r="18" style="fill:rgb(203,34,34);"/>
                    </g>
                    <g transform="matrix(4.22247,0,0,5.21595,31477.4,8854.84)">
                        <circle cx="-523" cy="1818" r="18" style="fill:rgb(203,34,34);"/>
                    </g>
                    <g transform="matrix(4.22247,0,0,5.21595,32391.3,8863.79)">
                        <circle cx="-523" cy="1818" r="18" style="fill:rgb(203,34,34);"/>
                    </g>
                    <g transform="matrix(4.22247,0,0,5.21595,32559.9,9417.47)">
                        <circle cx="-523" cy="1818" r="18" style="fill:rgb(203,34,34);"/>
                    </g>
                    <g transform="matrix(4.22247,0,0,5.21595,31226.6,10469.1)">
                        <circle cx="-523" cy="1818" r="18" style="fill:rgb(203,34,34);"/>
                    </g>
                    <g transform="matrix(4.22247,0,0,5.21595,30839.5,10703.8)">
                        <circle cx="-523" cy="1818" r="18" style="fill:rgb(203,34,34);"/>
                    </g>
                    <g transform="matrix(4.22247,0,0,5.21595,31354.8,10789)">
                        <circle cx="-523" cy="1818" r="18" style="fill:rgb(203,34,34);"/>
                    </g>
                    <g transform="matrix(2.71573,0,0,3.35469,28541.1,18647.1)">
                        <path d="M329.241,125.451L560.257,125.451L560.257,172.174L379.079,172.174L379.079,287.422L547.798,287.422L547.798,334.144L379.079,334.144L379.079,493L329.241,493L329.241,125.451Z" style="fill:rgb(0,38,66);fill-rule:nonzero;"/>
                        <path d="M650.587,387.096C650.587,397.825 652.923,407.602 657.595,416.427C662.267,425.253 668.411,432.78 676.025,439.01C683.639,445.239 692.464,450.085 702.501,453.546C712.537,457.007 722.92,458.737 733.649,458.737C748.185,458.737 760.817,455.363 771.546,448.614C782.275,441.865 792.138,432.953 801.136,421.878L836.438,448.873C810.481,482.444 774.141,499.23 727.419,499.23C708.038,499.23 690.474,495.942 674.727,489.366C658.98,482.79 645.655,473.705 634.753,462.111C623.851,450.517 615.459,436.847 609.575,421.1C603.692,405.352 600.75,388.307 600.75,369.965C600.75,351.622 603.951,334.577 610.354,318.83C616.757,303.083 625.582,289.412 636.83,277.818C648.078,266.224 661.489,257.139 677.063,250.563C692.637,243.988 709.595,240.7 727.938,240.7C749.742,240.7 768.171,244.507 783.226,252.121C798.281,259.735 810.654,269.685 820.345,281.971C830.035,294.257 837.043,308.101 841.37,323.502C845.696,338.903 847.859,354.564 847.859,370.484L847.859,387.096L650.587,387.096ZM798.022,349.718C797.676,339.336 796.032,329.818 793.09,321.166C790.148,312.514 785.735,304.986 779.852,298.583C773.968,292.181 766.614,287.162 757.789,283.528C748.963,279.894 738.667,278.078 726.9,278.078C715.479,278.078 705.01,280.241 695.492,284.567C685.975,288.893 677.928,294.517 671.352,301.439C664.777,308.36 659.672,316.061 656.038,324.54C652.404,333.019 650.587,341.412 650.587,349.718L798.022,349.718Z" style="fill:rgb(0,38,66);fill-rule:nonzero;"/>
                        <path d="M1150.52,493L1103.79,493L1103.79,457.699L1102.76,457.699C1093.76,470.85 1081.38,481.06 1065.64,488.328C1049.89,495.596 1033.71,499.23 1017.1,499.23C998.062,499.23 980.844,495.942 965.443,489.366C950.042,482.79 936.891,473.619 925.989,461.852C915.087,450.085 906.694,436.414 900.811,420.84C894.927,405.266 891.985,388.307 891.985,369.965C891.985,351.622 894.927,334.577 900.811,318.83C906.694,303.083 915.087,289.412 925.989,277.818C936.891,266.224 950.042,257.139 965.443,250.563C980.844,243.988 998.062,240.7 1017.1,240.7C1034.75,240.7 1051.36,244.42 1066.93,251.861C1082.51,259.302 1094.45,269.425 1102.76,282.231L1103.79,282.231L1103.79,100.533L1150.52,100.533L1150.52,493ZM1022.81,455.622C1035.27,455.622 1046.52,453.459 1056.55,449.133C1066.59,444.807 1075.07,438.923 1081.99,431.482C1088.91,424.041 1094.28,415.043 1098.08,404.487C1101.89,393.931 1103.79,382.424 1103.79,369.965C1103.79,357.505 1101.89,345.998 1098.08,335.442C1094.28,324.886 1088.91,315.888 1081.99,308.447C1075.07,301.006 1066.59,295.122 1056.55,290.796C1046.52,286.47 1035.27,284.307 1022.81,284.307C1010.35,284.307 999.101,286.47 989.064,290.796C979.027,295.122 970.548,301.006 963.626,308.447C956.704,315.888 951.34,324.886 947.533,335.442C943.726,345.998 941.822,357.505 941.822,369.965C941.822,382.424 943.726,393.931 947.533,404.487C951.34,415.043 956.704,424.041 963.626,431.482C970.548,438.923 979.027,444.807 989.064,449.133C999.101,453.459 1010.35,455.622 1022.81,455.622Z" style="fill:rgb(0,38,66);fill-rule:nonzero;"/>
                        <path d="M1224.75,246.929L1271.47,246.929L1271.47,493L1224.75,493L1224.75,246.929ZM1213.85,158.676C1213.85,149.332 1217.22,141.285 1223.97,134.536C1230.72,127.787 1238.77,124.413 1248.11,124.413C1257.46,124.413 1265.5,127.787 1272.25,134.536C1279,141.285 1282.38,149.332 1282.38,158.676C1282.38,168.021 1279,176.067 1272.25,182.816C1265.5,189.565 1257.46,192.939 1248.11,192.939C1238.77,192.939 1230.72,189.565 1223.97,182.816C1217.22,176.067 1213.85,168.021 1213.85,158.676Z" style="fill:rgb(0,38,66);fill-rule:nonzero;"/>
                        <path d="M1347.79,125.451L1470.3,125.451L1554.92,365.292L1555.96,365.292L1641.1,125.451L1763.1,125.451L1763.1,493L1682.11,493L1682.11,211.109L1681.07,211.109L1584.51,493L1522.74,493L1429.81,211.109L1428.77,211.109L1428.77,493L1347.79,493L1347.79,125.451Z" style="fill:rgb(203,34,34);fill-rule:nonzero;stroke:rgb(250,248,248);stroke-width:0.51px;stroke-linecap:butt;stroke-miterlimit:2;"/>
                        <path d="M1908.97,197.092L1804.11,197.092L1804.11,125.451L2094.82,125.451L2094.82,197.092L1989.96,197.092L1989.96,493L1908.97,493L1908.97,197.092Z" style="fill:rgb(203,34,34);fill-rule:nonzero;stroke:rgb(250,248,248);stroke-width:0.51px;stroke-linecap:butt;stroke-miterlimit:2;"/>
                        <path d="M2138.95,125.451L2219.94,125.451L2219.94,418.244L2369.97,418.244L2369.97,493L2138.95,493L2138.95,125.451Z" style="fill:rgb(203,34,34);fill-rule:nonzero;stroke:rgb(250,248,248);stroke-width:0.51px;stroke-linecap:butt;stroke-miterlimit:2;"/>
                    </g>
                    <g transform="matrix(5.31359,0,0,6.5638,34709.6,7247)">
                        <circle cx="-523" cy="1818" r="18" style="fill:rgb(203,34,34);"/>
                    </g>
                </g>
                <g transform="matrix(1.01417,0,0,0.922222,-82.6544,1622.59)">
                    <text x="11733.9px" y="26118px" style="font-family:'Avenir-Roman', 'Avenir', sans-serif;font-size:40px;fill:rgb(250,248,248);">A confer<tspan x="11886.6px 11908.9px " y="26118px 26118px ">en</tspan>ce on digital sover<tspan x="12260.2px 12282.5px " y="26118px 26118px ">ei</tspan>gnty</text>
                    <g transform="matrix(40,0,0,40,12220.9,26158)">
                    </g>
                    <text x="11885.1px" y="26158px" style="font-family:'Avenir-Roman', 'Avenir', sans-serif;font-size:40px;fill:rgb(250,248,248);">and the social web</text>
                </g>
                <g transform="matrix(1.01417,0,0,0.922222,-82.6544,1752.18)">
                    <g transform="matrix(40,0,0,40,12227.3,26118)">
                    </g>
                    <text x="11878.6px" y="26118px" style="font-family:'Avenir-Black', 'Avenir', sans-serif;font-weight:800;font-size:40px;fill:rgb(250,248,248);">February 24, 2026</text>
                </g>
            </g>
        </g>
    </g>
</svg>
