<?xml version="1.0" encoding="UTF-8" standalone="no"?>
<!DOCTYPE svg PUBLIC "-//W3C//DTD SVG 1.1//EN" "http://www.w3.org/Graphics/SVG/1.1/DTD/svg11.dtd">
<svg width="100%" height="100%" viewBox="0 0 4706 1283" version="1.1" xmlns="http://www.w3.org/2000/svg" xmlns:xlink="http://www.w3.org/1999/xlink" xml:space="preserve" xmlns:serif="http://www.serif.com/" style="fill-rule:evenodd;clip-rule:evenodd;stroke-linecap:round;stroke-linejoin:round;stroke-miterlimit:1.5;">
    <g transform="matrix(1,0,0,1,-18530,-13376)">
        <g id="logo-horizontal" transform="matrix(1.2382,0,0,0.419489,22740.1,7503.77)">
            <rect x="-3400" y="14000" width="3800" height="3055.46" style="fill:none;"/>
            <clipPath id="_clip1">
                <rect x="-3400" y="14000" width="3800" height="3055.46"/>
            </clipPath>
            <g clip-path="url(#_clip1)">
                <g transform="matrix(0.733571,0,0,2.16527,-10205.9,-29737.8)">
                    <g transform="matrix(0.953813,0,0,0.939351,9491.78,18650.1)">
                        <path d="M840.5,3129L351.725,3118.87L-77.2,3068.23L-164.714,2484.26L82.4,2075.63L461.45,1802.8L840.5,1711" style="fill:none;stroke:rgb(229,218,218);stroke-width:3.49px;"/>
                    </g>
                    <g transform="matrix(-0.953813,0,0,0.939351,11095.1,18650.1)">
                        <path d="M840.5,3129L351.725,3118.87L-77.2,3068.23L-164.714,2484.26L82.4,2075.63L461.45,1802.8L840.5,1711" style="fill:none;stroke:rgb(229,218,218);stroke-width:3.49px;"/>
                    </g>
                    <g transform="matrix(0.953813,0,0,0.939351,9491.78,18650.1)">
                        <path d="M840.5,1994.22L840.5,3129" style="fill:none;stroke:rgb(229,218,218);stroke-width:3.49px;"/>
                    </g>
                    <g transform="matrix(0.951429,0,0,0.951429,9342.03,9873.78)">
                        <path d="M1000,12313.6L412.687,12091.9L-7.733,11677.1" style="fill:none;stroke:rgb(229,218,218);stroke-width:3.47px;"/>
                    </g>
                    <g transform="matrix(-0.951429,0,0,0.951429,11244.9,9873.78)">
                        <path d="M1000,12313.6L412.687,12091.9L-7.733,11677.1" style="fill:none;stroke:rgb(229,218,218);stroke-width:3.47px;"/>
                    </g>
                    <g transform="matrix(0.951429,0,0,0.951429,9342.03,9873.78)">
                        <path d="M-7.733,11677.1L433.708,11750.7L1000,11761.2" style="fill:none;stroke:rgb(229,218,218);stroke-width:3.47px;"/>
                    </g>
                    <g transform="matrix(-0.951429,0,0,0.951429,11244.9,9873.78)">
                        <path d="M-7.733,11677.1L433.708,11750.7L1000,11761.2" style="fill:none;stroke:rgb(229,218,218);stroke-width:3.47px;"/>
                    </g>
                    <g transform="matrix(0.951429,0,0,0.951429,9342.03,9873.78)">
                        <path d="M-7.733,11677.1L480,11383.6L1000,11193.6" style="fill:none;stroke:rgb(229,218,218);stroke-width:3.47px;"/>
                    </g>
                    <g transform="matrix(-0.951429,0,0,0.951429,11244.9,9873.78)">
                        <path d="M-7.733,11677.1L480,11383.6L1000,11193.6" style="fill:none;stroke:rgb(229,218,218);stroke-width:3.47px;"/>
                    </g>
                    <g transform="matrix(0.951429,0,0,0.951429,9342.03,9873.78)">
                        <path d="M620,11004.3L1000,11193.6" style="fill:none;stroke:rgb(229,218,218);stroke-width:3.47px;"/>
                    </g>
                    <g transform="matrix(-0.951429,0,0,0.951429,11244.9,9873.78)">
                        <path d="M620,11004.3L1000,11193.6" style="fill:none;stroke:rgb(229,218,218);stroke-width:3.47px;"/>
                    </g>
                    <g transform="matrix(0.951429,0,0,0.951429,9342.03,9873.78)">
                        <path d="M240,11273.6L480,11383.6L1000,11761.2" style="fill:none;stroke:rgb(229,218,218);stroke-width:3.47px;"/>
                    </g>
                    <g transform="matrix(-0.951429,0,0,0.951429,11244.9,9873.78)">
                        <path d="M240,11273.6L480,11383.6L1000,11761.2" style="fill:none;stroke:rgb(229,218,218);stroke-width:3.47px;"/>
                    </g>
                    <g transform="matrix(0.951429,0,0,0.951429,9342.03,9873.78)">
                        <path d="M80,12253.6L412.687,12091.9L1000,11761.2" style="fill:none;stroke:rgb(229,218,218);stroke-width:3.47px;"/>
                    </g>
                    <g transform="matrix(-0.951429,0,0,0.951429,11244.9,9873.78)">
                        <path d="M80,12253.6L412.687,12091.9L1000,11761.2" style="fill:none;stroke:rgb(229,218,218);stroke-width:3.47px;"/>
                    </g>
                    <g transform="matrix(0.951429,0,0,0.951429,9342.03,9873.78)">
                        <path d="M520,12304.5L412.687,12091.9L430.467,11733.6L480,11383.6L620,11004.3" style="fill:none;stroke:rgb(229,218,218);stroke-width:3.47px;"/>
                    </g>
                    <g transform="matrix(-0.951429,0,0,0.951429,11244.9,9873.78)">
                        <path d="M520,12304.5L412.687,12091.9L430.467,11733.6L480,11383.6L620,11004.3" style="fill:none;stroke:rgb(229,218,218);stroke-width:3.47px;"/>
                    </g>
                </g>
                <g transform="matrix(0.69969,0,0,2.03395,-3242.98,10644.7)">
                    <path d="M840.5,1711L840.5,1994.22" style="fill:none;stroke:rgb(0,38,66);stroke-width:23.26px;"/>
                </g>
                <g transform="matrix(0.69969,0,0,2.03395,-3242.98,10644)">
                    <path d="M351.725,3118.87L-77.2,3068.23L-164.714,2484.26L82.4,2075.63L461.45,1802.8L840.5,1711" style="fill:none;stroke:rgb(0,38,66);stroke-width:23.26px;"/>
                </g>
                <g transform="matrix(-0.69969,0,0,2.03395,-2066.8,10644)">
                    <path d="M82.4,2075.63L461.45,1802.8L840.5,1711" style="fill:none;stroke:rgb(0,38,66);stroke-width:23.26px;"/>
                </g>
                <g transform="matrix(0.69794,0,0,2.0601,-3352.83,-8359.08)">
                    <path d="M412.687,12091.9L-7.733,11677.1" style="fill:none;stroke:rgb(0,38,66);stroke-width:23.14px;"/>
                </g>
                <g transform="matrix(0.69794,0,0,2.0601,-3352.83,-8359.08)">
                    <path d="M-7.733,11677.1L433.708,11750.7" style="fill:none;stroke:rgb(0,38,66);stroke-width:23.14px;"/>
                </g>
                <g transform="matrix(0.69794,0,0,2.0601,-3352.83,-8359.08)">
                    <path d="M-7.733,11677.1L480,11383.6L1000,11193.6" style="fill:none;stroke:rgb(0,38,66);stroke-width:23.14px;"/>
                </g>
                <g transform="matrix(-0.69794,0,0,2.0601,-1956.95,-8359.08)">
                    <path d="M480,11383.6L1000,11193.6" style="fill:none;stroke:rgb(0,38,66);stroke-width:23.14px;"/>
                </g>
                <g transform="matrix(0.69794,0,0,2.0601,-3352.83,-8359.08)">
                    <path d="M620,11004.3L1000,11193.6" style="fill:none;stroke:rgb(0,38,66);stroke-width:23.14px;"/>
                </g>
                <g transform="matrix(-0.69794,0,0,2.0601,-1956.95,-8359.08)">
                    <path d="M620,11004.3L1000,11193.6" style="fill:none;stroke:rgb(0,38,66);stroke-width:23.14px;"/>
                </g>
                <g transform="matrix(0.69794,0,0,2.0601,-3352.83,-8359.08)">
                    <path d="M240,11273.6L480,11383.6" style="fill:none;stroke:rgb(0,38,66);stroke-width:23.14px;"/>
                </g>
                <g transform="matrix(0.69794,0,0,2.0601,-3352.83,-8359.08)">
                    <path d="M80,12253.6L412.687,12091.9" style="fill:none;stroke:rgb(0,38,66);stroke-width:23.14px;"/>
                </g>
                <g transform="matrix(0.69794,0,0,2.0601,-3352.83,-8359.08)">
                    <path d="M520,12304.5L412.687,12091.9L430.467,11733.6L480,11383.6L620,11004.3" style="fill:none;stroke:rgb(0,38,66);stroke-width:23.14px;"/>
                </g>
                <g transform="matrix(-0.69794,0,0,2.0601,-1956.95,-8359.08)">
                    <path d="M480,11383.6L620,11004.3" style="fill:none;stroke:rgb(0,38,66);stroke-width:23.14px;"/>
                </g>
                <g transform="matrix(0.733571,0,0,2.16527,-3473.36,-34708.6)">
                    <path d="M1838.82,22895.2L1610,22999.9" style="fill:none;stroke:rgb(0,38,66);stroke-width:22.02px;"/>
                </g>
                <g transform="matrix(2.448,0,0,7.22575,-1738.19,1963.64)">
                    <circle cx="-523" cy="1818" r="18" style="fill:rgb(203,34,34);"/>
                </g>
                <g transform="matrix(2.448,0,0,7.22575,-1770.31,2699.83)">
                    <circle cx="-523" cy="1818" r="18" style="fill:rgb(203,34,34);"/>
                </g>
                <g transform="matrix(2.448,0,0,7.22575,-1374.58,1564.47)">
                    <circle cx="-523" cy="1818" r="18" style="fill:rgb(203,34,34);"/>
                </g>
                <g transform="matrix(2.448,0,0,7.22575,-2075.63,2560.5)">
                    <circle cx="-523" cy="1818" r="18" style="fill:rgb(203,34,34);"/>
                </g>
                <g transform="matrix(2.448,0,0,7.22575,-1905.02,1725.75)">
                    <circle cx="-523" cy="1818" r="18" style="fill:rgb(203,34,34);"/>
                </g>
                <g transform="matrix(2.448,0,0,7.22575,-1374.24,993.657)">
                    <circle cx="-523" cy="1818" r="18" style="fill:rgb(203,34,34);"/>
                </g>
                <g transform="matrix(2.448,0,0,7.22575,-848.977,1723.73)">
                    <circle cx="-523" cy="1818" r="18" style="fill:rgb(203,34,34);"/>
                </g>
                <g transform="matrix(2.448,0,0,7.22575,-1641.39,1166.28)">
                    <circle cx="-523" cy="1818" r="18" style="fill:rgb(203,34,34);"/>
                </g>
                <g transform="matrix(2.448,0,0,7.22575,-1111.52,1178.68)">
                    <circle cx="-523" cy="1818" r="18" style="fill:rgb(203,34,34);"/>
                </g>
                <g transform="matrix(2.448,0,0,7.22575,-1013.77,1945.7)">
                    <circle cx="-523" cy="1818" r="18" style="fill:rgb(203,34,34);"/>
                </g>
                <g transform="matrix(2.448,0,0,7.22575,-1786.74,3402.59)">
                    <circle cx="-523" cy="1818" r="18" style="fill:rgb(203,34,34);"/>
                </g>
                <g transform="matrix(2.448,0,0,7.22575,-2011.17,3727.73)">
                    <circle cx="-523" cy="1818" r="18" style="fill:rgb(203,34,34);"/>
                </g>
                <g transform="matrix(2.448,0,0,7.22575,-1712.43,3845.64)">
                    <circle cx="-523" cy="1818" r="18" style="fill:rgb(203,34,34);"/>
                </g>
                <g transform="matrix(1.57446,0,0,4.64731,-3343.68,14731.7)">
                    <path d="M329.241,125.451L560.257,125.451L560.257,172.174L379.079,172.174L379.079,287.422L547.798,287.422L547.798,334.144L379.079,334.144L379.079,493L329.241,493L329.241,125.451Z" style="fill:rgb(0,38,66);fill-rule:nonzero;"/>
                    <path d="M650.587,387.096C650.587,397.825 652.923,407.602 657.595,416.427C662.267,425.253 668.411,432.78 676.025,439.01C683.639,445.239 692.464,450.085 702.501,453.546C712.537,457.007 722.92,458.737 733.649,458.737C748.185,458.737 760.817,455.363 771.546,448.614C782.275,441.865 792.138,432.953 801.136,421.878L836.438,448.873C810.481,482.444 774.141,499.23 727.419,499.23C708.038,499.23 690.474,495.942 674.727,489.366C658.98,482.79 645.655,473.705 634.753,462.111C623.851,450.517 615.459,436.847 609.575,421.1C603.692,405.352 600.75,388.307 600.75,369.965C600.75,351.622 603.951,334.577 610.354,318.83C616.757,303.083 625.582,289.412 636.83,277.818C648.078,266.224 661.489,257.139 677.063,250.563C692.637,243.988 709.595,240.7 727.938,240.7C749.742,240.7 768.171,244.507 783.226,252.121C798.281,259.735 810.654,269.685 820.345,281.971C830.035,294.257 837.043,308.101 841.37,323.502C845.696,338.903 847.859,354.564 847.859,370.484L847.859,387.096L650.587,387.096ZM798.022,349.718C797.676,339.336 796.032,329.818 793.09,321.166C790.148,312.514 785.735,304.986 779.852,298.583C773.968,292.181 766.614,287.162 757.789,283.528C748.963,279.894 738.667,278.078 726.9,278.078C715.479,278.078 705.01,280.241 695.492,284.567C685.975,288.893 677.928,294.517 671.352,301.439C664.777,308.36 659.672,316.061 656.038,324.54C652.404,333.019 650.587,341.412 650.587,349.718L798.022,349.718Z" style="fill:rgb(0,38,66);fill-rule:nonzero;"/>
                    <path d="M1150.52,493L1103.79,493L1103.79,457.699L1102.76,457.699C1093.76,470.85 1081.38,481.06 1065.64,488.328C1049.89,495.596 1033.71,499.23 1017.1,499.23C998.062,499.23 980.844,495.942 965.443,489.366C950.042,482.79 936.891,473.619 925.989,461.852C915.087,450.085 906.694,436.414 900.811,420.84C894.927,405.266 891.985,388.307 891.985,369.965C891.985,351.622 894.927,334.577 900.811,318.83C906.694,303.083 915.087,289.412 925.989,277.818C936.891,266.224 950.042,257.139 965.443,250.563C980.844,243.988 998.062,240.7 1017.1,240.7C1034.75,240.7 1051.36,244.42 1066.93,251.861C1082.51,259.302 1094.45,269.425 1102.76,282.231L1103.79,282.231L1103.79,100.533L1150.52,100.533L1150.52,493ZM1022.81,455.622C1035.27,455.622 1046.52,453.459 1056.55,449.133C1066.59,444.807 1075.07,438.923 1081.99,431.482C1088.91,424.041 1094.28,415.043 1098.08,404.487C1101.89,393.931 1103.79,382.424 1103.79,369.965C1103.79,357.505 1101.89,345.998 1098.08,335.442C1094.28,324.886 1088.91,315.888 1081.99,308.447C1075.07,301.006 1066.59,295.122 1056.55,290.796C1046.52,286.47 1035.27,284.307 1022.81,284.307C1010.35,284.307 999.101,286.47 989.064,290.796C979.027,295.122 970.548,301.006 963.626,308.447C956.704,315.888 951.34,324.886 947.533,335.442C943.726,345.998 941.822,357.505 941.822,369.965C941.822,382.424 943.726,393.931 947.533,404.487C951.34,415.043 956.704,424.041 963.626,431.482C970.548,438.923 979.027,444.807 989.064,449.133C999.101,453.459 1010.35,455.622 1022.81,455.622Z" style="fill:rgb(0,38,66);fill-rule:nonzero;"/>
                    <path d="M1224.75,246.929L1271.47,246.929L1271.47,493L1224.75,493L1224.75,246.929ZM1213.85,158.676C1213.85,149.332 1217.22,141.285 1223.97,134.536C1230.72,127.787 1238.77,124.413 1248.11,124.413C1257.46,124.413 1265.5,127.787 1272.25,134.536C1279,141.285 1282.38,149.332 1282.38,158.676C1282.38,168.021 1279,176.067 1272.25,182.816C1265.5,189.565 1257.46,192.939 1248.11,192.939C1238.77,192.939 1230.72,189.565 1223.97,182.816C1217.22,176.067 1213.85,168.021 1213.85,158.676Z" style="fill:rgb(0,38,66);fill-rule:nonzero;"/>
                    <path d="M1347.79,125.451L1470.3,125.451L1554.92,365.292L1555.96,365.292L1641.1,125.451L1763.1,125.451L1763.1,493L1682.11,493L1682.11,211.109L1681.07,211.109L1584.51,493L1522.74,493L1429.81,211.109L1428.77,211.109L1428.77,493L1347.79,493L1347.79,125.451Z" style="fill:rgb(203,34,34);fill-rule:nonzero;"/>
                    <path d="M1908.97,197.092L1804.11,197.092L1804.11,125.451L2094.82,125.451L2094.82,197.092L1989.96,197.092L1989.96,493L1908.97,493L1908.97,197.092Z" style="fill:rgb(203,34,34);fill-rule:nonzero;"/>
                    <path d="M2138.95,125.451L2219.94,125.451L2219.94,418.244L2369.97,418.244L2369.97,493L2138.95,493L2138.95,125.451Z" style="fill:rgb(203,34,34);fill-rule:nonzero;"/>
                </g>
                <g transform="matrix(3.08059,0,0,9.09294,232.5,-1061.09)">
                    <circle cx="-523" cy="1818" r="18" style="fill:rgb(203,34,34);"/>
                </g>
            </g>
        </g>
    </g>
</svg>
