<?xml version="1.0" encoding="UTF-8" standalone="no"?>
<!DOCTYPE svg PUBLIC "-//W3C//DTD SVG 1.1//EN" "http://www.w3.org/Graphics/SVG/1.1/DTD/svg11.dtd">
<svg width="100%" height="100%" viewBox="0 0 1186 1185" version="1.1" xmlns="http://www.w3.org/2000/svg" xmlns:xlink="http://www.w3.org/1999/xlink" xml:space="preserve" xmlns:serif="http://www.serif.com/" style="fill-rule:evenodd;clip-rule:evenodd;stroke-linejoin:round;stroke-miterlimit:1.5;">
    <g transform="matrix(1,0,0,1,-18530,-11225)">
        <g id="icon" transform="matrix(0.311841,0,0,0.387831,19590.5,5795.37)">
            <rect x="-3400" y="14000" width="3800" height="3055.46" style="fill:none;"/>
            <clipPath id="_clip1">
                <rect x="-3400" y="14000" width="3800" height="3055.46"/>
            </clipPath>
            <g clip-path="url(#_clip1)">
                <g transform="matrix(1,0,0,1,8.51201,110.154)">
                    <g transform="matrix(1.77744,0,0,1.40751,-3001.11,12010.8)">
                        <path d="M776.733,3127.68L351.725,3118.87" style="fill:none;stroke:rgb(229,218,218);stroke-width:5.45px;"/>
                    </g>
                    <g transform="matrix(-1.77744,0,0,1.40751,-13.2267,12010.8)">
                        <path d="M778.314,3127.71L425.121,3120.39" style="fill:none;stroke:rgb(229,218,218);stroke-width:5.45px;"/>
                    </g>
                    <g transform="matrix(-1.77744,0,0,1.40751,-13.2267,12010.8)">
                        <path d="M299.568,3112.71L-8.7,3076.32" style="fill:none;stroke:rgb(229,218,218);stroke-width:5.45px;"/>
                    </g>
                    <g transform="matrix(-1.77744,0,0,1.40751,-13.2267,12010.8)">
                        <path d="M-87.309,3000.78L-155.207,2547.7" style="fill:none;stroke:rgb(229,218,218);stroke-width:5.45px;"/>
                    </g>
                    <g transform="matrix(-1.77744,0,0,1.40751,-13.2267,12010.8)">
                        <path d="M-129.394,2425.9L82.4,2075.63" style="fill:none;stroke:rgb(229,218,218);stroke-width:5.45px;stroke-linecap:round;"/>
                    </g>
                    <g transform="matrix(1.77744,0,0,1.40751,-3001.11,12010.8)">
                        <path d="M840.5,1994.22L840.5,2508.86" style="fill:none;stroke:rgb(229,218,218);stroke-width:5.45px;"/>
                    </g>
                    <g transform="matrix(1.77744,0,0,1.40751,-3001.11,12010.8)">
                        <path d="M840.5,2636.75L840.5,3063.4" style="fill:none;stroke:rgb(229,218,218);stroke-width:5.45px;"/>
                    </g>
                    <g transform="matrix(1.773,0,0,1.42561,-3280.17,-1139.54)">
                        <path d="M939.723,12290.9L412.687,12091.9" style="fill:none;stroke:rgb(229,218,218);stroke-width:5.43px;"/>
                    </g>
                    <g transform="matrix(-1.773,0,0,1.42561,265.832,-1139.54)">
                        <path d="M941.122,12291.4L473.435,12114.8" style="fill:none;stroke:rgb(229,218,218);stroke-width:5.43px;"/>
                    </g>
                    <g transform="matrix(-1.773,0,0,1.42561,265.832,-1139.54)">
                        <path d="M368.139,12047.9L39.365,11723.5" style="fill:none;stroke:rgb(229,218,218);stroke-width:5.43px;"/>
                    </g>
                    <g transform="matrix(1.773,0,0,1.42561,-3280.17,-1139.54)">
                        <path d="M433.708,11750.7L936.866,11760" style="fill:none;stroke:rgb(229,218,218);stroke-width:5.43px;"/>
                    </g>
                    <g transform="matrix(-1.773,0,0,1.42561,265.832,-1139.54)">
                        <path d="M59.107,11688.2L377.711,11741.3" style="fill:none;stroke:rgb(229,218,218);stroke-width:5.43px;"/>
                    </g>
                    <g transform="matrix(-1.773,0,0,1.42561,265.832,-1139.54)">
                        <path d="M503.332,11751.9L936.866,11760" style="fill:none;stroke:rgb(229,218,218);stroke-width:5.43px;"/>
                    </g>
                    <g transform="matrix(-1.773,0,0,1.42561,265.832,-1139.54)">
                        <path d="M50.126,11642.1L480,11383.6" style="fill:none;stroke:rgb(229,218,218);stroke-width:5.43px;"/>
                    </g>
                    <g transform="matrix(1.773,0,0,1.42561,-3280.17,-1139.54)">
                        <path d="M480,11383.6L950.543,11725.3" style="fill:none;stroke:rgb(229,218,218);stroke-width:5.43px;"/>
                    </g>
                    <g transform="matrix(-1.773,0,0,1.42561,265.832,-1139.54)">
                        <path d="M480,11383.6L950.662,11725.3" style="fill:none;stroke:rgb(229,218,218);stroke-width:5.43px;"/>
                    </g>
                    <g transform="matrix(1.773,0,0,1.42561,-3280.17,-1139.54)">
                        <path d="M412.687,12091.9L943.641,11792.9" style="fill:none;stroke:rgb(229,218,218);stroke-width:5.43px;"/>
                    </g>
                    <g transform="matrix(-1.773,0,0,1.42561,265.832,-1139.54)">
                        <path d="M144.689,12222.2L359.372,12117.8" style="fill:none;stroke:rgb(229,218,218);stroke-width:5.43px;"/>
                    </g>
                    <g transform="matrix(-1.773,0,0,1.42561,265.832,-1139.54)">
                        <path d="M470.935,12059.1L943.567,11792.9" style="fill:none;stroke:rgb(229,218,218);stroke-width:5.43px;"/>
                    </g>
                    <g transform="matrix(-1.773,0,0,1.42561,265.832,-1139.54)">
                        <path d="M489.034,12243.2L440.576,12147.1" style="fill:none;stroke:rgb(229,218,218);stroke-width:5.43px;"/>
                    </g>
                    <g transform="matrix(-1.773,0,0,1.42561,265.832,-1139.54)">
                        <path d="M416.779,12026.1L430.06,11812.6" style="fill:none;stroke:rgb(229,218,218);stroke-width:5.43px;stroke-linecap:round;"/>
                    </g>
                    <g transform="matrix(-1.773,0,0,1.42561,265.832,-1139.54)">
                        <path d="M441.823,11687.2L480,11383.6" style="fill:none;stroke:rgb(229,218,218);stroke-width:5.43px;"/>
                    </g>
                    <g transform="matrix(6.21874,0,0,5.00027,2737.76,6521.29)">
                        <circle cx="-523" cy="1818" r="18" style="fill:rgb(250,248,248);"/>
                        <path d="M-523,1798.45C-512.212,1798.45 -503.453,1807.21 -503.453,1818C-503.453,1828.79 -512.212,1837.55 -523,1837.55C-533.788,1837.55 -542.547,1828.79 -542.547,1818C-542.547,1807.21 -533.788,1798.45 -523,1798.45ZM-523,1800C-532.934,1800 -541,1808.07 -541,1818C-541,1827.93 -532.934,1836 -523,1836C-513.066,1836 -505,1827.93 -505,1818C-505,1808.07 -513.066,1800 -523,1800Z" style="fill:rgb(229,218,218);"/>
                    </g>
                    <g transform="matrix(6.21874,0,0,5.00027,1745.23,6541.51)">
                        <circle cx="-523" cy="1818" r="18" style="fill:rgb(250,248,248);"/>
                        <path d="M-523,1798.45C-512.212,1798.45 -503.453,1807.21 -503.453,1818C-503.453,1828.79 -512.212,1837.55 -523,1837.55C-533.788,1837.55 -542.547,1828.79 -542.547,1818C-542.547,1807.21 -533.788,1798.45 -523,1798.45ZM-523,1800C-532.934,1800 -541,1808.07 -541,1818C-541,1827.93 -532.934,1836 -523,1836C-513.066,1836 -505,1827.93 -505,1818C-505,1808.07 -513.066,1800 -523,1800Z" style="fill:rgb(229,218,218);"/>
                    </g>
                    <g transform="matrix(6.21874,0,0,5.00027,1743.83,7322.04)">
                        <circle cx="-523" cy="1818" r="18" style="fill:rgb(250,248,248);"/>
                        <path d="M-523,1798.45C-512.212,1798.45 -503.453,1807.21 -503.453,1818C-503.453,1828.79 -512.212,1837.55 -523,1837.55C-533.788,1837.55 -542.547,1828.79 -542.547,1818C-542.547,1807.21 -533.788,1798.45 -523,1798.45ZM-523,1800C-532.934,1800 -541,1808.07 -541,1818C-541,1827.93 -532.934,1836 -523,1836C-513.066,1836 -505,1827.93 -505,1818C-505,1808.07 -513.066,1800 -523,1800Z" style="fill:rgb(229,218,218);"/>
                    </g>
                    <g transform="matrix(6.21874,0,0,5.00027,2594.77,7302.06)">
                        <circle cx="-523" cy="1818" r="18" style="fill:rgb(250,248,248);"/>
                        <path d="M-523,1798.45C-512.212,1798.45 -503.453,1807.21 -503.453,1818C-503.453,1828.79 -512.212,1837.55 -523,1837.55C-533.788,1837.55 -542.547,1828.79 -542.547,1818C-542.547,1807.21 -533.788,1798.45 -523,1798.45ZM-523,1800C-532.934,1800 -541,1808.07 -541,1818C-541,1827.93 -532.934,1836 -523,1836C-513.066,1836 -505,1827.93 -505,1818C-505,1808.07 -513.066,1800 -523,1800Z" style="fill:rgb(229,218,218);"/>
                    </g>
                    <g transform="matrix(6.21874,0,0,5.00027,2781.07,7004.45)">
                        <circle cx="-523" cy="1818" r="18" style="fill:rgb(250,248,248);"/>
                        <path d="M-523,1798.45C-512.212,1798.45 -503.453,1807.21 -503.453,1818C-503.453,1828.79 -512.212,1837.55 -523,1837.55C-533.788,1837.55 -542.547,1828.79 -542.547,1818C-542.547,1807.21 -533.788,1798.45 -523,1798.45ZM-523,1800C-532.934,1800 -541,1808.07 -541,1818C-541,1827.93 -532.934,1836 -523,1836C-513.066,1836 -505,1827.93 -505,1818C-505,1808.07 -513.066,1800 -523,1800Z" style="fill:rgb(229,218,218);"/>
                    </g>
                    <g transform="matrix(6.21874,0,0,5.00027,3363.89,7230.52)">
                        <circle cx="-523" cy="1818" r="18" style="fill:rgb(250,248,248);"/>
                        <path d="M-523,1798.45C-512.212,1798.45 -503.453,1807.21 -503.453,1818C-503.453,1828.79 -512.212,1837.55 -523,1837.55C-533.788,1837.55 -542.547,1828.79 -542.547,1818C-542.547,1807.21 -533.788,1798.45 -523,1798.45ZM-523,1800C-532.934,1800 -541,1808.07 -541,1818C-541,1827.93 -532.934,1836 -523,1836C-513.066,1836 -505,1827.93 -505,1818C-505,1808.07 -513.066,1800 -523,1800Z" style="fill:rgb(229,218,218);"/>
                    </g>
                    <g transform="matrix(6.21874,0,0,5.00027,3523.44,6416.4)">
                        <circle cx="-523" cy="1818" r="18" style="fill:rgb(250,248,248);"/>
                        <path d="M-523,1798.45C-512.212,1798.45 -503.453,1807.21 -503.453,1818C-503.453,1828.79 -512.212,1837.55 -523,1837.55C-533.788,1837.55 -542.547,1828.79 -542.547,1818C-542.547,1807.21 -533.788,1798.45 -523,1798.45ZM-523,1800C-532.934,1800 -541,1808.07 -541,1818C-541,1827.93 -532.934,1836 -523,1836C-513.066,1836 -505,1827.93 -505,1818C-505,1808.07 -513.066,1800 -523,1800Z" style="fill:rgb(229,218,218);"/>
                    </g>
                    <g transform="matrix(1.77744,0,0,1.40751,-3001.11,12010.8)">
                        <path d="M840.5,1711L840.5,1994.22" style="fill:none;stroke:rgb(229,218,218);stroke-width:5.45px;stroke-linecap:round;"/>
                    </g>
                    <g transform="matrix(1.77744,0,0,1.40751,-3001.11,12010.3)">
                        <path d="M351.725,3118.87L-77.2,3068.23L-164.714,2484.26L82.4,2075.63L461.45,1802.8L840.5,1711" style="fill:none;stroke:rgb(229,218,218);stroke-width:5.45px;stroke-linecap:round;"/>
                    </g>
                    <g transform="matrix(-1.77744,0,0,1.40751,-13.2267,12010.3)">
                        <path d="M82.4,2075.63L461.45,1802.8L840.5,1711" style="fill:none;stroke:rgb(229,218,218);stroke-width:5.45px;stroke-linecap:round;"/>
                    </g>
                    <g transform="matrix(1.773,0,0,1.42561,-3280.17,-1140.02)">
                        <path d="M412.687,12091.9L-7.733,11677.1" style="fill:none;stroke:rgb(229,218,218);stroke-width:5.43px;stroke-linecap:round;"/>
                    </g>
                    <g transform="matrix(1.773,0,0,1.42561,-3280.17,-1140.02)">
                        <path d="M-7.733,11677.1L433.708,11750.7" style="fill:none;stroke:rgb(229,218,218);stroke-width:5.43px;stroke-linecap:round;"/>
                    </g>
                    <g transform="matrix(1.773,0,0,1.42561,-3280.17,-1140.02)">
                        <path d="M-7.733,11677.1L480,11383.6L1000,11193.6" style="fill:none;stroke:rgb(229,218,218);stroke-width:5.43px;stroke-linecap:round;"/>
                    </g>
                    <g transform="matrix(-1.773,0,0,1.42561,265.832,-1140.02)">
                        <path d="M480,11383.6L1000,11193.6" style="fill:none;stroke:rgb(229,218,218);stroke-width:5.43px;stroke-linecap:round;"/>
                    </g>
                    <g transform="matrix(1.773,0,0,1.42561,-3280.17,-1140.02)">
                        <path d="M620,11004.3L1000,11193.6" style="fill:none;stroke:rgb(229,218,218);stroke-width:5.43px;stroke-linecap:round;"/>
                    </g>
                    <g transform="matrix(-1.773,0,0,1.42561,265.832,-1140.02)">
                        <path d="M620,11004.3L1000,11193.6" style="fill:none;stroke:rgb(229,218,218);stroke-width:5.43px;stroke-linecap:round;"/>
                    </g>
                    <g transform="matrix(1.773,0,0,1.42561,-3280.17,-1140.02)">
                        <path d="M240,11273.6L480,11383.6" style="fill:none;stroke:rgb(229,218,218);stroke-width:5.43px;stroke-linecap:round;"/>
                    </g>
                    <g transform="matrix(1.773,0,0,1.42561,-3280.17,-1140.02)">
                        <path d="M80,12253.6L412.687,12091.9" style="fill:none;stroke:rgb(229,218,218);stroke-width:5.43px;stroke-linecap:round;"/>
                    </g>
                    <g transform="matrix(1.773,0,0,1.42561,-3280.17,-1140.02)">
                        <path d="M520,12304.5L412.687,12091.9L430.467,11733.6L480,11383.6L620,11004.3" style="fill:none;stroke:rgb(229,218,218);stroke-width:5.43px;stroke-linecap:round;"/>
                    </g>
                    <g transform="matrix(-1.773,0,0,1.42561,265.832,-1140.02)">
                        <path d="M480,11383.6L620,11004.3" style="fill:none;stroke:rgb(229,218,218);stroke-width:5.43px;stroke-linecap:round;"/>
                    </g>
                    <g transform="matrix(1.86351,0,0,1.49838,-3586.35,-19374.1)">
                        <path d="M1838.82,22895.2L1610,22999.9" style="fill:none;stroke:rgb(229,218,218);stroke-width:5.16px;stroke-linecap:round;"/>
                    </g>
                    <g transform="matrix(6.21874,0,0,5.00027,821.554,6003.37)">
                        <circle cx="-523" cy="1818" r="18" style="fill:rgb(250,248,248);"/>
                        <path d="M-523,1798.45C-512.212,1798.45 -503.453,1807.21 -503.453,1818C-503.453,1828.79 -512.212,1837.55 -523,1837.55C-533.788,1837.55 -542.547,1828.79 -542.547,1818C-542.547,1807.21 -533.788,1798.45 -523,1798.45ZM-523,1800C-532.934,1800 -541,1808.07 -541,1818C-541,1827.93 -532.934,1836 -523,1836C-513.066,1836 -505,1827.93 -505,1818C-505,1808.07 -513.066,1800 -523,1800Z" style="fill:rgb(229,218,218);"/>
                    </g>
                    <g transform="matrix(6.21874,0,0,5.00027,739.942,6512.82)">
                        <circle cx="-523" cy="1818" r="18" style="fill:rgb(250,248,248);"/>
                        <path d="M-523,1798.45C-512.212,1798.45 -503.453,1807.21 -503.453,1818C-503.453,1828.79 -512.212,1837.55 -523,1837.55C-533.788,1837.55 -542.547,1828.79 -542.547,1818C-542.547,1807.21 -533.788,1798.45 -523,1798.45ZM-523,1800C-532.934,1800 -541,1808.07 -541,1818C-541,1827.93 -532.934,1836 -523,1836C-513.066,1836 -505,1827.93 -505,1818C-505,1808.07 -513.066,1800 -523,1800Z" style="fill:rgb(229,218,218);"/>
                    </g>
                    <g transform="matrix(6.21874,0,0,5.00027,1745.23,5727.15)">
                        <circle cx="-523" cy="1818" r="18" style="fill:rgb(250,248,248);"/>
                        <path d="M-523,1798.45C-512.212,1798.45 -503.453,1807.21 -503.453,1818C-503.453,1828.79 -512.212,1837.55 -523,1837.55C-533.788,1837.55 -542.547,1828.79 -542.547,1818C-542.547,1807.21 -533.788,1798.45 -523,1798.45ZM-523,1800C-532.934,1800 -541,1808.07 -541,1818C-541,1827.93 -532.934,1836 -523,1836C-513.066,1836 -505,1827.93 -505,1818C-505,1808.07 -513.066,1800 -523,1800Z" style="fill:rgb(229,218,218);"/>
                    </g>
                    <g transform="matrix(6.21874,0,0,5.00027,-35.6614,6416.4)">
                        <circle cx="-523" cy="1818" r="18" style="fill:rgb(250,248,248);"/>
                        <path d="M-523,1798.45C-512.212,1798.45 -503.453,1807.21 -503.453,1818C-503.453,1828.79 -512.212,1837.55 -523,1837.55C-533.788,1837.55 -542.547,1828.79 -542.547,1818C-542.547,1807.21 -533.788,1798.45 -523,1798.45ZM-523,1800C-532.934,1800 -541,1808.07 -541,1818C-541,1827.93 -532.934,1836 -523,1836C-513.066,1836 -505,1827.93 -505,1818C-505,1808.07 -513.066,1800 -523,1800Z" style="fill:rgb(229,218,218);"/>
                    </g>
                    <g transform="matrix(6.21874,0,0,5.00027,397.755,5838.75)">
                        <circle cx="-523" cy="1818" r="18" style="fill:rgb(250,248,248);"/>
                        <path d="M-523,1798.45C-512.212,1798.45 -503.453,1807.21 -503.453,1818C-503.453,1828.79 -512.212,1837.55 -523,1837.55C-533.788,1837.55 -542.547,1828.79 -542.547,1818C-542.547,1807.21 -533.788,1798.45 -523,1798.45ZM-523,1800C-532.934,1800 -541,1808.07 -541,1818C-541,1827.93 -532.934,1836 -523,1836C-513.066,1836 -505,1827.93 -505,1818C-505,1808.07 -513.066,1800 -523,1800Z" style="fill:rgb(229,218,218);"/>
                    </g>
                    <g transform="matrix(6.21874,0,0,5.00027,1746.09,5332.14)">
                        <circle cx="-523" cy="1818" r="18" style="fill:rgb(250,248,248);"/>
                        <path d="M-523,1798.45C-512.212,1798.45 -503.453,1807.21 -503.453,1818C-503.453,1828.79 -512.212,1837.55 -523,1837.55C-533.788,1837.55 -542.547,1828.79 -542.547,1818C-542.547,1807.21 -533.788,1798.45 -523,1798.45ZM-523,1800C-532.934,1800 -541,1808.07 -541,1818C-541,1827.93 -532.934,1836 -523,1836C-513.066,1836 -505,1827.93 -505,1818C-505,1808.07 -513.066,1800 -523,1800Z" style="fill:rgb(229,218,218);"/>
                    </g>
                    <g transform="matrix(6.21874,0,0,5.00027,3080.44,5837.35)">
                        <circle cx="-523" cy="1818" r="18" style="fill:rgb(250,248,248);"/>
                        <path d="M-523,1798.45C-512.212,1798.45 -503.453,1807.21 -503.453,1818C-503.453,1828.79 -512.212,1837.55 -523,1837.55C-533.788,1837.55 -542.547,1828.79 -542.547,1818C-542.547,1807.21 -533.788,1798.45 -523,1798.45ZM-523,1800C-532.934,1800 -541,1808.07 -541,1818C-541,1827.93 -532.934,1836 -523,1836C-513.066,1836 -505,1827.93 -505,1818C-505,1808.07 -513.066,1800 -523,1800Z" style="fill:rgb(229,218,218);"/>
                    </g>
                    <g transform="matrix(6.21874,0,0,5.00027,1067.46,5451.59)">
                        <circle cx="-523" cy="1818" r="18" style="fill:rgb(250,248,248);"/>
                        <path d="M-523,1798.45C-512.212,1798.45 -503.453,1807.21 -503.453,1818C-503.453,1828.79 -512.212,1837.55 -523,1837.55C-533.788,1837.55 -542.547,1828.79 -542.547,1818C-542.547,1807.21 -533.788,1798.45 -523,1798.45ZM-523,1800C-532.934,1800 -541,1808.07 -541,1818C-541,1827.93 -532.934,1836 -523,1836C-513.066,1836 -505,1827.93 -505,1818C-505,1808.07 -513.066,1800 -523,1800Z" style="fill:rgb(229,218,218);"/>
                    </g>
                    <g transform="matrix(6.21874,0,0,5.00027,2413.49,5460.17)">
                        <circle cx="-523" cy="1818" r="18" style="fill:rgb(250,248,248);"/>
                        <path d="M-523,1798.45C-512.212,1798.45 -503.453,1807.21 -503.453,1818C-503.453,1828.79 -512.212,1837.55 -523,1837.55C-533.788,1837.55 -542.547,1828.79 -542.547,1818C-542.547,1807.21 -533.788,1798.45 -523,1798.45ZM-523,1800C-532.934,1800 -541,1808.07 -541,1818C-541,1827.93 -532.934,1836 -523,1836C-513.066,1836 -505,1827.93 -505,1818C-505,1808.07 -513.066,1800 -523,1800Z" style="fill:rgb(229,218,218);"/>
                    </g>
                    <g transform="matrix(6.21874,0,0,5.00027,2661.82,5990.96)">
                        <circle cx="-523" cy="1818" r="18" style="fill:rgb(250,248,248);"/>
                        <path d="M-523,1798.45C-512.212,1798.45 -503.453,1807.21 -503.453,1818C-503.453,1828.79 -512.212,1837.55 -523,1837.55C-533.788,1837.55 -542.547,1828.79 -542.547,1818C-542.547,1807.21 -533.788,1798.45 -523,1798.45ZM-523,1800C-532.934,1800 -541,1808.07 -541,1818C-541,1827.93 -532.934,1836 -523,1836C-513.066,1836 -505,1827.93 -505,1818C-505,1808.07 -513.066,1800 -523,1800Z" style="fill:rgb(229,218,218);"/>
                    </g>
                    <g transform="matrix(6.21874,0,0,5.00027,698.209,6999.14)">
                        <circle cx="-523" cy="1818" r="18" style="fill:rgb(250,248,248);"/>
                        <path d="M-523,1798.45C-512.212,1798.45 -503.453,1807.21 -503.453,1818C-503.453,1828.79 -512.212,1837.55 -523,1837.55C-533.788,1837.55 -542.547,1828.79 -542.547,1818C-542.547,1807.21 -533.788,1798.45 -523,1798.45ZM-523,1800C-532.934,1800 -541,1808.07 -541,1818C-541,1827.93 -532.934,1836 -523,1836C-513.066,1836 -505,1827.93 -505,1818C-505,1808.07 -513.066,1800 -523,1800Z" style="fill:rgb(229,218,218);"/>
                    </g>
                    <g transform="matrix(6.21874,0,0,5.00027,128.085,7224.13)">
                        <circle cx="-523" cy="1818" r="18" style="fill:rgb(250,248,248);"/>
                        <path d="M-523,1798.45C-512.212,1798.45 -503.453,1807.21 -503.453,1818C-503.453,1828.79 -512.212,1837.55 -523,1837.55C-533.788,1837.55 -542.547,1828.79 -542.547,1818C-542.547,1807.21 -533.788,1798.45 -523,1798.45ZM-523,1800C-532.934,1800 -541,1808.07 -541,1818C-541,1827.93 -532.934,1836 -523,1836C-513.066,1836 -505,1827.93 -505,1818C-505,1808.07 -513.066,1800 -523,1800Z" style="fill:rgb(229,218,218);"/>
                    </g>
                    <g transform="matrix(6.21874,0,0,5.00027,886.983,7305.73)">
                        <circle cx="-523" cy="1818" r="18" style="fill:rgb(250,248,248);"/>
                        <path d="M-523,1798.45C-512.212,1798.45 -503.453,1807.21 -503.453,1818C-503.453,1828.79 -512.212,1837.55 -523,1837.55C-533.788,1837.55 -542.547,1828.79 -542.547,1818C-542.547,1807.21 -533.788,1798.45 -523,1798.45ZM-523,1800C-532.934,1800 -541,1808.07 -541,1818C-541,1827.93 -532.934,1836 -523,1836C-513.066,1836 -505,1827.93 -505,1818C-505,1808.07 -513.066,1800 -523,1800Z" style="fill:rgb(229,218,218);"/>
                    </g>
                    <g transform="matrix(5.11047,0,0,4.10915,-4941.98,14261.3)">
                        <path d="M329.241,125.451L560.257,125.451L560.257,172.174L379.079,172.174L379.079,287.422L547.798,287.422L547.798,334.144L379.079,334.144L379.079,493L329.241,493L329.241,125.451Z" style="fill:rgb(0,38,66);fill-rule:nonzero;"/>
                        <g transform="matrix(1,0,0,1,-748.637,0)">
                            <path d="M1347.79,125.451L1470.3,125.451L1554.92,365.292L1555.96,365.292L1641.1,125.451L1763.1,125.451L1763.1,493L1682.11,493L1682.11,211.109L1681.07,211.109L1584.51,493L1522.74,493L1429.81,211.109L1428.77,211.109L1428.77,493L1347.79,493L1347.79,125.451Z" style="fill:rgb(203,34,34);fill-rule:nonzero;"/>
                        </g>
                    </g>
                </g>
            </g>
        </g>
    </g>
</svg>
