<?xml version="1.0" encoding="UTF-8" standalone="no"?>
<!DOCTYPE svg PUBLIC "-//W3C//DTD SVG 1.1//EN" "http://www.w3.org/Graphics/SVG/1.1/DTD/svg11.dtd">
<svg width="100%" height="100%" viewBox="0 0 520 501" version="1.1" xmlns="http://www.w3.org/2000/svg" xmlns:xlink="http://www.w3.org/1999/xlink" xml:space="preserve" xmlns:serif="http://www.serif.com/" style="fill-rule:evenodd;clip-rule:evenodd;stroke-linecap:round;stroke-linejoin:round;stroke-miterlimit:1.5;">
    <g transform="matrix(1,0,0,1,-26198,-27942)">
        <g id="Placeholder" transform="matrix(0.0444416,0,0,0.103835,25033.7,26195.1)">
            <rect x="26198.6" y="16828.4" width="11694.5" height="4815.34" style="fill:rgb(229,149,0);"/>
            <clipPath id="_clip1">
                <rect x="26198.6" y="16828.4" width="11694.5" height="4815.34"/>
            </clipPath>
            <g clip-path="url(#_clip1)">
                <g transform="matrix(5.5247,-0.955154,2.19782,2.32873,24976.6,16739.6)">
                    <path d="M-130.344,1817.3L461.45,1802.8L840.5,1711" style="fill:none;stroke:rgb(229,218,218);stroke-width:3.34px;"/>
                </g>
                <g transform="matrix(-5.5247,0.955154,2.19782,2.32873,34263.7,15134)">
                    <path d="M603.545,3160.87L351.725,3118.87L-77.2,3068.23L-164.714,2484.26L82.4,2075.63L366.609,1760.94L840.5,1711" style="fill:none;stroke:rgb(229,218,218);stroke-width:3.34px;"/>
                </g>
                <g transform="matrix(5.5247,-0.955154,2.19782,2.32873,24976.6,16739.6)">
                    <path d="M840.5,1711L840.5,2569.43L604.104,3099.09" style="fill:none;stroke:rgb(229,218,218);stroke-width:3.34px;"/>
                </g>
                <g transform="matrix(-5.51089,0.952766,2.22608,2.35867,14596.9,-6773.23)">
                    <path d="M-7.733,11677.1L433.708,11750.7L1000,11761.2" style="fill:none;stroke:rgb(229,218,218);stroke-width:3.32px;"/>
                </g>
                <g transform="matrix(5.51089,-0.952766,2.22608,2.35867,3575.15,-4867.7)">
                    <path d="M-55.121,11405L-7.733,11677.1L480,11383.6L1000,11193.6" style="fill:none;stroke:rgb(229,218,218);stroke-width:3.32px;"/>
                </g>
                <g transform="matrix(-5.51089,0.952766,2.22608,2.35867,14596.9,-6773.23)">
                    <path d="M-7.733,11677.1L480,11383.6L1000,11193.6" style="fill:none;stroke:rgb(229,218,218);stroke-width:3.32px;"/>
                </g>
                <g transform="matrix(5.51089,-0.952766,2.22608,2.35867,3575.15,-4867.7)">
                    <path d="M620,11004.3L1000,11193.6" style="fill:none;stroke:rgb(229,218,218);stroke-width:3.32px;"/>
                </g>
                <g transform="matrix(-5.51089,0.952766,2.22608,2.35867,14596.9,-6773.23)">
                    <path d="M524.921,10962.9L1000,11193.6" style="fill:none;stroke:rgb(229,218,218);stroke-width:3.32px;"/>
                </g>
                <g transform="matrix(5.51089,-0.952766,2.22608,2.35867,3575.15,-4867.7)">
                    <path d="M34.593,11021.8L480,11383.6L1000,11761.2" style="fill:none;stroke:rgb(229,218,218);stroke-width:3.32px;"/>
                </g>
                <g transform="matrix(-5.51089,0.952766,2.22608,2.35867,14596.9,-6773.23)">
                    <path d="M127.109,10649.5L240,11273.6L480,11383.6L1000,11761.2" style="fill:none;stroke:rgb(229,218,218);stroke-width:3.32px;"/>
                </g>
                <g transform="matrix(5.51089,-0.952766,2.22608,2.35867,3575.15,-4867.7)">
                    <path d="M412.687,12091.9L430.467,11733.6L480,11383.6L620,11004.3L627.193,10816" style="fill:none;stroke:rgb(229,218,218);stroke-width:3.32px;"/>
                </g>
                <g transform="matrix(-5.51089,0.952766,2.22608,2.35867,14596.9,-6773.23)">
                    <path d="M762.506,12345L412.687,12091.9L430.467,11733.6L480,11383.6L524.921,10962.9" style="fill:none;stroke:rgb(229,218,218);stroke-width:3.32px;"/>
                </g>
                <g transform="matrix(-1.90627,2.54617,-5.94897,-0.815888,168257,12404.6)">
                    <g transform="matrix(0.953813,0,0,0.939351,9491.78,18650.1)">
                        <path d="M840.5,3129L351.725,3118.87L-63.45,3051.7L-164.714,2484.26L53.498,1984.04" style="fill:none;stroke:rgb(229,218,218);stroke-width:3.34px;"/>
                    </g>
                    <g transform="matrix(0.953813,0,0,0.939351,9491.78,18650.1)">
                        <path d="M59.711,1982.02L461.45,1802.8L840.5,1711" style="fill:none;stroke:rgb(229,218,218);stroke-width:3.34px;"/>
                    </g>
                    <g transform="matrix(-0.953813,0,0,0.939351,11095.1,18650.1)">
                        <path d="M840.5,3129L358.161,3113.32L-77.2,3068.23L-164.714,2484.26L82.4,2075.63L461.45,1802.8L840.5,1711" style="fill:none;stroke:rgb(229,218,218);stroke-width:3.34px;"/>
                    </g>
                    <g transform="matrix(0.953813,0,0,0.939351,9491.78,18650.1)">
                        <path d="M840.5,1711L840.5,3129L1086.23,3448.16" style="fill:none;stroke:rgb(229,218,218);stroke-width:3.34px;"/>
                    </g>
                    <g transform="matrix(0.951429,0,0,0.951429,9342.03,9873.78)">
                        <path d="M-7.733,11677.1L480,11383.6L1000,11193.6" style="fill:none;stroke:rgb(229,218,218);stroke-width:3.32px;"/>
                    </g>
                    <g transform="matrix(-0.951429,0,0,0.951429,11244.9,9873.78)">
                        <path d="M-7.733,11677.1L480,11383.6L1000,11193.6" style="fill:none;stroke:rgb(229,218,218);stroke-width:3.32px;"/>
                    </g>
                    <g transform="matrix(0.951429,0,0,0.951429,9342.03,9873.78)">
                        <path d="M620,11004.3L1000,11193.6" style="fill:none;stroke:rgb(229,218,218);stroke-width:3.32px;"/>
                    </g>
                    <g transform="matrix(0.951429,0,0,0.951429,9342.03,9873.78)">
                        <path d="M211.025,11183.2C291.025,11219.9 480,11383.6 480,11383.6L1000,11761.2" style="fill:none;stroke:rgb(229,218,218);stroke-width:3.32px;"/>
                    </g>
                    <g transform="matrix(0.951429,0,0,0.951429,9342.03,9873.78)">
                        <path d="M823.31,12649.3L520,12304.5L412.687,12091.9L430.467,11733.6L480,11383.6L620,11004.3" style="fill:none;stroke:rgb(229,218,218);stroke-width:3.32px;"/>
                    </g>
                </g>
                <g transform="matrix(-6.19355,-0.348781,0.814904,-2.65085,78318,77310.2)">
                    <g transform="matrix(0.953813,0,0,0.939351,9491.78,18650.1)">
                        <path d="M840.5,3129L360.738,3109.59L-77.2,3068.23L-164.714,2484.26L24.971,1995" style="fill:none;stroke:rgb(229,218,218);stroke-width:2.85px;"/>
                    </g>
                    <g transform="matrix(0.953813,0,0,0.939351,9491.78,18650.1)">
                        <path d="M461.45,1802.8L840.5,1711L1252.3,1218.23" style="fill:none;stroke:rgb(229,218,218);stroke-width:2.85px;"/>
                    </g>
                    <g transform="matrix(-0.953813,0,0,0.939351,11095.1,18650.1)">
                        <path d="M840.5,3129L351.725,3118.87L-77.2,3068.23L-164.714,2484.26L-26.162,1984.36" style="fill:none;stroke:rgb(229,218,218);stroke-width:2.85px;"/>
                    </g>
                    <g transform="matrix(-0.953813,0,0,0.939351,11095.1,18650.1)">
                        <path d="M327.552,1663.03L840.5,1711" style="fill:none;stroke:rgb(229,218,218);stroke-width:2.85px;"/>
                    </g>
                    <g transform="matrix(0.953813,0,0,0.939351,9491.78,18650.1)">
                        <path d="M840.5,1711L840.5,3129" style="fill:none;stroke:rgb(229,218,218);stroke-width:2.85px;"/>
                    </g>
                    <g transform="matrix(0.951429,0,0,0.951429,9342.03,9873.78)">
                        <path d="M1000,12313.6L412.687,12091.9L-7.733,11677.1" style="fill:none;stroke:rgb(229,218,218);stroke-width:2.84px;"/>
                    </g>
                    <g transform="matrix(-0.951429,0,0,0.951429,11244.9,9873.78)">
                        <path d="M1000,12313.6L412.687,12091.9L-7.733,11677.1" style="fill:none;stroke:rgb(229,218,218);stroke-width:2.84px;"/>
                    </g>
                    <g transform="matrix(0.951429,0,0,0.951429,9342.03,9873.78)">
                        <path d="M-7.733,11677.1L433.708,11750.7L1000,11761.2" style="fill:none;stroke:rgb(229,218,218);stroke-width:2.84px;"/>
                    </g>
                    <g transform="matrix(-0.951429,0,0,0.951429,11244.9,9873.78)">
                        <path d="M-7.733,11677.1L433.708,11750.7L1000,11761.2" style="fill:none;stroke:rgb(229,218,218);stroke-width:2.84px;"/>
                    </g>
                    <g transform="matrix(0.951429,0,0,0.951429,9342.03,9873.78)">
                        <path d="M-7.733,11677.1L480,11383.6L1000,11193.6" style="fill:none;stroke:rgb(229,218,218);stroke-width:2.84px;"/>
                    </g>
                    <g transform="matrix(-0.951429,0,0,0.951429,11244.9,9873.78)">
                        <path d="M-7.733,11677.1L480,11383.6L1000,11193.6" style="fill:none;stroke:rgb(229,218,218);stroke-width:2.84px;"/>
                    </g>
                    <g transform="matrix(0.951429,0,0,0.951429,9342.03,9873.78)">
                        <path d="M620,11004.3L1000,11193.6" style="fill:none;stroke:rgb(229,218,218);stroke-width:2.84px;"/>
                    </g>
                    <g transform="matrix(-0.951429,0,0,0.951429,11244.9,9873.78)">
                        <path d="M483.338,10867.4L1000,11193.6" style="fill:none;stroke:rgb(229,218,218);stroke-width:2.84px;"/>
                    </g>
                    <g transform="matrix(0.951429,0,0,0.951429,9342.03,9873.78)">
                        <path d="M182.427,11194L480,11383.6L1000,11761.2" style="fill:none;stroke:rgb(229,218,218);stroke-width:2.84px;"/>
                    </g>
                    <g transform="matrix(-0.951429,0,0,0.951429,11244.9,9873.78)">
                        <path d="M131.166,11183.5L480,11383.6L1000,11761.2" style="fill:none;stroke:rgb(229,218,218);stroke-width:2.84px;"/>
                    </g>
                    <g transform="matrix(0.951429,0,0,0.951429,9342.03,9873.78)">
                        <path d="M80,12253.6L412.687,12091.9L1000,11761.2" style="fill:none;stroke:rgb(229,218,218);stroke-width:2.84px;"/>
                    </g>
                    <g transform="matrix(-0.951429,0,0,0.951429,11244.9,9873.78)">
                        <path d="M80,12253.6L412.687,12091.9L1000,11761.2" style="fill:none;stroke:rgb(229,218,218);stroke-width:2.84px;"/>
                    </g>
                    <g transform="matrix(0.951429,0,0,0.951429,9342.03,9873.78)">
                        <path d="M519.102,12294.5L412.687,12091.9L430.467,11733.6L480,11383.6L620,11004.3" style="fill:none;stroke:rgb(229,218,218);stroke-width:2.84px;"/>
                    </g>
                    <g transform="matrix(-0.951429,0,0,0.951429,11244.9,9873.78)">
                        <path d="M520,12304.5L412.687,12091.9L430.467,11733.6L480,11383.6L483.338,10867.4" style="fill:none;stroke:rgb(229,218,218);stroke-width:2.84px;"/>
                    </g>
                </g>
                <g transform="matrix(-20.6685,-1.16392,2.71942,-8.84619,18756.4,34472.6)">
                    <circle cx="-523" cy="1818" r="18" style="fill:rgb(229,149,0);"/>
                    <path d="M-523,1799.08C-512.559,1799.08 -504.083,1807.56 -504.083,1818C-504.083,1828.44 -512.559,1836.92 -523,1836.92C-533.441,1836.92 -541.917,1828.44 -541.917,1818C-541.917,1807.56 -533.441,1799.08 -523,1799.08ZM-523,1800C-532.934,1800 -541,1808.07 -541,1818C-541,1827.93 -532.934,1836 -523,1836C-513.066,1836 -505,1827.93 -505,1818C-505,1808.07 -513.066,1800 -523,1800Z" style="fill:rgb(229,218,218);"/>
                </g>
                <g transform="matrix(-20.6685,-1.16392,2.71942,-8.84619,19304.7,33586.6)">
                    <circle cx="-523" cy="1818" r="18" style="fill:rgb(229,149,0);"/>
                    <path d="M-523,1799.08C-512.559,1799.08 -504.083,1807.56 -504.083,1818C-504.083,1828.44 -512.559,1836.92 -523,1836.92C-533.441,1836.92 -541.917,1828.44 -541.917,1818C-541.917,1807.56 -533.441,1799.08 -523,1799.08ZM-523,1800C-532.934,1800 -541,1808.07 -541,1818C-541,1827.93 -532.934,1836 -523,1836C-513.066,1836 -505,1827.93 -505,1818C-505,1808.07 -513.066,1800 -523,1800Z" style="fill:rgb(229,218,218);"/>
                </g>
                <g transform="matrix(-20.6685,-1.16392,2.71942,-8.84619,12622.5,33209.9)">
                    <circle cx="-523" cy="1818" r="18" style="fill:rgb(229,149,0);"/>
                    <path d="M-523,1799.08C-512.559,1799.08 -504.083,1807.56 -504.083,1818C-504.083,1828.44 -512.559,1836.92 -523,1836.92C-533.441,1836.92 -541.917,1828.44 -541.917,1818C-541.917,1807.56 -533.441,1799.08 -523,1799.08ZM-523,1800C-532.934,1800 -541,1808.07 -541,1818C-541,1827.93 -532.934,1836 -523,1836C-513.066,1836 -505,1827.93 -505,1818C-505,1808.07 -513.066,1800 -523,1800Z" style="fill:rgb(229,218,218);"/>
                </g>
                <g transform="matrix(-20.6685,-1.16392,2.71942,-8.84619,15971.7,33371.9)">
                    <circle cx="-523" cy="1818" r="18" style="fill:rgb(0,38,66);"/>
                    <path d="M-523,1799.08C-512.559,1799.08 -504.083,1807.56 -504.083,1818C-504.083,1828.44 -512.559,1836.92 -523,1836.92C-533.441,1836.92 -541.917,1828.44 -541.917,1818C-541.917,1807.56 -533.441,1799.08 -523,1799.08ZM-523,1800C-532.934,1800 -541,1808.07 -541,1818C-541,1827.93 -532.934,1836 -523,1836C-513.066,1836 -505,1827.93 -505,1818C-505,1808.07 -513.066,1800 -523,1800Z" style="fill:rgb(229,218,218);"/>
                </g>
                <g transform="matrix(-20.6685,-1.16392,2.71942,-8.84619,15536.2,34788.4)">
                    <circle cx="-523" cy="1818" r="18" style="fill:rgb(203,34,34);"/>
                    <path d="M-523,1799.08C-512.559,1799.08 -504.083,1807.56 -504.083,1818C-504.083,1828.44 -512.559,1836.92 -523,1836.92C-533.441,1836.92 -541.917,1828.44 -541.917,1818C-541.917,1807.56 -533.441,1799.08 -523,1799.08ZM-523,1800C-532.934,1800 -541,1808.07 -541,1818C-541,1827.93 -532.934,1836 -523,1836C-513.066,1836 -505,1827.93 -505,1818C-505,1808.07 -513.066,1800 -523,1800Z" style="fill:rgb(229,218,218);"/>
                </g>
                <g transform="matrix(-20.6685,-1.16392,2.71942,-8.84619,21830.1,33902.3)">
                    <circle cx="-523" cy="1818" r="18" style="fill:rgb(229,149,0);"/>
                    <path d="M-523,1799.08C-512.559,1799.08 -504.083,1807.56 -504.083,1818C-504.083,1828.44 -512.559,1836.92 -523,1836.92C-533.441,1836.92 -541.917,1828.44 -541.917,1818C-541.917,1807.56 -533.441,1799.08 -523,1799.08ZM-523,1800C-532.934,1800 -541,1808.07 -541,1818C-541,1827.93 -532.934,1836 -523,1836C-513.066,1836 -505,1827.93 -505,1818C-505,1808.07 -513.066,1800 -523,1800Z" style="fill:rgb(229,218,218);"/>
                </g>
                <g transform="matrix(-20.6685,-1.16392,2.71942,-8.84619,15318.6,35487.1)">
                    <circle cx="-523" cy="1818" r="18" style="fill:rgb(229,149,0);"/>
                    <path d="M-523,1799.08C-512.559,1799.08 -504.083,1807.56 -504.083,1818C-504.083,1828.44 -512.559,1836.92 -523,1836.92C-533.441,1836.92 -541.917,1828.44 -541.917,1818C-541.917,1807.56 -533.441,1799.08 -523,1799.08ZM-523,1800C-532.934,1800 -541,1808.07 -541,1818C-541,1827.93 -532.934,1836 -523,1836C-513.066,1836 -505,1827.93 -505,1818C-505,1808.07 -513.066,1800 -523,1800Z" style="fill:rgb(229,218,218);"/>
                </g>
                <g transform="matrix(-20.6685,-1.16392,2.71942,-8.84619,19255,32165.7)">
                    <circle cx="-523" cy="1818" r="18" style="fill:rgb(229,149,0);"/>
                    <path d="M-523,1799.08C-512.559,1799.08 -504.083,1807.56 -504.083,1818C-504.083,1828.44 -512.559,1836.92 -523,1836.92C-533.441,1836.92 -541.917,1828.44 -541.917,1818C-541.917,1807.56 -533.441,1799.08 -523,1799.08ZM-523,1800C-532.934,1800 -541,1808.07 -541,1818C-541,1827.93 -532.934,1836 -523,1836C-513.066,1836 -505,1827.93 -505,1818C-505,1808.07 -513.066,1800 -523,1800Z" style="fill:rgb(229,218,218);"/>
                </g>
                <g transform="matrix(-20.6685,-1.16392,2.71942,-8.84619,12633.4,34150.1)">
                    <circle cx="-523" cy="1818" r="18" style="fill:rgb(229,149,0);"/>
                    <path d="M-523,1799.08C-512.559,1799.08 -504.083,1807.56 -504.083,1818C-504.083,1828.44 -512.559,1836.92 -523,1836.92C-533.441,1836.92 -541.917,1828.44 -541.917,1818C-541.917,1807.56 -533.441,1799.08 -523,1799.08ZM-523,1800C-532.934,1800 -541,1808.07 -541,1818C-541,1827.93 -532.934,1836 -523,1836C-513.066,1836 -505,1827.93 -505,1818C-505,1808.07 -513.066,1800 -523,1800Z" style="fill:rgb(229,218,218);"/>
                </g>
                <g transform="matrix(-20.6685,-1.16392,2.71942,-8.84619,12773.4,32350.4)">
                    <circle cx="-523" cy="1818" r="18" style="fill:rgb(229,149,0);"/>
                    <path d="M-523,1799.08C-512.559,1799.08 -504.083,1807.56 -504.083,1818C-504.083,1828.44 -512.559,1836.92 -523,1836.92C-533.441,1836.92 -541.917,1828.44 -541.917,1818C-541.917,1807.56 -533.441,1799.08 -523,1799.08ZM-523,1800C-532.934,1800 -541,1808.07 -541,1818C-541,1827.93 -532.934,1836 -523,1836C-513.066,1836 -505,1827.93 -505,1818C-505,1808.07 -513.066,1800 -523,1800Z" style="fill:rgb(229,218,218);"/>
                </g>
                <g transform="matrix(-20.6685,-1.16392,2.71942,-8.84619,19707.9,32734)">
                    <circle cx="-523" cy="1818" r="18" style="fill:rgb(229,149,0);"/>
                    <path d="M-523,1799.08C-512.559,1799.08 -504.083,1807.56 -504.083,1818C-504.083,1828.44 -512.559,1836.92 -523,1836.92C-533.441,1836.92 -541.917,1828.44 -541.917,1818C-541.917,1807.56 -533.441,1799.08 -523,1799.08ZM-523,1800C-532.934,1800 -541,1808.07 -541,1818C-541,1827.93 -532.934,1836 -523,1836C-513.066,1836 -505,1827.93 -505,1818C-505,1808.07 -513.066,1800 -523,1800Z" style="fill:rgb(229,218,218);"/>
                </g>
                <g transform="matrix(-20.6685,-1.16392,2.71942,-8.84619,21725.1,32442.7)">
                    <circle cx="-523" cy="1818" r="18" style="fill:rgb(229,149,0);"/>
                    <path d="M-523,1799.08C-512.559,1799.08 -504.083,1807.56 -504.083,1818C-504.083,1828.44 -512.559,1836.92 -523,1836.92C-533.441,1836.92 -541.917,1828.44 -541.917,1818C-541.917,1807.56 -533.441,1799.08 -523,1799.08ZM-523,1800C-532.934,1800 -541,1808.07 -541,1818C-541,1827.93 -532.934,1836 -523,1836C-513.066,1836 -505,1827.93 -505,1818C-505,1808.07 -513.066,1800 -523,1800Z" style="fill:rgb(229,218,218);"/>
                </g>
                <g transform="matrix(19.3293,-3.3418,7.80789,8.27297,27478.6,4746.92)">
                    <circle cx="-523" cy="1818" r="18" style="fill:rgb(229,149,0);"/>
                    <path d="M-523,1799.08C-512.559,1799.08 -504.083,1807.56 -504.083,1818C-504.083,1828.44 -512.559,1836.92 -523,1836.92C-533.441,1836.92 -541.917,1828.44 -541.917,1818C-541.917,1807.56 -533.441,1799.08 -523,1799.08ZM-523,1800C-532.934,1800 -541,1808.07 -541,1818C-541,1827.93 -532.934,1836 -523,1836C-513.066,1836 -505,1827.93 -505,1818C-505,1808.07 -513.066,1800 -523,1800Z" style="fill:rgb(229,218,218);"/>
                </g>
                <g transform="matrix(19.3293,-3.3418,7.80789,8.27297,29918.3,3793.54)">
                    <circle cx="-523" cy="1818" r="18" style="fill:rgb(0,38,66);"/>
                    <path d="M-523,1799.08C-512.559,1799.08 -504.083,1807.56 -504.083,1818C-504.083,1828.44 -512.559,1836.92 -523,1836.92C-533.441,1836.92 -541.917,1828.44 -541.917,1818C-541.917,1807.56 -533.441,1799.08 -523,1799.08ZM-523,1800C-532.934,1800 -541,1808.07 -541,1818C-541,1827.93 -532.934,1836 -523,1836C-513.066,1836 -505,1827.93 -505,1818C-505,1808.07 -513.066,1800 -523,1800Z" style="fill:rgb(229,218,218);"/>
                </g>
                <g transform="matrix(19.3293,-3.3418,7.80789,8.27297,27381.3,3701.86)">
                    <circle cx="-523" cy="1818" r="18" style="fill:rgb(229,149,0);"/>
                    <path d="M-523,1799.08C-512.559,1799.08 -504.083,1807.56 -504.083,1818C-504.083,1828.44 -512.559,1836.92 -523,1836.92C-533.441,1836.92 -541.917,1828.44 -541.917,1818C-541.917,1807.56 -533.441,1799.08 -523,1799.08ZM-523,1800C-532.934,1800 -541,1808.07 -541,1818C-541,1827.93 -532.934,1836 -523,1836C-513.066,1836 -505,1827.93 -505,1818C-505,1808.07 -513.066,1800 -523,1800Z" style="fill:rgb(229,218,218);"/>
                </g>
                <g transform="matrix(19.3293,-3.3418,7.80789,8.27297,32022.9,2780.25)">
                    <circle cx="-523" cy="1818" r="18" style="fill:rgb(229,149,0);"/>
                    <path d="M-523,1799.08C-512.559,1799.08 -504.083,1807.56 -504.083,1818C-504.083,1828.44 -512.559,1836.92 -523,1836.92C-533.441,1836.92 -541.917,1828.44 -541.917,1818C-541.917,1807.56 -533.441,1799.08 -523,1799.08ZM-523,1800C-532.934,1800 -541,1808.07 -541,1818C-541,1827.93 -532.934,1836 -523,1836C-513.066,1836 -505,1827.93 -505,1818C-505,1808.07 -513.066,1800 -523,1800Z" style="fill:rgb(229,218,218);"/>
                </g>
                <g transform="matrix(19.3293,-3.3418,7.80789,8.27297,33179.2,3737.47)">
                    <circle cx="-523" cy="1818" r="18" style="fill:rgb(229,149,0);"/>
                    <path d="M-523,1799.08C-512.559,1799.08 -504.083,1807.56 -504.083,1818C-504.083,1828.44 -512.559,1836.92 -523,1836.92C-533.441,1836.92 -541.917,1828.44 -541.917,1818C-541.917,1807.56 -533.441,1799.08 -523,1799.08ZM-523,1800C-532.934,1800 -541,1808.07 -541,1818C-541,1827.93 -532.934,1836 -523,1836C-513.066,1836 -505,1827.93 -505,1818C-505,1808.07 -513.066,1800 -523,1800Z" style="fill:rgb(229,218,218);"/>
                </g>
                <g transform="matrix(-6.36143,8.49686,-19.8524,-2.72271,60779.9,29360.4)">
                    <circle cx="-523" cy="1818" r="18" style="fill:rgb(229,149,0);"/>
                    <path d="M-523,1799.08C-512.559,1799.08 -504.083,1807.56 -504.083,1818C-504.083,1828.44 -512.559,1836.92 -523,1836.92C-533.441,1836.92 -541.917,1828.44 -541.917,1818C-541.917,1807.56 -533.441,1799.08 -523,1799.08ZM-523,1800C-532.934,1800 -541,1808.07 -541,1818C-541,1827.93 -532.934,1836 -523,1836C-513.066,1836 -505,1827.93 -505,1818C-505,1808.07 -513.066,1800 -523,1800Z" style="fill:rgb(229,218,218);"/>
                </g>
                <g transform="matrix(-20.6685,-1.16392,2.71942,-8.84619,17639,35402.7)">
                    <circle cx="-523" cy="1818" r="18" style="fill:rgb(203,34,34);"/>
                    <path d="M-523,1799.08C-512.559,1799.08 -504.083,1807.56 -504.083,1818C-504.083,1828.44 -512.559,1836.92 -523,1836.92C-533.441,1836.92 -541.917,1828.44 -541.917,1818C-541.917,1807.56 -533.441,1799.08 -523,1799.08ZM-523,1800C-532.934,1800 -541,1808.07 -541,1818C-541,1827.93 -532.934,1836 -523,1836C-513.066,1836 -505,1827.93 -505,1818C-505,1808.07 -513.066,1800 -523,1800Z" style="fill:rgb(229,218,218);"/>
                </g>
                <g transform="matrix(-6.36143,8.49686,-19.8524,-2.72271,59231.3,29852.1)">
                    <circle cx="-523" cy="1818" r="18" style="fill:rgb(229,149,0);"/>
                    <path d="M-523,1799.08C-512.559,1799.08 -504.083,1807.56 -504.083,1818C-504.083,1828.44 -512.559,1836.92 -523,1836.92C-533.441,1836.92 -541.917,1828.44 -541.917,1818C-541.917,1807.56 -533.441,1799.08 -523,1799.08ZM-523,1800C-532.934,1800 -541,1808.07 -541,1818C-541,1827.93 -532.934,1836 -523,1836C-513.066,1836 -505,1827.93 -505,1818C-505,1808.07 -513.066,1800 -523,1800Z" style="fill:rgb(229,218,218);"/>
                </g>
                <g transform="matrix(-6.36143,8.49686,-19.8524,-2.72271,58942.2,28448.7)">
                    <circle cx="-523" cy="1818" r="18" style="fill:rgb(229,149,0);"/>
                    <path d="M-523,1799.08C-512.559,1799.08 -504.083,1807.56 -504.083,1818C-504.083,1828.44 -512.559,1836.92 -523,1836.92C-533.441,1836.92 -541.917,1828.44 -541.917,1818C-541.917,1807.56 -533.441,1799.08 -523,1799.08ZM-523,1800C-532.934,1800 -541,1808.07 -541,1818C-541,1827.93 -532.934,1836 -523,1836C-513.066,1836 -505,1827.93 -505,1818C-505,1808.07 -513.066,1800 -523,1800Z" style="fill:rgb(229,218,218);"/>
                </g>
                <g transform="matrix(19.3293,-3.3418,7.80789,8.27297,24157,4301.27)">
                    <circle cx="-523" cy="1818" r="18" style="fill:rgb(229,149,0);"/>
                    <path d="M-523,1799.08C-512.559,1799.08 -504.083,1807.56 -504.083,1818C-504.083,1828.44 -512.559,1836.92 -523,1836.92C-533.441,1836.92 -541.917,1828.44 -541.917,1818C-541.917,1807.56 -533.441,1799.08 -523,1799.08ZM-523,1800C-532.934,1800 -541,1808.07 -541,1818C-541,1827.93 -532.934,1836 -523,1836C-513.066,1836 -505,1827.93 -505,1818C-505,1808.07 -513.066,1800 -523,1800Z" style="fill:rgb(229,218,218);"/>
                </g>
            </g>
        </g>
    </g>
</svg>
