<?xml version="1.0" encoding="UTF-8" standalone="no"?>
<!DOCTYPE svg PUBLIC "-//W3C//DTD SVG 1.1//EN" "http://www.w3.org/Graphics/SVG/1.1/DTD/svg11.dtd">
<svg width="100%" height="100%" viewBox="0 0 7644 4533" version="1.1" xmlns="http://www.w3.org/2000/svg" xmlns:xlink="http://www.w3.org/1999/xlink" xml:space="preserve" xmlns:serif="http://www.serif.com/" style="fill-rule:evenodd;clip-rule:evenodd;stroke-linecap:round;stroke-linejoin:round;stroke-miterlimit:1.5;">
    <g transform="matrix(1,0,0,1,-26198,-28207)">
        <g id="WallsBackgroundLight" transform="matrix(0.653604,0,0,0.941094,9074.46,12370.2)">
            <rect x="26198.6" y="16828.4" width="11694.5" height="4815.34" style="fill:rgb(229,218,218);"/>
            <clipPath id="_clip1">
                <rect x="26198.6" y="16828.4" width="11694.5" height="4815.34"/>
            </clipPath>
            <g clip-path="url(#_clip1)">
                <g transform="matrix(1.52998,0,0,1.06259,-13883.7,-13144.5)">
                    <path d="M32526.9,27993.9L32602.9,28600.5L33105.6,29692.3L32239,30664.5L32923.6,31911.6L32761.2,32910.9" style="fill:none;stroke:white;stroke-width:3px;"/>
                </g>
                <g transform="matrix(1.52998,0,0,1.06259,-13883.7,-13144.5)">
                    <path d="M27073.2,33011.3L26942.5,32155.9L27555.7,30099.1L26770.8,28589.1L27155.2,27822.4" style="fill:none;stroke:white;stroke-width:3px;"/>
                </g>
                <g transform="matrix(0.957108,2.67902,-3.85739,0.664726,34851.1,21216.8)">
                    <circle cx="-523" cy="1818" r="18" style="fill:rgb(229,218,218);"/>
                    <path d="M-523,1798.85C-512.428,1798.85 -503.845,1807.43 -503.845,1818C-503.845,1828.57 -512.428,1837.15 -523,1837.15C-533.572,1837.15 -542.155,1828.57 -542.155,1818C-542.155,1807.43 -533.572,1798.85 -523,1798.85ZM-523,1800C-532.934,1800 -541,1808.07 -541,1818C-541,1827.93 -532.934,1836 -523,1836C-513.066,1836 -505,1827.93 -505,1818C-505,1808.07 -513.066,1800 -523,1800Z" style="fill:white;"/>
                </g>
                <g transform="matrix(0.957108,2.67902,-3.85739,0.664726,35789.2,19031.2)">
                    <circle cx="-523" cy="1818" r="18" style="fill:rgb(229,218,218);"/>
                    <path d="M-523,1798.85C-512.428,1798.85 -503.845,1807.43 -503.845,1818C-503.845,1828.57 -512.428,1837.15 -523,1837.15C-533.572,1837.15 -542.155,1828.57 -542.155,1818C-542.155,1807.43 -533.572,1798.85 -523,1798.85ZM-523,1800C-532.934,1800 -541,1808.07 -541,1818C-541,1827.93 -532.934,1836 -523,1836C-513.066,1836 -505,1827.93 -505,1818C-505,1808.07 -513.066,1800 -523,1800Z" style="fill:white;"/>
                </g>
                <g transform="matrix(0.957108,2.67902,-3.85739,0.664726,34414,19341.5)">
                    <circle cx="-523" cy="1818" r="18" style="fill:rgb(229,218,218);"/>
                    <path d="M-523,1798.85C-512.428,1798.85 -503.845,1807.43 -503.845,1818C-503.845,1828.57 -512.428,1837.15 -523,1837.15C-533.572,1837.15 -542.155,1828.57 -542.155,1818C-542.155,1807.43 -533.572,1798.85 -523,1798.85ZM-523,1800C-532.934,1800 -541,1808.07 -541,1818C-541,1827.93 -532.934,1836 -523,1836C-513.066,1836 -505,1827.93 -505,1818C-505,1808.07 -513.066,1800 -523,1800Z" style="fill:white;"/>
                </g>
                <g transform="matrix(0.957108,2.67902,-3.85739,0.664726,42653.3,20896.3)">
                    <circle cx="-523" cy="1818" r="18" style="fill:rgb(229,218,218);"/>
                    <path d="M-523,1798.85C-512.428,1798.85 -503.845,1807.43 -503.845,1818C-503.845,1828.57 -512.428,1837.15 -523,1837.15C-533.572,1837.15 -542.155,1828.57 -542.155,1818C-542.155,1807.43 -533.572,1798.85 -523,1798.85ZM-523,1800C-532.934,1800 -541,1808.07 -541,1818C-541,1827.93 -532.934,1836 -523,1836C-513.066,1836 -505,1827.93 -505,1818C-505,1808.07 -513.066,1800 -523,1800Z" style="fill:white;"/>
                </g>
                <g transform="matrix(0.957108,2.67902,-3.85739,0.664726,42939.5,18252.3)">
                    <circle cx="-523" cy="1818" r="18" style="fill:rgb(229,218,218);"/>
                    <path d="M-523,1798.85C-512.428,1798.85 -503.845,1807.43 -503.845,1818C-503.845,1828.57 -512.428,1837.15 -523,1837.15C-533.572,1837.15 -542.155,1828.57 -542.155,1818C-542.155,1807.43 -533.572,1798.85 -523,1798.85ZM-523,1800C-532.934,1800 -541,1808.07 -541,1818C-541,1827.93 -532.934,1836 -523,1836C-513.066,1836 -505,1827.93 -505,1818C-505,1808.07 -513.066,1800 -523,1800Z" style="fill:white;"/>
                </g>
                <g transform="matrix(0.957108,2.67902,-3.85739,0.664726,36218.6,20602.4)">
                    <circle cx="-523" cy="1818" r="18" style="fill:rgb(229,218,218);"/>
                    <path d="M-523,1798.85C-512.428,1798.85 -503.845,1807.43 -503.845,1818C-503.845,1828.57 -512.428,1837.15 -523,1837.15C-533.572,1837.15 -542.155,1828.57 -542.155,1818C-542.155,1807.43 -533.572,1798.85 -523,1798.85ZM-523,1800C-532.934,1800 -541,1808.07 -541,1818C-541,1827.93 -532.934,1836 -523,1836C-513.066,1836 -505,1827.93 -505,1818C-505,1808.07 -513.066,1800 -523,1800Z" style="fill:white;"/>
                </g>
                <g transform="matrix(0.957108,2.67902,-3.85739,0.664726,36444.1,17394.9)">
                    <circle cx="-523" cy="1818" r="18" style="fill:rgb(229,218,218);"/>
                    <path d="M-523,1798.85C-512.428,1798.85 -503.845,1807.43 -503.845,1818C-503.845,1828.57 -512.428,1837.15 -523,1837.15C-533.572,1837.15 -542.155,1828.57 -542.155,1818C-542.155,1807.43 -533.572,1798.85 -523,1798.85ZM-523,1800C-532.934,1800 -541,1808.07 -541,1818C-541,1827.93 -532.934,1836 -523,1836C-513.066,1836 -505,1827.93 -505,1818C-505,1808.07 -513.066,1800 -523,1800Z" style="fill:white;"/>
                </g>
                <g transform="matrix(0.957108,2.67902,-3.85739,0.664726,34588.4,17426.7)">
                    <circle cx="-523" cy="1818" r="18" style="fill:rgb(229,218,218);"/>
                    <path d="M-523,1798.85C-512.428,1798.85 -503.845,1807.43 -503.845,1818C-503.845,1828.57 -512.428,1837.15 -523,1837.15C-533.572,1837.15 -542.155,1828.57 -542.155,1818C-542.155,1807.43 -533.572,1798.85 -523,1798.85ZM-523,1800C-532.934,1800 -541,1808.07 -541,1818C-541,1827.93 -532.934,1836 -523,1836C-513.066,1836 -505,1827.93 -505,1818C-505,1808.07 -513.066,1800 -523,1800Z" style="fill:white;"/>
                </g>
                <g transform="matrix(0.957108,2.67902,-3.85739,0.664726,44001.9,20957.1)">
                    <circle cx="-523" cy="1818" r="18" style="fill:rgb(229,218,218);"/>
                    <path d="M-523,1798.85C-512.428,1798.85 -503.845,1807.43 -503.845,1818C-503.845,1828.57 -512.428,1837.15 -523,1837.15C-533.572,1837.15 -542.155,1828.57 -542.155,1818C-542.155,1807.43 -533.572,1798.85 -523,1798.85ZM-523,1800C-532.934,1800 -541,1808.07 -541,1818C-541,1827.93 -532.934,1836 -523,1836C-513.066,1836 -505,1827.93 -505,1818C-505,1808.07 -513.066,1800 -523,1800Z" style="fill:white;"/>
                </g>
                <g transform="matrix(0.957108,2.67902,-3.85739,0.664726,44280.4,18599)">
                    <circle cx="-523" cy="1818" r="18" style="fill:rgb(229,218,218);"/>
                    <path d="M-523,1798.85C-512.428,1798.85 -503.845,1807.43 -503.845,1818C-503.845,1828.57 -512.428,1837.15 -523,1837.15C-533.572,1837.15 -542.155,1828.57 -542.155,1818C-542.155,1807.43 -533.572,1798.85 -523,1798.85ZM-523,1800C-532.934,1800 -541,1808.07 -541,1818C-541,1827.93 -532.934,1836 -523,1836C-513.066,1836 -505,1827.93 -505,1818C-505,1808.07 -513.066,1800 -523,1800Z" style="fill:white;"/>
                </g>
                <g transform="matrix(0.957108,2.67902,-3.85739,0.664726,43498.8,17436.4)">
                    <circle cx="-523" cy="1818" r="18" style="fill:rgb(229,218,218);"/>
                    <path d="M-523,1798.85C-512.428,1798.85 -503.845,1807.43 -503.845,1818C-503.845,1828.57 -512.428,1837.15 -523,1837.15C-533.572,1837.15 -542.155,1828.57 -542.155,1818C-542.155,1807.43 -533.572,1798.85 -523,1798.85ZM-523,1800C-532.934,1800 -541,1808.07 -541,1818C-541,1827.93 -532.934,1836 -523,1836C-513.066,1836 -505,1827.93 -505,1818C-505,1808.07 -513.066,1800 -523,1800Z" style="fill:white;"/>
                </g>
                <g transform="matrix(0.957108,2.67902,-3.85739,0.664726,42954.6,19632)">
                    <circle cx="-523" cy="1818" r="18" style="fill:rgb(229,218,218);"/>
                    <path d="M-523,1798.85C-512.428,1798.85 -503.845,1807.43 -503.845,1818C-503.845,1828.57 -512.428,1837.15 -523,1837.15C-533.572,1837.15 -542.155,1828.57 -542.155,1818C-542.155,1807.43 -533.572,1798.85 -523,1798.85ZM-523,1800C-532.934,1800 -541,1808.07 -541,1818C-541,1827.93 -532.934,1836 -523,1836C-513.066,1836 -505,1827.93 -505,1818C-505,1808.07 -513.066,1800 -523,1800Z" style="fill:white;"/>
                </g>
            </g>
        </g>
    </g>
</svg>
