<?xml version="1.0" encoding="UTF-8" standalone="no"?>
<!DOCTYPE svg PUBLIC "-//W3C//DTD SVG 1.1//EN" "http://www.w3.org/Graphics/SVG/1.1/DTD/svg11.dtd">
<svg width="100%" height="100%" viewBox="0 0 7645 6762" version="1.1" xmlns="http://www.w3.org/2000/svg" xmlns:xlink="http://www.w3.org/1999/xlink" xml:space="preserve" xmlns:serif="http://www.serif.com/" style="fill-rule:evenodd;clip-rule:evenodd;stroke-linecap:round;stroke-linejoin:round;stroke-miterlimit:1.5;">
    <g transform="matrix(1,0,0,1,-35565,-28207)">
        <g id="WallsBackgroundWhite" transform="matrix(0.653604,0,0,1.40418,18442.1,4577.15)">
            <rect x="26198.6" y="16828.4" width="11694.5" height="4815.34" style="fill:rgb(250,248,248);"/>
            <clipPath id="_clip1">
                <rect x="26198.6" y="16828.4" width="11694.5" height="4815.34"/>
            </clipPath>
            <g clip-path="url(#_clip1)">
                <g transform="matrix(1.52998,0,0,0.712157,-13883.7,-3150.36)">
                    <path d="M32039.5,31855.9L31672.3,31218.7L30871.7,29967.4C30871,29966.3 30871.1,29964.8 30872,29963.8C30873,29962.8 30874.4,29962.5 30875.6,29963.1L32240.4,30661.8C32240.9,30662.1 32241.4,30662.5 32241.7,30663L32926.2,31910.1C32926.7,31911.1 32926.7,31912.2 32926.1,31913.2C32925.5,31914.1 32924.5,31914.6 32923.4,31914.6L32041.9,31857.3C32040.9,31857.3 32040,31856.7 32039.5,31855.9ZM32042.1,31854.4L32923.6,31911.6L32239,30664.5L30874.3,29965.8L31674.9,31217.2L32042.1,31854.4Z" style="fill:rgb(229,218,218);"/>
                </g>
                <g transform="matrix(1.52998,0,0,0.712157,-13883.7,-3150.36)">
                    <path d="M32239,30664.5L31674.9,31217.2" style="fill:none;stroke:rgb(229,218,218);stroke-width:3px;"/>
                </g>
                <g transform="matrix(0.957108,1.7955,-3.85739,0.445504,42091.5,19210.3)">
                    <circle cx="-523" cy="1818" r="18" style="fill:rgb(250,248,248);"/>
                    <path d="M-523,1798.85C-512.428,1798.85 -503.845,1807.43 -503.845,1818C-503.845,1828.57 -512.428,1837.15 -523,1837.15C-533.572,1837.15 -542.155,1828.57 -542.155,1818C-542.155,1807.43 -533.572,1798.85 -523,1798.85ZM-523,1800C-532.934,1800 -541,1808.07 -541,1818C-541,1827.93 -532.934,1836 -523,1836C-513.066,1836 -505,1827.93 -505,1818C-505,1808.07 -513.066,1800 -523,1800Z" style="fill:rgb(229,218,218);"/>
                </g>
                <g transform="matrix(0.957108,1.7955,-3.85739,0.445504,42653.3,19664.1)">
                    <circle cx="-523" cy="1818" r="18" style="fill:rgb(250,248,248);"/>
                    <path d="M-523,1798.85C-512.428,1798.85 -503.845,1807.43 -503.845,1818C-503.845,1828.57 -512.428,1837.15 -523,1837.15C-533.572,1837.15 -542.155,1828.57 -542.155,1818C-542.155,1807.43 -533.572,1798.85 -523,1798.85ZM-523,1800C-532.934,1800 -541,1808.07 -541,1818C-541,1827.93 -532.934,1836 -523,1836C-513.066,1836 -505,1827.93 -505,1818C-505,1808.07 -513.066,1800 -523,1800Z" style="fill:rgb(229,218,218);"/>
                </g>
                <g transform="matrix(0.957108,1.7955,-3.85739,0.445504,40866.5,18319.1)">
                    <circle cx="-523" cy="1818" r="18" style="fill:rgb(250,248,248);"/>
                    <path d="M-523,1798.85C-512.428,1798.85 -503.845,1807.43 -503.845,1818C-503.845,1828.57 -512.428,1837.15 -523,1837.15C-533.572,1837.15 -542.155,1828.57 -542.155,1818C-542.155,1807.43 -533.572,1798.85 -523,1798.85ZM-523,1800C-532.934,1800 -541,1808.07 -541,1818C-541,1827.93 -532.934,1836 -523,1836C-513.066,1836 -505,1827.93 -505,1818C-505,1808.07 -513.066,1800 -523,1800Z" style="fill:rgb(229,218,218);"/>
                </g>
                <g transform="matrix(0.957108,1.7955,-3.85739,0.445504,44001.9,19704.8)">
                    <circle cx="-523" cy="1818" r="18" style="fill:rgb(250,248,248);"/>
                    <path d="M-523,1798.85C-512.428,1798.85 -503.845,1807.43 -503.845,1818C-503.845,1828.57 -512.428,1837.15 -523,1837.15C-533.572,1837.15 -542.155,1828.57 -542.155,1818C-542.155,1807.43 -533.572,1798.85 -523,1798.85ZM-523,1800C-532.934,1800 -541,1808.07 -541,1818C-541,1827.93 -532.934,1836 -523,1836C-513.066,1836 -505,1827.93 -505,1818C-505,1808.07 -513.066,1800 -523,1800Z" style="fill:rgb(229,218,218);"/>
                </g>
                <g transform="matrix(0.957108,1.7955,-3.85739,0.445504,42954.6,18816.7)">
                    <circle cx="-523" cy="1818" r="18" style="fill:rgb(250,248,248);"/>
                    <path d="M-523,1798.85C-512.428,1798.85 -503.845,1807.43 -503.845,1818C-503.845,1828.57 -512.428,1837.15 -523,1837.15C-533.572,1837.15 -542.155,1828.57 -542.155,1818C-542.155,1807.43 -533.572,1798.85 -523,1798.85ZM-523,1800C-532.934,1800 -541,1808.07 -541,1818C-541,1827.93 -532.934,1836 -523,1836C-513.066,1836 -505,1827.93 -505,1818C-505,1808.07 -513.066,1800 -523,1800Z" style="fill:rgb(229,218,218);"/>
                </g>
                <g transform="matrix(1.52998,0,0,0.712157,-13883.7,-3150.36)">
                    <path d="M28491.6,31415.6L30258.4,31676L30877.6,29968.2" style="fill:none;stroke:rgb(229,218,218);stroke-width:3px;"/>
                </g>
                <g transform="matrix(-0.275008,-1.84551,3.96483,-0.128007,28788.3,16778.9)">
                    <circle cx="-523" cy="1818" r="18" style="fill:rgb(250,248,248);"/>
                    <path d="M-523,1798.85C-512.428,1798.85 -503.845,1807.43 -503.845,1818C-503.845,1828.57 -512.428,1837.15 -523,1837.15C-533.572,1837.15 -542.155,1828.57 -542.155,1818C-542.155,1807.43 -533.572,1798.85 -523,1798.85ZM-523,1800C-532.934,1800 -541,1808.07 -541,1818C-541,1827.93 -532.934,1836 -523,1836C-513.066,1836 -505,1827.93 -505,1818C-505,1808.07 -513.066,1800 -523,1800Z" style="fill:rgb(229,218,218);"/>
                </g>
                <g transform="matrix(-0.275008,-1.84551,3.96483,-0.128007,29492.8,16230.1)">
                    <circle cx="-523" cy="1818" r="18" style="fill:rgb(250,248,248);"/>
                    <path d="M-523,1798.85C-512.428,1798.85 -503.845,1807.43 -503.845,1818C-503.845,1828.57 -512.428,1837.15 -523,1837.15C-533.572,1837.15 -542.155,1828.57 -542.155,1818C-542.155,1807.43 -533.572,1798.85 -523,1798.85ZM-523,1800C-532.934,1800 -541,1808.07 -541,1818C-541,1827.93 -532.934,1836 -523,1836C-513.066,1836 -505,1827.93 -505,1818C-505,1808.07 -513.066,1800 -523,1800Z" style="fill:rgb(229,218,218);"/>
                </g>
                <g transform="matrix(-1.50689,-0.123263,0.264815,-0.701408,71518.6,44338.2)">
                    <path d="M27741.8,33680L29293.5,33096.2C29294.6,33095.8 29295.8,33096 29296.7,33096.9C29297.5,33097.7 29297.8,33099 29297.4,33100.1L28977.2,33938.7C28976.7,33940 28975.3,33940.8 28973.8,33940.5L27742.2,33685.7C27740.9,33685.4 27740,33684.3 27739.9,33683C27739.8,33681.7 27740.5,33680.4 27741.8,33680ZM27742.8,33682.8L28974.4,33937.6L29294.6,33099L27742.8,33682.8Z" style="fill:rgb(229,218,218);"/>
                </g>
                <g transform="matrix(-0.264815,0.701408,-1.50689,-0.123263,100988,-959.169)">
                    <path d="M32880.7,37255.9L34136.1,38880.6" style="fill:none;stroke:rgb(229,218,218);stroke-width:3px;"/>
                </g>
                <g transform="matrix(1.25883,-0.404764,0.869583,0.585947,-36361.7,15775.5)">
                    <path d="M32039.5,31855.9L31672.3,31218.7L30871.7,29967.4C30871,29966.3 30871.1,29964.8 30872,29963.8C30873,29962.8 30874.4,29962.5 30875.6,29963.1L32240.4,30661.8C32240.9,30662.1 32241.4,30662.5 32241.7,30663L32926.2,31910.1C32926.7,31911.1 32926.7,31912.2 32926.1,31913.2C32925.5,31914.1 32924.5,31914.6 32923.4,31914.6L32041.9,31857.3C32040.9,31857.3 32040,31856.7 32039.5,31855.9ZM32042.1,31854.4L32923.6,31911.6L32239,30664.5L30874.3,29965.8L31674.9,31217.2L32042.1,31854.4Z" style="fill:rgb(229,218,218);"/>
                </g>
                <g transform="matrix(1.52998,0,0,0.712157,-13883.7,-3150.36)">
                    <path d="M27836.4,31577.7L26942.5,32155.9L27555.7,30099.1L26895.8,29308.4L26942.5,32155.9" style="fill:none;stroke:rgb(229,218,218);stroke-width:3px;"/>
                </g>
                <g transform="matrix(1.52998,0,0,0.712157,-12451.8,-2203.23)">
                    <path d="M26622.2,28767.4L27558.1,30083.9C27558.7,30084.7 27558.9,30085.7 27558.5,30086.7C27558.2,30087.6 27557.4,30088.3 27556.4,30088.5L26901.2,30250.7C26900.4,30250.9 26899.5,30250.7 26898.8,30250.3C26898.1,30249.8 26897.7,30249.1 26897.5,30248.3L26616.8,28769.7C26616.6,28768.3 26617.3,28767 26618.6,28766.4C26619.9,28765.9 26621.4,28766.3 26622.2,28767.4ZM26619.8,28769.2L26900.5,30247.8L27555.7,30085.6L26619.8,28769.2Z" style="fill:rgb(229,218,218);"/>
                </g>
                <g transform="matrix(0.957108,1.7955,-3.85739,0.445504,34851.1,19878.8)">
                    <circle cx="-523" cy="1818" r="18" style="fill:rgb(250,248,248);"/>
                    <path d="M-523,1798.85C-512.428,1798.85 -503.845,1807.43 -503.845,1818C-503.845,1828.57 -512.428,1837.15 -523,1837.15C-533.572,1837.15 -542.155,1828.57 -542.155,1818C-542.155,1807.43 -533.572,1798.85 -523,1798.85ZM-523,1800C-532.934,1800 -541,1808.07 -541,1818C-541,1827.93 -532.934,1836 -523,1836C-513.066,1836 -505,1827.93 -505,1818C-505,1808.07 -513.066,1800 -523,1800Z" style="fill:rgb(229,218,218);"/>
                </g>
                <g transform="matrix(0.957108,1.7955,-3.85739,0.445504,35789.2,18414.1)">
                    <circle cx="-523" cy="1818" r="18" style="fill:rgb(250,248,248);"/>
                    <path d="M-523,1798.85C-512.428,1798.85 -503.845,1807.43 -503.845,1818C-503.845,1828.57 -512.428,1837.15 -523,1837.15C-533.572,1837.15 -542.155,1828.57 -542.155,1818C-542.155,1807.43 -533.572,1798.85 -523,1798.85ZM-523,1800C-532.934,1800 -541,1808.07 -541,1818C-541,1827.93 -532.934,1836 -523,1836C-513.066,1836 -505,1827.93 -505,1818C-505,1808.07 -513.066,1800 -523,1800Z" style="fill:rgb(229,218,218);"/>
                </g>
                <g transform="matrix(0.957108,1.7955,-3.85739,0.445504,36075.5,20966.2)">
                    <circle cx="-523" cy="1818" r="18" style="fill:rgb(250,248,248);"/>
                    <path d="M-523,1798.85C-512.428,1798.85 -503.845,1807.43 -503.845,1818C-503.845,1828.57 -512.428,1837.15 -523,1837.15C-533.572,1837.15 -542.155,1828.57 -542.155,1818C-542.155,1807.43 -533.572,1798.85 -523,1798.85ZM-523,1800C-532.934,1800 -541,1808.07 -541,1818C-541,1827.93 -532.934,1836 -523,1836C-513.066,1836 -505,1827.93 -505,1818C-505,1808.07 -513.066,1800 -523,1800Z" style="fill:rgb(229,218,218);"/>
                </g>
                <g transform="matrix(0.957108,1.7955,-3.85739,0.445504,37221.1,19351.6)">
                    <circle cx="-523" cy="1818" r="18" style="fill:rgb(250,248,248);"/>
                    <path d="M-523,1798.85C-512.428,1798.85 -503.845,1807.43 -503.845,1818C-503.845,1828.57 -512.428,1837.15 -523,1837.15C-533.572,1837.15 -542.155,1828.57 -542.155,1818C-542.155,1807.43 -533.572,1798.85 -523,1798.85ZM-523,1800C-532.934,1800 -541,1808.07 -541,1818C-541,1827.93 -532.934,1836 -523,1836C-513.066,1836 -505,1827.93 -505,1818C-505,1808.07 -513.066,1800 -523,1800Z" style="fill:rgb(229,218,218);"/>
                </g>
                <g transform="matrix(0.957108,1.7955,-3.85739,0.445504,39914.7,19535.5)">
                    <circle cx="-523" cy="1818" r="18" style="fill:rgb(250,248,248);"/>
                    <path d="M-523,1798.85C-512.428,1798.85 -503.845,1807.43 -503.845,1818C-503.845,1828.57 -512.428,1837.15 -523,1837.15C-533.572,1837.15 -542.155,1828.57 -542.155,1818C-542.155,1807.43 -533.572,1798.85 -523,1798.85ZM-523,1800C-532.934,1800 -541,1808.07 -541,1818C-541,1827.93 -532.934,1836 -523,1836C-513.066,1836 -505,1827.93 -505,1818C-505,1808.07 -513.066,1800 -523,1800Z" style="fill:rgb(229,218,218);"/>
                </g>
                <g transform="matrix(2.97989,1.22409,-2.62979,1.38704,38013.3,19589.6)">
                    <circle cx="-523" cy="1818" r="18" style="fill:rgb(250,248,248);"/>
                    <path d="M-523,1798.85C-512.428,1798.85 -503.845,1807.43 -503.845,1818C-503.845,1828.57 -512.428,1837.15 -523,1837.15C-533.572,1837.15 -542.155,1828.57 -542.155,1818C-542.155,1807.43 -533.572,1798.85 -523,1798.85ZM-523,1800C-532.934,1800 -541,1808.07 -541,1818C-541,1827.93 -532.934,1836 -523,1836C-513.066,1836 -505,1827.93 -505,1818C-505,1808.07 -513.066,1800 -523,1800Z" style="fill:rgb(229,218,218);"/>
                </g>
                <g transform="matrix(0.957108,1.7955,-3.85739,0.445504,36218.6,19467)">
                    <circle cx="-523" cy="1818" r="18" style="fill:rgb(250,248,248);"/>
                    <path d="M-523,1798.85C-512.428,1798.85 -503.845,1807.43 -503.845,1818C-503.845,1828.57 -512.428,1837.15 -523,1837.15C-533.572,1837.15 -542.155,1828.57 -542.155,1818C-542.155,1807.43 -533.572,1798.85 -523,1798.85ZM-523,1800C-532.934,1800 -541,1808.07 -541,1818C-541,1827.93 -532.934,1836 -523,1836C-513.066,1836 -505,1827.93 -505,1818C-505,1808.07 -513.066,1800 -523,1800Z" style="fill:rgb(229,218,218);"/>
                </g>
                <g transform="matrix(0.957108,1.7955,-3.85739,0.445504,34779.5,17850.9)">
                    <circle cx="-523" cy="1818" r="18" style="fill:rgb(250,248,248);"/>
                    <path d="M-523,1798.85C-512.428,1798.85 -503.845,1807.43 -503.845,1818C-503.845,1828.57 -512.428,1837.15 -523,1837.15C-533.572,1837.15 -542.155,1828.57 -542.155,1818C-542.155,1807.43 -533.572,1798.85 -523,1798.85ZM-523,1800C-532.934,1800 -541,1808.07 -541,1818C-541,1827.93 -532.934,1836 -523,1836C-513.066,1836 -505,1827.93 -505,1818C-505,1808.07 -513.066,1800 -523,1800Z" style="fill:rgb(229,218,218);"/>
                </g>
                <g transform="matrix(2.97989,1.22409,-2.62979,1.38704,39172.7,19266.3)">
                    <circle cx="-523" cy="1818" r="18" style="fill:rgb(250,248,248);"/>
                    <path d="M-523,1798.85C-512.428,1798.85 -503.845,1807.43 -503.845,1818C-503.845,1828.57 -512.428,1837.15 -523,1837.15C-533.572,1837.15 -542.155,1828.57 -542.155,1818C-542.155,1807.43 -533.572,1798.85 -523,1798.85ZM-523,1800C-532.934,1800 -541,1808.07 -541,1818C-541,1827.93 -532.934,1836 -523,1836C-513.066,1836 -505,1827.93 -505,1818C-505,1808.07 -513.066,1800 -523,1800Z" style="fill:rgb(229,218,218);"/>
                </g>
                <g transform="matrix(1.52998,0,0,0.712157,-13883.7,-3150.36)">
                    <path d="M27742.8,33682.8L26944.1,32146.5" style="fill:none;stroke:rgb(229,218,218);stroke-width:3px;"/>
                </g>
                <g transform="matrix(1.52998,0,0,0.712157,-13883.7,-3150.36)">
                    <path d="M26864.3,29272.1L26125.5,28547.6" style="fill:none;stroke:rgb(229,218,218);stroke-width:3px;"/>
                </g>
            </g>
        </g>
    </g>
</svg>
